SplineFontDB: 3.2
FontName: Entity-BoldOblique
FullName: Entity Bold Oblique
FamilyName: Entity
Weight: Bold
Copyright: Based on Geist Copyright 2024 The Geist Project Authors https:github.comvercelgeist-font.git
Version: 0.1
ItalicAngle: -10
UnderlinePosition: -125
UnderlineWidth: 50
Ascent: 800
Descent: 200
InvalidEm: 0
sfntRevision: 0x0000199a
LayerCount: 2
Layer: 0 0 "Back" 1
Layer: 1 0 "Fore" 0
XUID: [1021 1008 -1557834819 15726787]
StyleMap: 0x0020
FSType: 0
OS2Version: 4
OS2_WeightWidthSlopeOnly: 0
OS2_UseTypoMetrics: 1
CreationTime: 1728311655
ModificationTime: 1746832131
PfmFamily: 81
TTFWeight: 700
TTFWidth: 5
LineGap: 0
VLineGap: 0
Panose: 0 0 0 0 0 0 0 0 0 0
OS2TypoAscent: 1005
OS2TypoAOffset: 0
OS2TypoDescent: -295
OS2TypoDOffset: 0
OS2TypoLinegap: 0
OS2WinAscent: 1012
OS2WinAOffset: 0
OS2WinDescent: 262
OS2WinDOffset: 0
HheadAscent: 1005
HheadAOffset: 0
HheadDescent: -295
HheadDOffset: 0
OS2SubXSize: 650
OS2SubYSize: 600
OS2SubXOff: 0
OS2SubYOff: 75
OS2SupXSize: 650
OS2SupYSize: 600
OS2SupXOff: 0
OS2SupYOff: 350
OS2StrikeYSize: 50
OS2StrikeYPos: 322
OS2CapHeight: 710
OS2XHeight: 536
OS2Vendor: 'VRCL'
OS2CodePages: 20000097.00000000
OS2UnicodeRanges: a10002ff.5001e5fb.00000000.00000000
Lookup: 1 0 0 "'aalt' Access All Alternates in Latin lookup 0" { "'aalt' Access All Alternates in Latin lookup 0 subtable"  } ['aalt' ('DFLT' <'dflt' > 'latn' <'AZE ' 'CAT ' 'CRT ' 'KAZ ' 'MAH ' 'MOL ' 'NLD ' 'ROM ' 'TAT ' 'TRK ' 'dflt' > ) ]
Lookup: 3 0 0 "'aalt' Access All Alternates in Latin lookup 1" { "'aalt' Access All Alternates in Latin lookup 1 subtable"  } ['aalt' ('DFLT' <'dflt' > 'latn' <'AZE ' 'CAT ' 'CRT ' 'KAZ ' 'MAH ' 'MOL ' 'NLD ' 'ROM ' 'TAT ' 'TRK ' 'dflt' > ) ]

StartChar: .notdef
Encoding: 65536 -1 0
Width: 600
GlyphClass: 1
Flags: HMW
HStem: 0 36<95 510 95 565> 674 36<95 95 95 510>
VStem: 40 33<64 646 64 710> 532 33<64 646 646 646>
LayerCount: 2
Fore
SplineSet
-22.595703125 0 m 1
 102.595703125 710 l 1
 627.595703125 710 l 1
 502.404296875 0 l 1
 -22.595703125 0 l 1
151.248046875 674 m 1
 308.11328125 384 l 1
 566.248046875 674 l 1
 151.248046875 674 l 1
124.311523438 646 m 1
 21.6884765625 64 l 1
 282 355 l 1
 124.311523438 646 l 1
323 355 m 1
 480.688476562 64 l 1
 583.311523438 646 l 1
 323 355 l 1
38.751953125 36 m 1
 453.751953125 36 l 1
 297.88671875 326 l 1
 38.751953125 36 l 1
EndSplineSet
Validated: 1
EndChar

StartChar: A
Encoding: 65 65 1
Width: 730
GlyphClass: 2
Flags: HMW
HStem: 0 21G<19 19 19 176 553 553 553 711> 151 125<271 459 271 501 228 459> 690 20G<275 455 455 455>
VStem: 19 692<0 0>
AnchorPoint: "Anchor-3" 427.596 710 basechar 0
AnchorPoint: "Anchor-2" 648.404 0 basechar 0
AnchorPoint: "Anchor-0" 302.404 0 basechar 0
LayerCount: 2
Fore
SplineSet
-43.595703125 0 m 1
 337.595703125 710 l 1
 517.595703125 710 l 1
 648.404296875 0 l 1
 490.404296875 0 l 1
 465.029296875 151 l 1
 192.029296875 151 l 1
 113.404296875 0 l 1
 -43.595703125 0 l 1
257.0703125 276 m 1
 445.0703125 276 l 1
 399.383789062 550 l 1
 257.0703125 276 l 1
EndSplineSet
Validated: 1
Substitution2: "Single Substitution lookup 27 subtable" ordfeminine
Substitution2: "'aalt' Access All Alternates in Latin lookup 0 subtable" ordfeminine
EndChar

StartChar: Aacute
Encoding: 193 193 2
Width: 730
GlyphClass: 2
Flags: HMW
HStem: 0 21G<19 19 19 176 553 553 553 711> 151 125<271 459 271 501 228 459> 690 20G<275 455 455 455> 765 148<297 501 356 411>
VStem: 19 692<0 0>
AnchorPoint: "Anchor-3" 409.699 710 basechar 0
AnchorPoint: "Anchor-2" 630.507 0 basechar 0
AnchorPoint: "Anchor-0" 284.507 0 basechar 0
LayerCount: 2
Fore
SplineSet
351.396484375 765 m 1
 436.493164062 913 l 1
 581.493164062 913 l 1
 465.396484375 765 l 1
 351.396484375 765 l 1
-61.4931640625 0 m 1
 319.69921875 710 l 1
 499.69921875 710 l 1
 630.506835938 0 l 1
 472.506835938 0 l 1
 447.131835938 151 l 1
 174.131835938 151 l 1
 95.5068359375 0 l 1
 -61.4931640625 0 l 1
239.172851562 276 m 1
 427.172851562 276 l 1
 381.486328125 550 l 1
 239.172851562 276 l 1
EndSplineSet
Validated: 1
EndChar

StartChar: Abreve
Encoding: 258 258 3
Width: 730
GlyphClass: 2
Flags: HMW
HStem: 0 21G<19 19 19 176 553 553 553 711> 151 125<271 459 271 501 228 459> 690 20G<275 455 455 455> 766 82<345 385 345 411.5> 766 147<208 411.5>
VStem: 19 692<0 0>
AnchorPoint: "Anchor-3" 409.699 710 basechar 0
AnchorPoint: "Anchor-2" 630.507 0 basechar 0
AnchorPoint: "Anchor-0" 284.507 0 basechar 0
LayerCount: 2
Fore
SplineSet
419.573242188 766 m 0xec
 326.573242188 766 275.918945312 819 288.493164062 913 c 1xec
 375.493164062 913 l 1
 372.381835938 867 394.032226562 848 434.032226562 848 c 0xf4
 474.032226562 848 502.381835938 867 515.493164062 913 c 1
 602.493164062 913 l 1
 581.918945312 819 512.573242188 766 419.573242188 766 c 0xec
-61.4931640625 0 m 1
 319.69921875 710 l 1
 499.69921875 710 l 1
 630.506835938 0 l 1
 472.506835938 0 l 1
 447.131835938 151 l 1
 174.131835938 151 l 1
 95.5068359375 0 l 1
 -61.4931640625 0 l 1
239.172851562 276 m 1
 427.172851562 276 l 1
 381.486328125 550 l 1
 239.172851562 276 l 1
EndSplineSet
Validated: 33
EndChar

StartChar: uni01CD
Encoding: 461 461 4
Width: 730
GlyphClass: 2
Flags: HMW
HStem: 0 21G<19 19 19 176 553 553 553 711> 151 125<271 459 271 501 228 459> 690 20G<275 455 455 455> 765 153<293 302 429 437 293 293>
VStem: 19 692<0 0>
AnchorPoint: "Anchor-3" 409.258 710 basechar 0
AnchorPoint: "Anchor-2" 630.065 0 basechar 0
AnchorPoint: "Anchor-0" 284.065 0 basechar 0
LayerCount: 2
Fore
SplineSet
277.934570312 918 m 1
 382.934570312 918 l 1
 430.241210938 829 l 1
 509.934570312 918 l 1
 613.934570312 918 l 1
 490.956054688 765 l 1
 346.956054688 765 l 1
 277.934570312 918 l 1
-61.9345703125 0 m 1
 319.2578125 710 l 1
 499.2578125 710 l 1
 630.065429688 0 l 1
 472.065429688 0 l 1
 446.69140625 151 l 1
 173.69140625 151 l 1
 95.0654296875 0 l 1
 -61.9345703125 0 l 1
238.732421875 276 m 1
 426.732421875 276 l 1
 381.045898438 550 l 1
 238.732421875 276 l 1
EndSplineSet
Validated: 1
EndChar

StartChar: Acircumflex
Encoding: 194 194 5
Width: 730
GlyphClass: 2
Flags: HMW
HStem: 0 21G<19 19 19 176 553 553 553 711> 151 125<271 459 271 501 228 459> 690 20G<275 455 455 455> 765 153<197 437 293 302 429 429 429 437 293 533>
VStem: 19 692<0 0>
AnchorPoint: "Anchor-3" 409.258 710 basechar 0
AnchorPoint: "Anchor-2" 630.065 0 basechar 0
AnchorPoint: "Anchor-0" 284.065 0 basechar 0
LayerCount: 2
Fore
SplineSet
250.956054688 765 m 1
 373.934570312 918 l 1
 517.934570312 918 l 1
 586.956054688 765 l 1
 482.956054688 765 l 1
 434.649414062 854 l 1
 355.956054688 765 l 1
 250.956054688 765 l 1
-61.9345703125 0 m 1
 319.2578125 710 l 1
 499.2578125 710 l 1
 630.065429688 0 l 1
 472.065429688 0 l 1
 446.69140625 151 l 1
 173.69140625 151 l 1
 95.0654296875 0 l 1
 -61.9345703125 0 l 1
238.732421875 276 m 1
 426.732421875 276 l 1
 381.045898438 550 l 1
 238.732421875 276 l 1
EndSplineSet
Validated: 1
EndChar

StartChar: Adieresis
Encoding: 196 196 6
Width: 730
GlyphClass: 2
Flags: HMW
HStem: 0 21G<19 19 19 176 553 553 553 711> 151 125<271 459 271 501 228 459> 690 20G<275 455 455 455> 773 121<186 329 186 329 401 544 186 401>
VStem: 186 143<773 894 773 894> 401 143<773 894 773 894>
AnchorPoint: "Anchor-3" 411.374 710 basechar 0
AnchorPoint: "Anchor-2" 632.182 0 basechar 0
AnchorPoint: "Anchor-0" 286.182 0 basechar 0
LayerCount: 2
Fore
SplineSet
243.482421875 773 m 1
 264.818359375 894 l 1
 407.818359375 894 l 1
 386.482421875 773 l 1
 243.482421875 773 l 1
458.482421875 773 m 1
 479.818359375 894 l 1
 622.818359375 894 l 1
 601.482421875 773 l 1
 458.482421875 773 l 1
-59.818359375 0 m 1
 321.374023438 710 l 1
 501.374023438 710 l 1
 632.181640625 0 l 1
 474.181640625 0 l 1
 448.807617188 151 l 1
 175.807617188 151 l 1
 97.181640625 0 l 1
 -59.818359375 0 l 1
240.84765625 276 m 1
 428.84765625 276 l 1
 383.162109375 550 l 1
 240.84765625 276 l 1
EndSplineSet
Validated: 1
Substitution2: "'ss08' Style Set 8 in Latin lookup 41 subtable" Adieresis.ss08
Substitution2: "'aalt' Access All Alternates in Latin lookup 0 subtable" Adieresis.ss08
EndChar

StartChar: Agrave
Encoding: 192 192 7
Width: 730
GlyphClass: 2
Flags: HMW
HStem: 0 21G<19 19 19 176 553 553 553 711> 151 125<271 459 271 501 228 459> 690 20G<275 455 455 455> 772 147<317 317 317 373 227 432>
VStem: 19 692<0 0>
AnchorPoint: "Anchor-3" 409.17 710 basechar 0
AnchorPoint: "Anchor-2" 629.978 0 basechar 0
AnchorPoint: "Anchor-0" 283.978 0 basechar 0
LayerCount: 2
Fore
SplineSet
372.102539062 772 m 1
 308.022460938 919 l 1
 454.022460938 919 l 1
 487.102539062 772 l 1
 372.102539062 772 l 1
-62.0224609375 0 m 1
 319.169921875 710 l 1
 499.169921875 710 l 1
 629.977539062 0 l 1
 471.977539062 0 l 1
 446.603515625 151 l 1
 173.603515625 151 l 1
 94.9775390625 0 l 1
 -62.0224609375 0 l 1
238.643554688 276 m 1
 426.643554688 276 l 1
 380.958007812 550 l 1
 238.643554688 276 l 1
EndSplineSet
Validated: 1
EndChar

StartChar: Amacron
Encoding: 256 256 8
Width: 730
GlyphClass: 2
Flags: HMW
HStem: 0 21G<19 19 19 176 553 553 553 711> 151 125<271 459 271 501 228 459> 690 20G<275 455 455 455> 781 110<216 515 216 515>
VStem: 19 692<0 0> 216 299<781 891 781 891>
AnchorPoint: "Anchor-3" 411.639 710 basechar 0
AnchorPoint: "Anchor-2" 632.446 0 basechar 0
AnchorPoint: "Anchor-0" 286.446 0 basechar 0
LayerCount: 2
Fore
SplineSet
275.157226562 781 m 1xf4
 294.553710938 891 l 1
 593.553710938 891 l 1
 574.157226562 781 l 1
 275.157226562 781 l 1xf4
-59.5537109375 0 m 1
 321.638671875 710 l 1
 501.638671875 710 l 1
 632.446289062 0 l 1
 474.446289062 0 l 1
 449.071289062 151 l 1
 176.071289062 151 l 1
 97.4462890625 0 l 1xf8
 -59.5537109375 0 l 1
241.112304688 276 m 1
 429.112304688 276 l 1
 383.42578125 550 l 1
 241.112304688 276 l 1
EndSplineSet
Validated: 1
EndChar

StartChar: Aogonek
Encoding: 260 260 9
Width: 730
GlyphClass: 2
Flags: HMW
HStem: -217 89<605.5 683.5> 0 21G<19 19 19 176 553 553 553 593 711 711> 151 125<271 459 271 501 228 459> 690 20G<275 455 455 455>
VStem: 19 729<-191 0> 528 121<-159.5 -94.5>
AnchorPoint: "Anchor-3" 446.728 710 basechar 0
AnchorPoint: "Anchor-2" 667.535 0 basechar 0
AnchorPoint: "Anchor-0" 321.535 0 basechar 0
LayerCount: 2
Fore
SplineSet
-24.46484375 0 m 1x78
 356.727539062 710 l 1
 536.727539062 710 l 1
 667.53515625 0 l 1
 630.482421875 -40 l 2
 605.897460938 -66 590.37109375 -86 587.374023438 -103 c 0xf4
 584.552734375 -119 594.965820312 -128 608.965820312 -128 c 0
 625.965820312 -128 645.0234375 -122 656.2578125 -115 c 1
 670.857421875 -191 l 1xf8
 650.211914062 -206 602.272460938 -217 559.272460938 -217 c 0
 488.272460938 -217 451.5625 -187 461.259765625 -132 c 0xf4
 468.489257812 -91 500.366210938 -52 531.008789062 -20 c 2
 549.53515625 0 l 1
 509.53515625 0 l 1
 484.161132812 151 l 1
 211.161132812 151 l 1
 132.53515625 0 l 1
 -24.46484375 0 l 1x78
276.201171875 276 m 1
 464.201171875 276 l 1
 418.515625 550 l 1
 276.201171875 276 l 1
EndSplineSet
Validated: 33
EndChar

StartChar: Aring
Encoding: 197 197 10
Width: 736
GlyphClass: 2
Flags: HMW
HStem: 0 21G<13 13 13 170 548 548 548 705> 151 125<265 453 265 495 222 453> 690 20G<269 449 449 449> 755 64<352 374 352 392> 894 64<352 374>
VStem: 260 66<845.5 867 845.5 885> 400 66<845.5 867>
AnchorPoint: "Anchor-3" 399.731 710 basechar 0
AnchorPoint: "Anchor-2" 620.539 0 basechar 0
AnchorPoint: "Anchor-0" 274.539 0 basechar 0
LayerCount: 2
Fore
SplineSet
411.666015625 755 m 0
 353.666015625 755 316.248046875 798 326.475585938 856 c 0
 336.702148438 914 389.4609375 958 447.4609375 958 c 0
 505.4609375 958 542.702148438 914 532.475585938 856 c 0
 522.248046875 798 469.666015625 755 411.666015625 755 c 0
422.951171875 819 m 0
 444.951171875 819 462.772460938 835 466.475585938 856 c 0
 470.354492188 878 458.17578125 894 436.17578125 894 c 0
 414.17578125 894 396.354492188 878 392.475585938 856 c 0
 388.772460938 835 400.951171875 819 422.951171875 819 c 0
-71.4609375 0 m 1
 309.731445312 710 l 1
 489.731445312 710 l 1
 620.5390625 0 l 1
 463.5390625 0 l 1
 437.165039062 151 l 1
 164.165039062 151 l 1
 85.5390625 0 l 1
 -71.4609375 0 l 1
229.206054688 276 m 1
 417.206054688 276 l 1
 371.51953125 550 l 1
 229.206054688 276 l 1
EndSplineSet
Validated: 33
EndChar

StartChar: Atilde
Encoding: 195 195 11
Width: 736
GlyphClass: 2
Flags: HMW
HStem: 0 21G<13 13 13 170 548 548 548 705> 151 125<265 453 265 495 222 453> 690 20G<269 449 449 449> 775 142<187 314 187 314> 780 89<411.5 428 411.5 451> 780 144<399.5 530> 828 89<290.5 307>
VStem: 187 75<775 775> 455 75<924 924>
AnchorPoint: "Anchor-3" 402.729 710 basechar 0
AnchorPoint: "Anchor-2" 623.537 0 basechar 0
AnchorPoint: "Anchor-0" 277.537 0 basechar 0
LayerCount: 2
Fore
SplineSet
471.072265625 780 m 0xe580
 440.072265625 780 421.482421875 788 400.361328125 810 c 0
 387.477539062 822 378.536132812 828 364.536132812 828 c 0xe380
 345.536132812 828 327.419921875 816 317.190429688 775 c 1
 242.190429688 775 l 1
 258.53125 862 309.228515625 917 378.228515625 917 c 0xf180
 410.228515625 917 431.641601562 908 453.939453125 887 c 0
 467.823242188 875 476.764648438 869 489.764648438 869 c 0xe980
 509.764648438 869 525.880859375 881 536.462890625 924 c 1
 611.462890625 924 l 1
 593.946289062 836 543.072265625 780 471.072265625 780 c 0xe580
-68.462890625 0 m 1
 312.729492188 710 l 1
 492.729492188 710 l 1
 623.537109375 0 l 1
 466.537109375 0 l 1
 440.162109375 151 l 1
 167.162109375 151 l 1
 88.537109375 0 l 1
 -68.462890625 0 l 1
232.203125 276 m 1
 420.203125 276 l 1
 374.516601562 550 l 1
 232.203125 276 l 1
EndSplineSet
Validated: 1
EndChar

StartChar: AE
Encoding: 198 198 12
Width: 1042
GlyphClass: 2
Flags: HMW
HStem: 0 128<676 997 676 997> 152 123<321 524 321 524 257 524> 293 126<676 977 676 977> 582 128<676 989 676 676> 584 126<481 524 481 481>
VStem: 524 152<128 152 152 152 275 293 419 582>
AnchorPoint: "Anchor-3" 620.596 710 basechar 0
AnchorPoint: "Anchor-0" 495.404 0 basechar 0
LayerCount: 2
Fore
SplineSet
-43.595703125 0 m 1xb4
 461.595703125 710 l 1
 1051.59570312 710 l 1
 1029.02636719 582 l 1
 716.026367188 582 l 1
 687.28515625 419 l 1
 988.28515625 419 l 1
 966.067382812 293 l 1
 665.067382812 293 l 1
 635.973632812 128 l 1
 956.973632812 128 l 1
 934.404296875 0 l 1
 461.404296875 0 l 1xb4
 488.206054688 152 l 1
 221.206054688 152 l 1x54
 116.404296875 0 l 1
 -43.595703125 0 l 1xb4
564.37890625 584 m 1x4c
 521.37890625 584 l 1
 306.893554688 275 l 1
 509.893554688 275 l 1
 564.37890625 584 l 1x4c
EndSplineSet
Validated: 1
EndChar

StartChar: B
Encoding: 66 66 13
Width: 703
GlyphClass: 2
Flags: HMW
HStem: 0 124<226 377 377 384> 306 61 306 110<226 346 346 377 226 346> 586 124<226 346 226 226>
VStem: 74 152<124 124 124 306 416 586> 469 153<474 530.5> 499 153<183.5 244>
AnchorPoint: "Anchor-3" 413.596 710 basechar 0
AnchorPoint: "Anchor-0" 288.404 0 basechar 0
LayerCount: 2
Fore
SplineSet
11.404296875 0 m 1xda
 136.595703125 710 l 1
 412.595703125 710 l 2
 588.595703125 710 674.016601562 650 650.565429688 517 c 0xbc
 635.400390625 431 572.703125 376 477.116210938 367 c 1
 590.529296875 358 641.244140625 294 623.963867188 196 c 0
 600.688476562 64 493.404296875 0 321.404296875 0 c 2
 11.404296875 0 l 1xda
236.755859375 416 m 1
 356.755859375 416 l 2
 431.755859375 416 484.869140625 445 494.744140625 501 c 0
 505.147460938 560 463.731445312 586 386.731445312 586 c 2
 266.731445312 586 l 1
 236.755859375 416 l 1
185.268554688 124 m 1
 336.268554688 124 l 2
 409.268554688 124 463.381835938 153 474.137695312 214 c 0xba
 484.717773438 274 441.360351562 306 368.360351562 306 c 2
 217.360351562 306 l 1
 185.268554688 124 l 1
EndSplineSet
Validated: 33
EndChar

StartChar: C
Encoding: 67 67 14
Width: 734
GlyphClass: 2
Flags: HMW
HStem: -16 128<322.5 424.5 322.5 467.5> 598 128<321.5 422>
VStem: 42 157<279 428 279 467>
AnchorPoint: "Anchor-3" 439.596 710 basechar 0
AnchorPoint: "Anchor-0" 316.404 0 basechar 0
LayerCount: 2
Fore
SplineSet
309.583007812 -16 m 0
 115.583007812 -16 0.916015625 122 41.8232421875 354 c 0
 81.673828125 580 238.416992188 726 443.416992188 726 c 0
 629.416992188 726 712.666015625 631 712.8671875 462 c 1
 553.80859375 456 l 1
 553.501953125 545 508.84765625 598 420.84765625 598 c 0
 307.84765625 598 224.919921875 502 198.823242188 354 c 0
 172.375 204 225.15234375 112 334.15234375 112 c 0
 429.15234375 112 491.203125 169 522.130859375 265 c 1
 680.072265625 259 l 1
 620.568359375 86 494.583007812 -16 309.583007812 -16 c 0
EndSplineSet
Validated: 33
EndChar

StartChar: Cacute
Encoding: 262 262 15
Width: 734
GlyphClass: 2
Flags: HMW
HStem: -16 128<322.5 424.5 322.5 467.5> 598 128<321.5 422> 765 148<309 513 368 423>
VStem: 42 157<279 428 279 467>
AnchorPoint: "Anchor-3" 423.109 710 basechar 0
AnchorPoint: "Anchor-0" 299.917 0 basechar 0
LayerCount: 2
Fore
SplineSet
364.807617188 765 m 1
 449.904296875 913 l 1
 594.904296875 913 l 1
 478.807617188 765 l 1
 364.807617188 765 l 1
293.095703125 -16 m 0
 99.095703125 -16 -15.5703125 122 25.3369140625 354 c 0
 65.1865234375 580 221.930664062 726 426.930664062 726 c 0
 612.930664062 726 696.1796875 631 696.380859375 462 c 1
 537.322265625 456 l 1
 537.015625 545 492.361328125 598 404.361328125 598 c 0
 291.361328125 598 208.43359375 502 182.336914062 354 c 0
 155.887695312 204 208.666015625 112 317.666015625 112 c 0
 412.666015625 112 474.716796875 169 505.643554688 265 c 1
 663.5859375 259 l 1
 604.081054688 86 478.095703125 -16 293.095703125 -16 c 0
EndSplineSet
Validated: 33
EndChar

StartChar: Ccaron
Encoding: 268 268 16
Width: 734
GlyphClass: 2
Flags: HMW
HStem: -16 128<322.5 424.5 322.5 467.5> 598 128<321.5 422> 765 153<305 314 440 449 305 305>
VStem: 42 157<279 428 279 467>
AnchorPoint: "Anchor-3" 422.669 710 basechar 0
AnchorPoint: "Anchor-0" 299.477 0 basechar 0
LayerCount: 2
Fore
SplineSet
291.344726562 918 m 1
 396.344726562 918 l 1
 443.651367188 829 l 1
 522.344726562 918 l 1
 627.344726562 918 l 1
 504.366210938 765 l 1
 360.366210938 765 l 1
 291.344726562 918 l 1
292.655273438 -16 m 0
 98.6552734375 -16 -16.01171875 122 24.896484375 354 c 0
 64.74609375 580 221.490234375 726 426.490234375 726 c 0
 612.490234375 726 695.739257812 631 695.939453125 462 c 1
 536.881835938 456 l 1
 536.575195312 545 491.919921875 598 403.919921875 598 c 0
 290.919921875 598 207.993164062 502 181.896484375 354 c 0
 155.447265625 204 208.225585938 112 317.225585938 112 c 0
 412.225585938 112 474.275390625 169 505.203125 265 c 1
 663.145507812 259 l 1
 603.640625 86 477.655273438 -16 292.655273438 -16 c 0
EndSplineSet
Validated: 33
EndChar

StartChar: Ccedilla
Encoding: 199 199 17
Width: 734
GlyphClass: 2
Flags: HMW
HStem: -232 73<354 384.5 354 408> -84 53<352 403> -84 196<352 379> -13 21G<331 331> 598 128<321.5 422>
VStem: 42 157<279 428 279 467> 418 81<-134.5 -111.5>
AnchorPoint: "Anchor-3" 458.64 710 basechar 0
AnchorPoint: "Anchor-0" 335.447 0 basechar 0
LayerCount: 2
Fore
SplineSet
288.5390625 -232 m 0xce
 221.5390625 -232 183.534179688 -198 174.174804688 -149 c 1
 245.111328125 -121 l 1
 251.52734375 -147 266.411132812 -159 298.411132812 -159 c 0
 327.411132812 -159 348.703125 -146 352.758789062 -123 c 0
 356.814453125 -100 347.635742188 -84 293.635742188 -84 c 1xae
 260.512695312 -45 l 1
 285.155273438 -13 l 1x9e
 117.504882812 6 23.1328125 140 60.8671875 354 c 0
 100.716796875 580 257.4609375 726 462.4609375 726 c 0
 648.4609375 726 731.709960938 631 731.91015625 462 c 1
 572.852539062 456 l 1
 572.545898438 545 527.890625 598 439.890625 598 c 0
 326.890625 598 243.963867188 502 217.8671875 354 c 0
 191.41796875 204 244.196289062 112 353.196289062 112 c 0xae
 448.196289062 112 510.24609375 169 541.173828125 265 c 1
 699.116210938 259 l 1
 643.727539062 98 531.270507812 -1 367.978515625 -14 c 1
 353.981445312 -31 l 1
 419.922851562 -37 442.045898438 -76 433.23046875 -126 c 0
 420.534179688 -198 358.5390625 -232 288.5390625 -232 c 0xce
EndSplineSet
Validated: 33
EndChar

StartChar: Ccircumflex
Encoding: 264 264 18
Width: 734
GlyphClass: 2
Flags: HMW
HStem: -16 128<322.5 424.5 322.5 467.5> 598 128<321.5 422> 765 153<209 449 305 314 440 440 440 449 305 545>
VStem: 42 157<279 428 279 467>
AnchorPoint: "Anchor-3" 422.669 710 basechar 0
AnchorPoint: "Anchor-0" 299.477 0 basechar 0
LayerCount: 2
Fore
SplineSet
264.366210938 765 m 1
 387.344726562 918 l 1
 531.344726562 918 l 1
 600.366210938 765 l 1
 495.366210938 765 l 1
 448.059570312 854 l 1
 369.366210938 765 l 1
 264.366210938 765 l 1
292.655273438 -16 m 0
 98.6552734375 -16 -16.01171875 122 24.896484375 354 c 0
 64.74609375 580 221.490234375 726 426.490234375 726 c 0
 612.490234375 726 695.739257812 631 695.939453125 462 c 1
 536.881835938 456 l 1
 536.575195312 545 491.919921875 598 403.919921875 598 c 0
 290.919921875 598 207.993164062 502 181.896484375 354 c 0
 155.447265625 204 208.225585938 112 317.225585938 112 c 0
 412.225585938 112 474.275390625 169 505.203125 265 c 1
 663.145507812 259 l 1
 603.640625 86 477.655273438 -16 292.655273438 -16 c 0
EndSplineSet
Validated: 33
EndChar

StartChar: Cdotaccent
Encoding: 266 266 19
Width: 734
GlyphClass: 2
Flags: HMW
HStem: -16 128<322.5 424.5 322.5 467.5> 598 128<321.5 422> 776 120<299 455 299 455>
VStem: 42 157<279 428 279 467> 299 156<776 896 776 896>
AnchorPoint: "Anchor-3" 424.608 710 basechar 0
AnchorPoint: "Anchor-0" 301.416 0 basechar 0
LayerCount: 2
Fore
SplineSet
358.24609375 776 m 1
 379.405273438 896 l 1
 535.405273438 896 l 1
 514.24609375 776 l 1
 358.24609375 776 l 1
294.594726562 -16 m 0
 100.594726562 -16 -14.072265625 122 26.8359375 354 c 0
 66.685546875 580 223.4296875 726 428.4296875 726 c 0
 614.4296875 726 697.678710938 631 697.87890625 462 c 1
 538.821289062 456 l 1
 538.514648438 545 493.859375 598 405.859375 598 c 0
 292.859375 598 209.932617188 502 183.8359375 354 c 0
 157.38671875 204 210.165039062 112 319.165039062 112 c 0
 414.165039062 112 476.215820312 169 507.142578125 265 c 1
 665.084960938 259 l 1
 605.580078125 86 479.594726562 -16 294.594726562 -16 c 0
EndSplineSet
Validated: 33
Substitution2: "'ss08' Style Set 8 in Latin lookup 41 subtable" Cdotaccent.ss08
Substitution2: "'aalt' Access All Alternates in Latin lookup 0 subtable" Cdotaccent.ss08
EndChar

StartChar: D
Encoding: 68 68 20
Width: 720
GlyphClass: 2
Flags: HMW
HStem: 0 128<226 319 319 325> 582 128<226 319 226 226>
VStem: 74 152<128 128 128 582> 521 157<278 432>
AnchorPoint: "Anchor-3" 387.596 710 basechar 0
AnchorPoint: "Anchor-1" 210 355 basechar 0
AnchorPoint: "Anchor-0" 263.404 0 basechar 0
LayerCount: 2
Fore
SplineSet
11.404296875 0 m 1
 136.595703125 710 l 1
 381.595703125 710 l 2
 611.595703125 710 718.026367188 582 677.823242188 354 c 0
 637.797851562 127 488.404296875 0 262.404296875 0 c 2
 11.404296875 0 l 1
185.973632812 128 m 1
 278.973632812 128 l 2
 415.973632812 128 493.845703125 201 521 355 c 0
 548.154296875 509 496.026367188 582 359.026367188 582 c 2
 266.026367188 582 l 1
 185.973632812 128 l 1
EndSplineSet
Validated: 33
EndChar

StartChar: Dcaron
Encoding: 270 270 21
Width: 720
GlyphClass: 2
Flags: HMW
HStem: 0 128<226 319 319 325> 582 128<226 319 226 226> 765 153<253 262 389 398 253 253>
VStem: 74 152<128 128 128 582> 521 157<278 432>
AnchorPoint: "Anchor-3" 369.258 710 basechar 0
AnchorPoint: "Anchor-1" 191.662 355 basechar 0
AnchorPoint: "Anchor-0" 245.065 0 basechar 0
LayerCount: 2
Fore
SplineSet
237.934570312 918 m 1
 342.934570312 918 l 1
 390.241210938 829 l 1
 469.934570312 918 l 1
 574.934570312 918 l 1
 451.956054688 765 l 1
 306.956054688 765 l 1
 237.934570312 918 l 1
-6.9345703125 0 m 1
 118.2578125 710 l 1
 363.2578125 710 l 2
 593.2578125 710 699.688476562 582 659.485351562 354 c 0
 619.458984375 127 470.065429688 0 244.065429688 0 c 2
 -6.9345703125 0 l 1
167.635742188 128 m 1
 260.635742188 128 l 2
 397.635742188 128 475.5078125 201 502.662109375 355 c 0
 529.81640625 509 477.688476562 582 340.688476562 582 c 2
 247.688476562 582 l 1
 167.635742188 128 l 1
EndSplineSet
Validated: 33
EndChar

StartChar: Dcroat
Encoding: 272 272 22
Width: 720
GlyphClass: 2
Flags: HMW
HStem: 0 128<226 319 319 325> 297 116<9 74 9 74 226 411> 582 128<226 319 226 226>
VStem: 74 152<128 128 128 297 413 582> 521 157<278 432>
AnchorPoint: "Anchor-3" 387.596 710 basechar 0
AnchorPoint: "Anchor-1" 210 355 basechar 0
AnchorPoint: "Anchor-0" 263.404 0 basechar 0
LayerCount: 2
Fore
SplineSet
11.404296875 0 m 1
 63.7734375 297 l 1
 -1.2265625 297 l 1
 19.2265625 413 l 1
 84.2265625 413 l 1
 136.595703125 710 l 1
 381.595703125 710 l 2
 611.595703125 710 718.026367188 582 677.823242188 354 c 0
 637.797851562 127 488.404296875 0 262.404296875 0 c 2
 11.404296875 0 l 1
185.973632812 128 m 1
 278.973632812 128 l 2
 415.973632812 128 493.845703125 201 521 355 c 0
 548.154296875 509 496.026367188 582 359.026367188 582 c 2
 266.026367188 582 l 1
 236.2265625 413 l 1
 421.2265625 413 l 1
 400.7734375 297 l 1
 215.7734375 297 l 1
 185.973632812 128 l 1
EndSplineSet
Validated: 33
EndChar

StartChar: Eth
Encoding: 208 208 23
Width: 720
GlyphClass: 2
Flags: HMW
HStem: 0 128<226 319 319 325> 297 116<9 74 9 74 226 411> 582 128<226 319 226 226>
VStem: 74 152<128 128 128 297 413 582> 521 157<278 432>
AnchorPoint: "Anchor-3" 387.596 710 basechar 0
AnchorPoint: "Anchor-1" 210 355 basechar 0
AnchorPoint: "Anchor-0" 263.404 0 basechar 0
LayerCount: 2
Fore
SplineSet
11.404296875 0 m 1
 63.7734375 297 l 1
 -1.2265625 297 l 1
 19.2265625 413 l 1
 84.2265625 413 l 1
 136.595703125 710 l 1
 381.595703125 710 l 2
 611.595703125 710 718.026367188 582 677.823242188 354 c 0
 637.797851562 127 488.404296875 0 262.404296875 0 c 2
 11.404296875 0 l 1
185.973632812 128 m 1
 278.973632812 128 l 2
 415.973632812 128 493.845703125 201 521 355 c 0
 548.154296875 509 496.026367188 582 359.026367188 582 c 2
 266.026367188 582 l 1
 236.2265625 413 l 1
 421.2265625 413 l 1
 400.7734375 297 l 1
 215.7734375 297 l 1
 185.973632812 128 l 1
EndSplineSet
Validated: 33
EndChar

StartChar: E
Encoding: 69 69 24
Width: 622
GlyphClass: 2
Flags: HMW
HStem: 0 128<226 576 226 576> 293 126<226 556 226 556> 582 128<226 568 226 226>
VStem: 74 152<128 293 419 582>
AnchorPoint: "Anchor-3" 384.596 710 basechar 0
AnchorPoint: "Anchor-2" 513.404 0 basechar 0
AnchorPoint: "Anchor-0" 260.404 0 basechar 0
LayerCount: 2
Fore
SplineSet
11.404296875 0 m 1
 136.595703125 710 l 1
 630.595703125 710 l 1
 608.026367188 582 l 1
 266.026367188 582 l 1
 237.28515625 419 l 1
 567.28515625 419 l 1
 545.067382812 293 l 1
 215.067382812 293 l 1
 185.973632812 128 l 1
 535.973632812 128 l 1
 513.404296875 0 l 1
 11.404296875 0 l 1
EndSplineSet
Validated: 1
EndChar

StartChar: Eacute
Encoding: 201 201 25
Width: 622
GlyphClass: 2
Flags: HMW
HStem: 0 128<226 576 226 576> 293 126<226 556 226 556> 582 128<226 568 226 226> 765 148<254 458 312 368>
VStem: 74 152<128 293 419 582>
AnchorPoint: "Anchor-3" 366.699 710 basechar 0
AnchorPoint: "Anchor-2" 495.507 0 basechar 0
AnchorPoint: "Anchor-0" 242.507 0 basechar 0
LayerCount: 2
Fore
SplineSet
308.396484375 765 m 1
 392.493164062 913 l 1
 538.493164062 913 l 1
 422.396484375 765 l 1
 308.396484375 765 l 1
-6.4931640625 0 m 1
 118.69921875 710 l 1
 612.69921875 710 l 1
 590.12890625 582 l 1
 248.12890625 582 l 1
 219.387695312 419 l 1
 549.387695312 419 l 1
 527.170898438 293 l 1
 197.170898438 293 l 1
 168.076171875 128 l 1
 518.076171875 128 l 1
 495.506835938 0 l 1
 -6.4931640625 0 l 1
EndSplineSet
Validated: 1
EndChar

StartChar: Ecaron
Encoding: 282 282 26
Width: 622
GlyphClass: 2
Flags: HMW
HStem: 0 128<226 576 226 576> 293 126<226 556 226 556> 582 128<226 568 226 226> 765 153<250 258 385 394 250 250>
VStem: 74 152<128 293 419 582>
AnchorPoint: "Anchor-3" 366.258 710 basechar 0
AnchorPoint: "Anchor-2" 495.065 0 basechar 0
AnchorPoint: "Anchor-0" 242.065 0 basechar 0
LayerCount: 2
Fore
SplineSet
234.934570312 918 m 1
 338.934570312 918 l 1
 387.241210938 829 l 1
 465.934570312 918 l 1
 570.934570312 918 l 1
 447.956054688 765 l 1
 303.956054688 765 l 1
 234.934570312 918 l 1
-6.9345703125 0 m 1
 118.2578125 710 l 1
 612.2578125 710 l 1
 589.688476562 582 l 1
 247.688476562 582 l 1
 218.947265625 419 l 1
 548.947265625 419 l 1
 526.729492188 293 l 1
 196.729492188 293 l 1
 167.635742188 128 l 1
 517.635742188 128 l 1
 495.065429688 0 l 1
 -6.9345703125 0 l 1
EndSplineSet
Validated: 1
EndChar

StartChar: Ecircumflex
Encoding: 202 202 27
Width: 622
GlyphClass: 2
Flags: HMW
HStem: 0 128<226 576 226 576> 293 126<226 556 226 556> 582 128<226 568 226 226> 765 153<154 394 250 258 385 385 385 394 250 490>
VStem: 74 152<128 293 419 582>
AnchorPoint: "Anchor-3" 366.258 710 basechar 0
AnchorPoint: "Anchor-2" 495.065 0 basechar 0
AnchorPoint: "Anchor-0" 242.065 0 basechar 0
LayerCount: 2
Fore
SplineSet
207.956054688 765 m 1
 330.934570312 918 l 1
 474.934570312 918 l 1
 543.956054688 765 l 1
 438.956054688 765 l 1
 391.649414062 854 l 1
 311.956054688 765 l 1
 207.956054688 765 l 1
-6.9345703125 0 m 1
 118.2578125 710 l 1
 612.2578125 710 l 1
 589.688476562 582 l 1
 247.688476562 582 l 1
 218.947265625 419 l 1
 548.947265625 419 l 1
 526.729492188 293 l 1
 196.729492188 293 l 1
 167.635742188 128 l 1
 517.635742188 128 l 1
 495.065429688 0 l 1
 -6.9345703125 0 l 1
EndSplineSet
Validated: 1
EndChar

StartChar: Edieresis
Encoding: 203 203 28
Width: 622
GlyphClass: 2
Flags: HMW
HStem: 0 128<226 576 226 576> 293 126<226 556 226 556> 582 128<226 568 226 226> 773 121<143 286 143 286 358 501 143 358>
VStem: 74 152<128 293 419 582> 143 143<773 894 773 894> 358 143<773 894 773 894>
AnchorPoint: "Anchor-3" 368.374 710 basechar 0
AnchorPoint: "Anchor-2" 497.182 0 basechar 0
AnchorPoint: "Anchor-0" 244.182 0 basechar 0
LayerCount: 2
Fore
SplineSet
200.482421875 773 m 1xf6
 221.818359375 894 l 1
 364.818359375 894 l 1
 343.482421875 773 l 1
 200.482421875 773 l 1xf6
415.482421875 773 m 1
 436.818359375 894 l 1
 579.818359375 894 l 1
 558.482421875 773 l 1
 415.482421875 773 l 1
-4.818359375 0 m 1xfa
 120.374023438 710 l 1
 614.374023438 710 l 1
 591.803710938 582 l 1
 249.803710938 582 l 1
 221.0625 419 l 1
 551.0625 419 l 1
 528.845703125 293 l 1
 198.845703125 293 l 1
 169.751953125 128 l 1
 519.751953125 128 l 1
 497.181640625 0 l 1
 -4.818359375 0 l 1xfa
EndSplineSet
Validated: 1
Substitution2: "'ss08' Style Set 8 in Latin lookup 41 subtable" Edieresis.ss08
Substitution2: "'aalt' Access All Alternates in Latin lookup 0 subtable" Edieresis.ss08
EndChar

StartChar: Edotaccent
Encoding: 278 278 29
Width: 622
GlyphClass: 2
Flags: HMW
HStem: 0 128<226 576 226 576> 293 126<226 556 226 556> 582 128<226 568 226 226> 776 120<244 399 244 399>
VStem: 74 152<128 293 419 582> 244 155<776 896 776 896>
AnchorPoint: "Anchor-3" 368.197 710 basechar 0
AnchorPoint: "Anchor-2" 497.006 0 basechar 0
AnchorPoint: "Anchor-0" 244.006 0 basechar 0
LayerCount: 2
Fore
SplineSet
301.834960938 776 m 1
 322.994140625 896 l 1
 477.994140625 896 l 1
 456.834960938 776 l 1
 301.834960938 776 l 1
-4.994140625 0 m 1xf8
 120.197265625 710 l 1
 614.197265625 710 l 1
 591.627929688 582 l 1
 249.627929688 582 l 1
 220.88671875 419 l 1
 550.88671875 419 l 1
 528.668945312 293 l 1
 198.668945312 293 l 1
 169.575195312 128 l 1
 519.575195312 128 l 1
 497.005859375 0 l 1
 -4.994140625 0 l 1xf8
EndSplineSet
Validated: 1
Substitution2: "'ss08' Style Set 8 in Latin lookup 41 subtable" Edotaccent.ss08
Substitution2: "'aalt' Access All Alternates in Latin lookup 0 subtable" Edotaccent.ss08
EndChar

StartChar: Egrave
Encoding: 200 200 30
Width: 622
GlyphClass: 2
Flags: HMW
HStem: 0 128<226 576 226 576> 293 126<226 556 226 556> 582 128<226 568 226 226> 772 147<274 274 274 330 184 388>
VStem: 74 152<128 293 419 582>
AnchorPoint: "Anchor-3" 366.17 710 basechar 0
AnchorPoint: "Anchor-2" 494.978 0 basechar 0
AnchorPoint: "Anchor-0" 241.978 0 basechar 0
LayerCount: 2
Fore
SplineSet
329.102539062 772 m 1
 265.022460938 919 l 1
 411.022460938 919 l 1
 443.102539062 772 l 1
 329.102539062 772 l 1
-7.0224609375 0 m 1
 118.169921875 710 l 1
 612.169921875 710 l 1
 589.599609375 582 l 1
 247.599609375 582 l 1
 218.858398438 419 l 1
 548.858398438 419 l 1
 526.641601562 293 l 1
 196.641601562 293 l 1
 167.547851562 128 l 1
 517.547851562 128 l 1
 494.977539062 0 l 1
 -7.0224609375 0 l 1
EndSplineSet
Validated: 1
EndChar

StartChar: Emacron
Encoding: 274 274 31
Width: 622
GlyphClass: 2
Flags: HMW
HStem: 0 128<226 576 226 576> 293 126<226 556 226 556> 582 128<226 568 226 226> 781 110<172 471 172 471>
VStem: 74 152<128 293 419 582> 172 299<781 891 781 891>
AnchorPoint: "Anchor-3" 368.639 710 basechar 0
AnchorPoint: "Anchor-2" 497.446 0 basechar 0
AnchorPoint: "Anchor-0" 244.446 0 basechar 0
LayerCount: 2
Fore
SplineSet
231.157226562 781 m 1xf4
 250.553710938 891 l 1
 549.553710938 891 l 1
 530.157226562 781 l 1
 231.157226562 781 l 1xf4
-4.5537109375 0 m 1xf8
 120.638671875 710 l 1
 614.638671875 710 l 1
 592.068359375 582 l 1
 250.068359375 582 l 1
 221.327148438 419 l 1
 551.327148438 419 l 1
 529.110351562 293 l 1
 199.110351562 293 l 1
 170.016601562 128 l 1
 520.016601562 128 l 1
 497.446289062 0 l 1
 -4.5537109375 0 l 1xf8
EndSplineSet
Validated: 1
EndChar

StartChar: Eogonek
Encoding: 280 280 32
Width: 622
GlyphClass: 2
Flags: HMW
HStem: -217 89<470.5 548.5> 0 128<226 458 226 576> 293 126<226 556 226 556> 582 128<226 568 226 226>
VStem: 74 152<128 293 419 582> 393 121<-159.5 -94.5> 393 183<-159.5 128>
AnchorPoint: "Anchor-3" 403.728 710 basechar 0
AnchorPoint: "Anchor-2" 532.535 0 basechar 0
AnchorPoint: "Anchor-0" 279.535 0 basechar 0
LayerCount: 2
Fore
SplineSet
30.53515625 0 m 1xfc
 155.727539062 710 l 1
 649.727539062 710 l 1
 627.157226562 582 l 1
 285.157226562 582 l 1
 256.416015625 419 l 1
 586.416015625 419 l 1
 564.19921875 293 l 1
 234.19921875 293 l 1
 205.10546875 128 l 1
 555.10546875 128 l 1
 532.53515625 0 l 1x7a
 495.482421875 -40 l 2
 470.897460938 -66 455.37109375 -86 452.374023438 -103 c 0
 449.552734375 -119 459.965820312 -128 473.965820312 -128 c 0
 490.965820312 -128 510.0234375 -122 521.2578125 -115 c 1
 535.857421875 -191 l 1
 515.211914062 -206 467.272460938 -217 424.272460938 -217 c 0
 353.272460938 -217 316.5625 -187 326.259765625 -132 c 0
 333.489257812 -91 365.366210938 -52 396.008789062 -20 c 2
 414.53515625 0 l 1
 30.53515625 0 l 1xfc
EndSplineSet
Validated: 33
EndChar

StartChar: uni1EBC
Encoding: 7868 7868 33
Width: 622
GlyphClass: 2
Flags: HMW
HStem: 0 128<226 576 226 576> 293 126<226 556 226 556> 582 128<226 568 226 226> 769 142<150 277 150 277> 774 89<374.5 391 374.5 414> 774 144<362.5 493> 822 89<253.5 270>
VStem: 74 152<128 293 419 582> 150 75<769 769> 418 75<918 918>
AnchorPoint: "Anchor-3" 366.258 710 basechar 0
AnchorPoint: "Anchor-2" 495.065 0 basechar 0
AnchorPoint: "Anchor-0" 242.065 0 basechar 0
LayerCount: 2
Fore
SplineSet
433.54296875 774 m 0xe540
 402.54296875 774 383.954101562 782 362.833007812 804 c 0
 349.94921875 816 341.006835938 822 327.006835938 822 c 0xe280
 308.006835938 822 289.890625 810 279.661132812 769 c 1
 204.661132812 769 l 1
 221.001953125 856 271.700195312 911 340.700195312 911 c 0xf080
 372.700195312 911 394.11328125 902 416.41015625 881 c 0
 430.293945312 869 439.236328125 863 452.236328125 863 c 0xe940
 472.236328125 863 488.3515625 875 498.934570312 918 c 1
 573.934570312 918 l 1
 556.416992188 830 505.54296875 774 433.54296875 774 c 0xe540
-6.9345703125 0 m 1xe1
 118.2578125 710 l 1
 612.2578125 710 l 1
 589.688476562 582 l 1
 247.688476562 582 l 1
 218.947265625 419 l 1
 548.947265625 419 l 1
 526.729492188 293 l 1
 196.729492188 293 l 1
 167.635742188 128 l 1
 517.635742188 128 l 1
 495.065429688 0 l 1
 -6.9345703125 0 l 1xe1
EndSplineSet
Validated: 1
EndChar

StartChar: uni018F
Encoding: 399 399 34
Width: 757
GlyphClass: 1
Flags: HMW
HStem: -16 128<328.5 423.5 328.5 466> 285 119<205 556 205 205> 598 128<339.5 421>
VStem: 42 673<348 404 404 404>
LayerCount: 2
Fore
SplineSet
715 355 m 0
 671.9765625 111 494.583007812 -16 306.583007812 -16 c 0
 131.583007812 -16 -1.7294921875 107 40.765625 348 c 2
 50.6396484375 404 l 1
 565.639648438 404 l 1
 573.504882812 528 513.84765625 598 413.84765625 598 c 0
 350.84765625 598 287.323242188 561 246.157226562 492 c 1
 87.744140625 501 l 1
 156.077148438 639 283.416992188 726 437.416992188 726 c 0
 638.416992188 726 756.7890625 592 715 355 c 0
331.15234375 112 m 0
 430.15234375 112 507.555664062 171 543.657226562 285 c 1
 192.657226562 285 l 1
 189.498046875 165 240.15234375 112 331.15234375 112 c 0
EndSplineSet
Validated: 33
EndChar

StartChar: F
Encoding: 70 70 35
Width: 604
GlyphClass: 1
Flags: HMW
HStem: 0 21G<74 74 74 226> 284 126<226 546 226 546> 582 128<226 564 226 226>
VStem: 74 152<0 284 410 582>
LayerCount: 2
Fore
SplineSet
11.404296875 0 m 1
 136.595703125 710 l 1
 626.595703125 710 l 1
 604.026367188 582 l 1
 266.026367188 582 l 1
 235.698242188 410 l 1
 555.698242188 410 l 1
 533.48046875 284 l 1
 213.48046875 284 l 1
 163.404296875 0 l 1
 11.404296875 0 l 1
EndSplineSet
Validated: 1
EndChar

StartChar: G
Encoding: 71 71 36
Width: 738
GlyphClass: 2
Flags: HMW
HStem: -16 128<319 420> 0 21G<597 691 597 597> 258 111<380 542 380 691> 598 128<319 426.5>
VStem: 42 157<283 423.5 283 461> 594.5 96.5
AnchorPoint: "Anchor-3" 442.596 710 basechar 0
AnchorPoint: "Anchor-0" 320.404 0 basechar 0
LayerCount: 2
Fore
SplineSet
304.583007812 -16 m 0xbc
 99.5830078125 -16 3.2080078125 135 41.8232421875 354 c 0
 79.5576171875 568 232.416992188 726 444.416992188 726 c 0
 628.416992188 726 706.137695312 628 710.51171875 477 c 1
 552.27734375 470 l 1
 551.20703125 549 515.84765625 598 422.84765625 598 c 0
 300.84765625 598 223.333007812 493 198.823242188 354 c 0
 173.78515625 212 212.15234375 112 340.15234375 112 c 0xbc
 434.15234375 112 502.908203125 173 524.896484375 258 c 1
 362.896484375 258 l 1
 382.46875 369 l 1
 693.46875 369 l 1
 628.404296875 0 l 1
 534.404296875 0 l 1x7c
 547.212890625 101 l 1
 497.693359375 30 404.583007812 -16 304.583007812 -16 c 0xbc
EndSplineSet
Validated: 33
Substitution2: "'ss06' Style Set 6 in Latin lookup 39 subtable" G.ss06
Substitution2: "'aalt' Access All Alternates in Latin lookup 0 subtable" G.ss06
EndChar

StartChar: Gbreve
Encoding: 286 286 37
Width: 738
GlyphClass: 2
Flags: HMW
HStem: -16 128<319 420> 0 21G<597 691 597 597> 258 111<380 542 380 691> 598 128<319 426.5> 766 82<360 400 360 426.5> 766 147<223 426.5>
VStem: 42 157<283 423.5 283 461> 594.5 96.5
AnchorPoint: "Anchor-3" 426.109 710 basechar 0
AnchorPoint: "Anchor-0" 303.917 0 basechar 0
LayerCount: 2
Fore
SplineSet
435.983398438 766 m 0xb7
 342.983398438 766 292.329101562 819 304.904296875 913 c 1xb7
 391.904296875 913 l 1
 388.79296875 867 410.442382812 848 450.442382812 848 c 0xbb
 490.442382812 848 518.79296875 867 531.904296875 913 c 1
 618.904296875 913 l 1
 598.329101562 819 528.983398438 766 435.983398438 766 c 0xb7
288.095703125 -16 m 0
 83.095703125 -16 -13.2783203125 135 25.3369140625 354 c 0
 63.0712890625 568 215.930664062 726 427.930664062 726 c 0
 611.930664062 726 689.650390625 628 694.025390625 477 c 1
 535.791015625 470 l 1
 534.720703125 549 499.361328125 598 406.361328125 598 c 0
 284.361328125 598 206.846679688 493 182.336914062 354 c 0
 157.298828125 212 195.666015625 112 323.666015625 112 c 0xbb
 417.666015625 112 486.421875 173 508.41015625 258 c 1
 346.41015625 258 l 1
 365.982421875 369 l 1
 676.982421875 369 l 1
 611.916992188 0 l 1
 517.916992188 0 l 1x7b
 530.7265625 101 l 1
 481.20703125 30 388.095703125 -16 288.095703125 -16 c 0
EndSplineSet
Validated: 33
Substitution2: "'ss06' Style Set 6 in Latin lookup 39 subtable" Gbreve.ss06
Substitution2: "'aalt' Access All Alternates in Latin lookup 0 subtable" Gbreve.ss06
EndChar

StartChar: Gcaron
Encoding: 486 486 38
Width: 738
GlyphClass: 2
Flags: HMW
HStem: -16 128<319 420> 0 21G<597 691 597 597> 258 111<380 542 380 691> 598 128<319 426.5> 765 153<308 317 444 452 308 308>
VStem: 42 157<283 423.5 283 461> 594.5 96.5
AnchorPoint: "Anchor-3" 425.669 710 basechar 0
AnchorPoint: "Anchor-0" 303.477 0 basechar 0
LayerCount: 2
Fore
SplineSet
294.344726562 918 m 1xbe
 399.344726562 918 l 1
 446.651367188 829 l 1
 526.344726562 918 l 1
 630.344726562 918 l 1
 507.366210938 765 l 1
 363.366210938 765 l 1
 294.344726562 918 l 1xbe
287.655273438 -16 m 0
 82.6552734375 -16 -13.7197265625 135 24.896484375 354 c 0
 62.6298828125 568 215.490234375 726 427.490234375 726 c 0
 611.490234375 726 689.209960938 628 693.584960938 477 c 1
 535.350585938 470 l 1
 534.280273438 549 498.919921875 598 405.919921875 598 c 0
 283.919921875 598 206.405273438 493 181.896484375 354 c 0
 156.857421875 212 195.225585938 112 323.225585938 112 c 0xbe
 417.225585938 112 485.981445312 173 507.96875 258 c 1
 345.96875 258 l 1
 365.541015625 369 l 1
 676.541015625 369 l 1
 611.4765625 0 l 1
 517.4765625 0 l 1x7e
 530.28515625 101 l 1
 480.766601562 30 387.655273438 -16 287.655273438 -16 c 0
EndSplineSet
Validated: 33
EndChar

StartChar: Gcircumflex
Encoding: 284 284 39
Width: 738
GlyphClass: 2
Flags: HMW
HStem: -16 128<319 420> 0 21G<597 691 597 597> 258 111<380 542 380 691> 598 128<319 426.5> 765 153<212 452 308 317 444 444 444 452 308 548>
VStem: 42 157<283 423.5 283 461> 594.5 96.5
AnchorPoint: "Anchor-3" 425.669 710 basechar 0
AnchorPoint: "Anchor-0" 303.477 0 basechar 0
LayerCount: 2
Fore
SplineSet
267.366210938 765 m 1xbe
 390.344726562 918 l 1
 534.344726562 918 l 1
 603.366210938 765 l 1
 499.366210938 765 l 1
 451.059570312 854 l 1
 372.366210938 765 l 1
 267.366210938 765 l 1xbe
287.655273438 -16 m 0
 82.6552734375 -16 -13.7197265625 135 24.896484375 354 c 0
 62.6298828125 568 215.490234375 726 427.490234375 726 c 0
 611.490234375 726 689.209960938 628 693.584960938 477 c 1
 535.350585938 470 l 1
 534.280273438 549 498.919921875 598 405.919921875 598 c 0
 283.919921875 598 206.405273438 493 181.896484375 354 c 0
 156.857421875 212 195.225585938 112 323.225585938 112 c 0xbe
 417.225585938 112 485.981445312 173 507.96875 258 c 1
 345.96875 258 l 1
 365.541015625 369 l 1
 676.541015625 369 l 1
 611.4765625 0 l 1
 517.4765625 0 l 1x7e
 530.28515625 101 l 1
 480.766601562 30 387.655273438 -16 287.655273438 -16 c 0
EndSplineSet
Validated: 33
Substitution2: "'ss06' Style Set 6 in Latin lookup 39 subtable" Gcircumflex.ss06
Substitution2: "'aalt' Access All Alternates in Latin lookup 0 subtable" Gcircumflex.ss06
EndChar

StartChar: uni0122
Encoding: 290 290 40
Width: 738
GlyphClass: 2
Flags: HMW
HStem: -165 116<318 353 318 448> -16 128<319 420> 0 21G<597 691 597 597> 258 111<380 542 380 691> 598 128<319 426.5>
VStem: 42 157<283 423.5 283 461> 318 130<-154 -49 -154 -49 -154 -49> 594.5 96.5
AnchorPoint: "Anchor-3" 463.491 710 basechar 0
AnchorPoint: "Anchor-0" 296.688 -253 basechar 0
LayerCount: 2
Fore
SplineSet
325.477539062 -16 m 0xdf
 120.477539062 -16 24.1025390625 135 62.71875 354 c 0
 100.452148438 568 253.3125 726 465.3125 726 c 0
 649.3125 726 727.032226562 628 731.40625 477 c 1
 573.171875 470 l 1
 572.102539062 549 536.7421875 598 443.7421875 598 c 0
 321.7421875 598 244.227539062 493 219.71875 354 c 0
 194.6796875 212 233.046875 112 361.046875 112 c 0xdf
 455.046875 112 523.803710938 173 545.791015625 258 c 1
 383.791015625 258 l 1
 403.36328125 369 l 1
 714.36328125 369 l 1
 649.298828125 0 l 1
 555.298828125 0 l 1xbf
 568.107421875 101 l 1
 518.588867188 30 425.477539062 -16 325.477539062 -16 c 0xdf
214.6875 -253 m 1
 282.205078125 -165 l 1
 247.205078125 -165 l 1
 267.658203125 -49 l 1
 397.658203125 -49 l 1
 379.14453125 -154 l 1
 302.6875 -253 l 1
 214.6875 -253 l 1
EndSplineSet
Validated: 33
Substitution2: "'ss06' Style Set 6 in Latin lookup 39 subtable" uni0122.ss06
Substitution2: "'aalt' Access All Alternates in Latin lookup 0 subtable" uni0122.ss06
EndChar

StartChar: Gdotaccent
Encoding: 288 288 41
Width: 738
GlyphClass: 2
Flags: HMW
HStem: -16 128<319 420> 0 21G<597 691 597 597> 258 111<380 542 380 691> 598 128<319 426.5> 776 120<303 458 303 458>
VStem: 42 157<283 423.5 283 461> 303 155<776 896 776 896> 594.5 96.5
AnchorPoint: "Anchor-3" 427.608 710 basechar 0
AnchorPoint: "Anchor-0" 305.416 0 basechar 0
LayerCount: 2
Fore
SplineSet
362.24609375 776 m 1xbf
 383.405273438 896 l 1
 538.405273438 896 l 1
 517.24609375 776 l 1
 362.24609375 776 l 1xbf
289.594726562 -16 m 0
 84.5947265625 -16 -11.779296875 135 26.8359375 354 c 0
 64.5703125 568 217.4296875 726 429.4296875 726 c 0
 613.4296875 726 691.149414062 628 695.524414062 477 c 1
 537.290039062 470 l 1
 536.219726562 549 500.859375 598 407.859375 598 c 0
 285.859375 598 208.345703125 493 183.8359375 354 c 0
 158.797851562 212 197.165039062 112 325.165039062 112 c 0xbf
 419.165039062 112 487.920898438 173 509.908203125 258 c 1
 347.908203125 258 l 1
 367.48046875 369 l 1
 678.48046875 369 l 1
 613.416015625 0 l 1
 519.416015625 0 l 1x7f
 532.225585938 101 l 1
 482.706054688 30 389.594726562 -16 289.594726562 -16 c 0
EndSplineSet
Validated: 33
Substitution2: "'ss08' Style Set 8 in Latin lookup 41 subtable" Gdotaccent.ss08
Substitution2: "'ss06' Style Set 6 in Latin lookup 39 subtable" Gdotaccent.ss06
AlternateSubs2: "'aalt' Access All Alternates in Latin lookup 1 subtable" Gdotaccent.ss06 Gdotaccent.ss08
EndChar

StartChar: uni1E20
Encoding: 7712 7712 42
Width: 738
GlyphClass: 2
Flags: HMW
HStem: -16 128<319 420> 0 21G<597 691 597 597> 258 111<380 542 380 691> 598 128<319 426.5> 781 110<231 530 231 530>
VStem: 42 157<283 423.5 283 461> 231 299<781 891 781 891> 594.5 96.5
AnchorPoint: "Anchor-3" 428.049 710 basechar 0
AnchorPoint: "Anchor-0" 305.857 0 basechar 0
LayerCount: 2
Fore
SplineSet
291.568359375 781 m 1xbf
 310.963867188 891 l 1
 609.963867188 891 l 1
 590.568359375 781 l 1
 291.568359375 781 l 1xbf
290.036132812 -16 m 0
 85.0361328125 -16 -11.3388671875 135 27.2763671875 354 c 0
 65.0107421875 568 217.870117188 726 429.870117188 726 c 0
 613.870117188 726 691.58984375 628 695.96484375 477 c 1
 537.73046875 470 l 1
 536.66015625 549 501.30078125 598 408.30078125 598 c 0
 286.30078125 598 208.786132812 493 184.276367188 354 c 0
 159.23828125 212 197.60546875 112 325.60546875 112 c 0xbd
 419.60546875 112 488.361328125 173 510.349609375 258 c 1
 348.349609375 258 l 1
 367.921875 369 l 1
 678.921875 369 l 1
 613.857421875 0 l 1
 519.857421875 0 l 1x7d
 532.666015625 101 l 1
 483.146484375 30 390.036132812 -16 290.036132812 -16 c 0
EndSplineSet
Validated: 33
Substitution2: "'ss06' Style Set 6 in Latin lookup 39 subtable" uni1E20.ss06
Substitution2: "'aalt' Access All Alternates in Latin lookup 0 subtable" uni1E20.ss06
EndChar

StartChar: uni01E4
Encoding: 484 484 43
Width: 779
GlyphClass: 2
Flags: HMW
HStem: -16 128<317.5 408.5 317.5 450.5> 169 72<380 511 380 538 685 742> 285 84<380 542 380 691> 598 128<318.5 429>
VStem: 42 157<283 423.5 283 459.5> 542 149<277 327>
AnchorPoint: "Anchor-3" 446.596 710 basechar 0
AnchorPoint: "Anchor-0" 321.404 0 basechar 0
LayerCount: 2
Fore
SplineSet
315.583007812 -16 m 0
 90.5830078125 -16 4.619140625 143 41.8232421875 354 c 0
 79.0283203125 565 230.416992188 726 450.416992188 726 c 0
 622.416992188 726 709.666015625 631 710.51171875 477 c 1
 552.27734375 470 l 1
 552.03125 548 518.84765625 598 424.84765625 598 c 0
 297.84765625 598 223.333007812 493 198.823242188 354 c 0
 173.78515625 212 214.15234375 112 335.15234375 112 c 0
 396.15234375 112 444.502929688 131 478.203125 169 c 1
 347.203125 169 l 1
 359.8984375 241 l 1
 517.8984375 241 l 1
 522.3671875 255 526.8359375 269 529.657226562 285 c 1
 367.657226562 285 l 1
 382.46875 369 l 1
 693.46875 369 l 1
 686.0625 327 l 2
 680.596679688 296 673.659179688 268 664.8984375 241 c 1
 721.8984375 241 l 1
 709.203125 169 l 1
 634.203125 169 l 1
 567.514648438 46 454.583007812 -16 315.583007812 -16 c 0
EndSplineSet
Validated: 33
EndChar

StartChar: H
Encoding: 72 72 44
Width: 721
GlyphClass: 2
Flags: HMW
HStem: 0 21G<74 74 74 226 495 495 495 647> 293 128<226 495 226 495> 690 20G<74 226 226 226 495 647 647 647>
VStem: 74 152<0 293 421 710> 495 152<0 293 293 293 421 710 0 710>
AnchorPoint: "Anchor-3" 423.596 710 basechar 0
AnchorPoint: "Anchor-1" 399.792 575 basechar 0
AnchorPoint: "Anchor-0" 298.404 0 basechar 0
LayerCount: 2
Fore
SplineSet
11.404296875 0 m 1
 136.595703125 710 l 1
 288.595703125 710 l 1
 237.637695312 421 l 1
 506.637695312 421 l 1
 557.595703125 710 l 1
 709.595703125 710 l 1
 584.404296875 0 l 1
 432.404296875 0 l 1
 484.067382812 293 l 1
 215.067382812 293 l 1
 163.404296875 0 l 1
 11.404296875 0 l 1
EndSplineSet
Validated: 1
EndChar

StartChar: Hbar
Encoding: 294 294 45
Width: 721
GlyphClass: 2
Flags: HMW
HStem: 0 21G<74 74 74 226 495 495 495 647> 293 128<226 495 226 495> 520 111<3 74 3 74 226 495 647 719> 520 190<3 226 3 226 74 226 74 495>
VStem: 74 152<0 293 421 520 631 710> 495 152<0 293 293 293 421 520 0 520 631 710>
AnchorPoint: "Anchor-3" 423.596 710 basechar 0
AnchorPoint: "Anchor-1" 399.792 575 basechar 0
AnchorPoint: "Anchor-0" 298.404 0 basechar 0
LayerCount: 2
Fore
SplineSet
11.404296875 0 m 1xdc
 103.09375 520 l 1
 32.09375 520 l 1xdc
 51.666015625 631 l 1
 122.666015625 631 l 1xec
 136.595703125 710 l 1
 288.595703125 710 l 1xdc
 274.666015625 631 l 1
 543.666015625 631 l 1xec
 557.595703125 710 l 1
 709.595703125 710 l 1xdc
 695.666015625 631 l 1
 767.666015625 631 l 1xec
 748.09375 520 l 1
 676.09375 520 l 1
 584.404296875 0 l 1
 432.404296875 0 l 1
 484.067382812 293 l 1
 215.067382812 293 l 1
 163.404296875 0 l 1
 11.404296875 0 l 1xdc
237.637695312 421 m 1
 506.637695312 421 l 1
 524.09375 520 l 1
 255.09375 520 l 1
 237.637695312 421 l 1
EndSplineSet
Validated: 1
EndChar

StartChar: Hcircumflex
Encoding: 292 292 46
Width: 721
GlyphClass: 2
Flags: HMW
HStem: 0 21G<74 74 74 226 495 495 495 647> 293 128<226 495 226 495> 690 20G<74 226 226 226 495 647 647 647> 765 153<192 433 288 297 424 424 424 433 288 529>
VStem: 74 152<0 293 421 710> 495 152<0 293 293 293 421 710 0 710>
AnchorPoint: "Anchor-3" 405.258 710 basechar 0
AnchorPoint: "Anchor-1" 381.454 575 basechar 0
AnchorPoint: "Anchor-0" 280.065 0 basechar 0
LayerCount: 2
Fore
SplineSet
245.956054688 765 m 1
 368.934570312 918 l 1
 513.934570312 918 l 1
 582.956054688 765 l 1
 477.956054688 765 l 1
 430.649414062 854 l 1
 350.956054688 765 l 1
 245.956054688 765 l 1
-6.9345703125 0 m 1
 118.2578125 710 l 1
 270.2578125 710 l 1
 219.299804688 421 l 1
 488.299804688 421 l 1
 539.2578125 710 l 1
 691.2578125 710 l 1
 566.065429688 0 l 1
 414.065429688 0 l 1
 465.729492188 293 l 1
 196.729492188 293 l 1
 145.065429688 0 l 1
 -6.9345703125 0 l 1
EndSplineSet
Validated: 1
EndChar

StartChar: I
Encoding: 73 73 47
Width: 300
GlyphClass: 2
Flags: HMW
HStem: 0 21G<74 74 74 226> 690 20G<74 226 226 226>
VStem: 74 152<0 710 0 710>
AnchorPoint: "Anchor-3" 212.596 710 basechar 0
AnchorPoint: "Anchor-2" 163.404 0 basechar 0
AnchorPoint: "Anchor-0" 87.4043 0 basechar 0
LayerCount: 2
Fore
SplineSet
11.404296875 0 m 1
 136.595703125 710 l 1
 288.595703125 710 l 1
 163.404296875 0 l 1
 11.404296875 0 l 1
EndSplineSet
Validated: 1
Substitution2: "'ss05' Style Set 5 in Latin lookup 38 subtable" I.ss05
Substitution2: "'aalt' Access All Alternates in Latin lookup 0 subtable" I.ss05
EndChar

StartChar: IJ
Encoding: 306 306 48
Width: 913
GlyphClass: 2
Flags: HMW
HStem: -16 128<562 628.5 562 672.5> 0 21G<74 74 74 226> 690 20G<74 226 226 226 702 854 854 854>
VStem: 74 152<0 710 0 710> 335 153<253 260> 702 152<255 710>
AnchorPoint: "Anchor-3" 842.007 710 basechar 0
AnchorPoint: "Anchor-2" 164.814 0 basechar 0
AnchorPoint: "Anchor-0" 88.8145 0 basechar 0
LayerCount: 2
Fore
SplineSet
12.814453125 0 m 1x74
 138.006835938 710 l 1
 290.006835938 710 l 1
 164.814453125 0 l 1
 12.814453125 0 l 1x74
530.993164062 -16 m 0
 365.993164062 -16 292.91796875 97 318.424804688 253 c 1
 472.659179688 260 l 1
 455.850585938 159 487.563476562 112 553.563476562 112 c 0
 620.563476562 112 668.673828125 158 685.778320312 255 c 2
 766.006835938 710 l 1
 918.006835938 710 l 1
 837.778320312 255 l 2xbc
 808.68359375 90 685.993164062 -16 530.993164062 -16 c 0
EndSplineSet
Validated: 33
EndChar

StartChar: Iacute
Encoding: 205 205 49
Width: 300
GlyphClass: 2
Flags: HMW
HStem: 0 21G<74 74 74 226> 690 20G<74 226 226 226> 765 148<82 286 141 196>
VStem: 74 152<0 710 0 710>
AnchorPoint: "Anchor-3" 194.699 710 basechar 0
AnchorPoint: "Anchor-2" 145.507 0 basechar 0
AnchorPoint: "Anchor-0" 69.5068 0 basechar 0
LayerCount: 2
Fore
SplineSet
136.396484375 765 m 1
 221.493164062 913 l 1
 366.493164062 913 l 1
 250.396484375 765 l 1
 136.396484375 765 l 1
-6.4931640625 0 m 1
 118.69921875 710 l 1
 270.69921875 710 l 1
 145.506835938 0 l 1
 -6.4931640625 0 l 1
EndSplineSet
Validated: 1
Substitution2: "'ss05' Style Set 5 in Latin lookup 38 subtable" Iacute.ss05
Substitution2: "'aalt' Access All Alternates in Latin lookup 0 subtable" Iacute.ss05
EndChar

StartChar: Icircumflex
Encoding: 206 206 50
Width: 300
GlyphClass: 2
Flags: HMW
HStem: 0 21G<74 74 74 226> 690 20G<74 226 226 226> 765 153<-18 222 78 87 213 213 213 222 78 318>
VStem: 74 152<0 710 0 710>
AnchorPoint: "Anchor-3" 194.258 710 basechar 0
AnchorPoint: "Anchor-2" 145.065 0 basechar 0
AnchorPoint: "Anchor-0" 69.0654 0 basechar 0
LayerCount: 2
Fore
SplineSet
35.9560546875 765 m 1
 158.934570312 918 l 1
 302.934570312 918 l 1
 371.956054688 765 l 1
 266.956054688 765 l 1
 219.649414062 854 l 1
 140.956054688 765 l 1
 35.9560546875 765 l 1
-6.9345703125 0 m 1
 118.2578125 710 l 1
 270.2578125 710 l 1
 145.065429688 0 l 1
 -6.9345703125 0 l 1
EndSplineSet
Validated: 1
Substitution2: "'ss05' Style Set 5 in Latin lookup 38 subtable" Icircumflex.ss05
Substitution2: "'aalt' Access All Alternates in Latin lookup 0 subtable" Icircumflex.ss05
EndChar

StartChar: Idieresis
Encoding: 207 207 51
Width: 300
GlyphClass: 2
Flags: HMW
HStem: 0 21G<74 74 74 226> 690 20G<74 226 226 226> 773 121<-29 114 -29 114 186 329 -29 186>
VStem: -29 143<773 894 773 894> 74 40 74 152<0 710 0 710> 186 40 186 143<773 894 773 894>
AnchorPoint: "Anchor-3" 196.374 710 basechar 0
AnchorPoint: "Anchor-2" 147.182 0 basechar 0
AnchorPoint: "Anchor-0" 71.1816 0 basechar 0
LayerCount: 2
Fore
SplineSet
28.482421875 773 m 1xf0
 49.818359375 894 l 1xf2
 192.818359375 894 l 1
 171.482421875 773 l 1xe8
 28.482421875 773 l 1xf0
243.482421875 773 m 1
 264.818359375 894 l 1xe2
 407.818359375 894 l 1
 386.482421875 773 l 1xe1
 243.482421875 773 l 1
-4.818359375 0 m 1xe4
 120.374023438 710 l 1
 272.374023438 710 l 1
 147.181640625 0 l 1
 -4.818359375 0 l 1xe4
EndSplineSet
Validated: 1
Substitution2: "'ss08' Style Set 8 in Latin lookup 41 subtable" Idieresis.ss08
Substitution2: "'ss05' Style Set 5 in Latin lookup 38 subtable" Idieresis.ss05
AlternateSubs2: "'aalt' Access All Alternates in Latin lookup 1 subtable" Idieresis.ss05 Idieresis.ss08
EndChar

StartChar: Idotaccent
Encoding: 304 304 52
Width: 300
GlyphClass: 2
Flags: HMW
HStem: 0 21G<74 74 74 226> 690 20G<74 226 226 226> 776 120<72 228 72 228>
VStem: 72 154<0 896> 74 152<0 710 0 710> 74 154<0 896 710 896>
AnchorPoint: "Anchor-3" 196.197 710 basechar 0
AnchorPoint: "Anchor-2" 147.006 0 basechar 0
AnchorPoint: "Anchor-0" 71.0059 0 basechar 0
LayerCount: 2
Fore
SplineSet
129.834960938 776 m 1xf0
 150.994140625 896 l 1xf0
 306.994140625 896 l 1
 285.834960938 776 l 1xe4
 129.834960938 776 l 1xf0
-4.994140625 0 m 1xe8
 120.197265625 710 l 1
 272.197265625 710 l 1
 147.005859375 0 l 1
 -4.994140625 0 l 1xe8
EndSplineSet
Validated: 1
Substitution2: "'ss08' Style Set 8 in Latin lookup 41 subtable" Idotaccent.ss08
Substitution2: "'ss05' Style Set 5 in Latin lookup 38 subtable" Idotaccent.ss05
AlternateSubs2: "'aalt' Access All Alternates in Latin lookup 1 subtable" Idotaccent.ss05 Idotaccent.ss08
EndChar

StartChar: Igrave
Encoding: 204 204 53
Width: 300
GlyphClass: 2
Flags: HMW
HStem: 0 21G<74 74 74 226> 690 20G<74 226 226 226> 772 147<102 102 102 158 12 217>
VStem: 74 152<0 710 0 710>
AnchorPoint: "Anchor-3" 194.17 710 basechar 0
AnchorPoint: "Anchor-2" 144.978 0 basechar 0
AnchorPoint: "Anchor-0" 68.9775 0 basechar 0
LayerCount: 2
Fore
SplineSet
157.102539062 772 m 1
 93.0224609375 919 l 1
 239.022460938 919 l 1
 272.102539062 772 l 1
 157.102539062 772 l 1
-7.0224609375 0 m 1
 118.169921875 710 l 1
 270.169921875 710 l 1
 144.977539062 0 l 1
 -7.0224609375 0 l 1
EndSplineSet
Validated: 1
Substitution2: "'ss05' Style Set 5 in Latin lookup 38 subtable" Igrave.ss05
Substitution2: "'aalt' Access All Alternates in Latin lookup 0 subtable" Igrave.ss05
EndChar

StartChar: Imacron
Encoding: 298 298 54
Width: 300
GlyphClass: 2
Flags: HMW
HStem: 0 21G<74 74 74 226> 690 20G<74 226 226 226> 781 110<0 300 0 300>
VStem: 74 152<0 710 0 710>
AnchorPoint: "Anchor-3" 196.639 710 basechar 0
AnchorPoint: "Anchor-2" 147.446 0 basechar 0
AnchorPoint: "Anchor-0" 71.4463 0 basechar 0
LayerCount: 2
Fore
SplineSet
59.1572265625 781 m 1
 78.5537109375 891 l 1
 378.553710938 891 l 1
 359.157226562 781 l 1
 59.1572265625 781 l 1
-4.5537109375 0 m 1
 120.638671875 710 l 1
 272.638671875 710 l 1
 147.446289062 0 l 1
 -4.5537109375 0 l 1
EndSplineSet
Validated: 1
Substitution2: "'ss05' Style Set 5 in Latin lookup 38 subtable" Imacron.ss05
Substitution2: "'aalt' Access All Alternates in Latin lookup 0 subtable" Imacron.ss05
EndChar

StartChar: Iogonek
Encoding: 302 302 55
Width: 300
GlyphClass: 2
Flags: HMW
HStem: -217 89<120.5 198.5> 0 21G<74 74 74 108 226 226> 690 20G<74 226 226 226>
VStem: 43 121<-159.5 -94.5> 74 90 74 152<0 710 0 710>
AnchorPoint: "Anchor-3" 231.728 710 basechar 0
AnchorPoint: "Anchor-2" 182.535 0 basechar 0
AnchorPoint: "Anchor-0" 106.535 0 basechar 0
LayerCount: 2
Fore
SplineSet
30.53515625 0 m 1xe4
 155.727539062 710 l 1
 307.727539062 710 l 1
 182.53515625 0 l 1xe4
 145.482421875 -40 l 2
 120.897460938 -66 105.37109375 -86 102.374023438 -103 c 0xe8
 99.552734375 -119 109.965820312 -128 123.965820312 -128 c 0
 140.965820312 -128 160.0234375 -122 171.2578125 -115 c 1
 185.857421875 -191 l 1
 165.211914062 -206 117.272460938 -217 74.2724609375 -217 c 0
 3.2724609375 -217 -33.4375 -187 -23.740234375 -132 c 0xf0
 -16.5107421875 -91 15.3662109375 -52 46.0087890625 -20 c 2
 64.53515625 0 l 1
 30.53515625 0 l 1xe4
EndSplineSet
Validated: 33
Substitution2: "'ss05' Style Set 5 in Latin lookup 38 subtable" Iogonek.ss05
Substitution2: "'aalt' Access All Alternates in Latin lookup 0 subtable" Iogonek.ss05
EndChar

StartChar: Itilde
Encoding: 296 296 56
Width: 300
GlyphClass: 2
Flags: HMW
HStem: 0 21G<74 74 74 226> 690 20G<74 226 226 226> 769 142<-22 105 -22 105> 774 89<202.5 219 202.5 242.5> 774 144<190.5 321> 822 89<81.5 98>
VStem: -22 75<769 769> 74 152<0 710 0 710> 246 75<918 918>
AnchorPoint: "Anchor-3" 194.258 710 basechar 0
AnchorPoint: "Anchor-2" 145.065 0 basechar 0
AnchorPoint: "Anchor-0" 69.0654 0 basechar 0
LayerCount: 2
Fore
SplineSet
261.54296875 774 m 0xc880
 230.54296875 774 212.954101562 782 190.833007812 804 c 0
 177.94921875 816 169.006835938 822 155.006835938 822 c 0xc6
 136.006835938 822 117.890625 810 107.661132812 769 c 1
 32.6611328125 769 l 1
 49.001953125 856 99.7001953125 911 168.700195312 911 c 0xe2
 200.700195312 911 222.11328125 902 244.41015625 881 c 0
 258.293945312 869 267.236328125 863 280.236328125 863 c 0xd080
 300.236328125 863 316.3515625 875 326.934570312 918 c 1
 401.934570312 918 l 1
 384.416992188 830 334.54296875 774 261.54296875 774 c 0xc880
-6.9345703125 0 m 1xe1
 118.2578125 710 l 1
 270.2578125 710 l 1
 145.065429688 0 l 1
 -6.9345703125 0 l 1xe1
EndSplineSet
Validated: 1
Substitution2: "'ss05' Style Set 5 in Latin lookup 38 subtable" Itilde.ss05
Substitution2: "'aalt' Access All Alternates in Latin lookup 0 subtable" Itilde.ss05
EndChar

StartChar: J
Encoding: 74 74 57
Width: 627
GlyphClass: 2
Flags: HMW
HStem: -16 128<276 342.5 276 386.5> 690 20G<416 568 568 568>
VStem: 49 153<253 260> 416 152<255 710>
AnchorPoint: "Anchor-3" 556.007 710 basechar 0
LayerCount: 2
Fore
SplineSet
244.993164062 -16 m 0
 79.9931640625 -16 6.91796875 97 32.4248046875 253 c 1
 186.659179688 260 l 1
 169.850585938 159 201.563476562 112 267.563476562 112 c 0
 334.563476562 112 382.673828125 158 399.778320312 255 c 2
 480.006835938 710 l 1
 632.006835938 710 l 1
 551.778320312 255 l 2
 522.68359375 90 399.993164062 -16 244.993164062 -16 c 0
EndSplineSet
Validated: 33
Substitution2: "Single Substitution lookup 16 subtable" uni004A0301
Substitution2: "'aalt' Access All Alternates in Latin lookup 0 subtable" uni004A0301
EndChar

StartChar: uni004A0301
Encoding: 65537 -1 58
Width: 627
GlyphClass: 2
Flags: HMW
HStem: -16 128<276 342.5 276 386.5> 690 20G<416 568 568 568> 765 148<424 629 483 539>
VStem: 49 153<253 260> 416 152<255 710>
AnchorPoint: "Anchor-3" 538.109 710 basechar 0
LayerCount: 2
Fore
SplineSet
479.807617188 765 m 1
 564.904296875 913 l 1
 710.904296875 913 l 1
 594.807617188 765 l 1
 479.807617188 765 l 1
227.095703125 -16 m 0
 62.095703125 -16 -10.978515625 97 14.5283203125 253 c 1
 168.762695312 260 l 1
 151.953125 159 183.666015625 112 249.666015625 112 c 0
 316.666015625 112 364.77734375 158 381.880859375 255 c 2
 462.109375 710 l 1
 614.109375 710 l 1
 533.880859375 255 l 2
 504.787109375 90 382.095703125 -16 227.095703125 -16 c 0
EndSplineSet
Validated: 33
EndChar

StartChar: Jcircumflex
Encoding: 308 308 59
Width: 627
GlyphClass: 2
Flags: HMW
HStem: -16 128<276 342.5 276 386.5> 690 20G<416 568 568 568> 765 153<324 565 420 429 556 556 556 565 420 661>
VStem: 49 153<253 260> 416 152<255 710>
AnchorPoint: "Anchor-3" 537.669 710 basechar 0
LayerCount: 2
Fore
SplineSet
379.366210938 765 m 1
 502.344726562 918 l 1
 647.344726562 918 l 1
 716.366210938 765 l 1
 611.366210938 765 l 1
 563.059570312 854 l 1
 484.366210938 765 l 1
 379.366210938 765 l 1
226.655273438 -16 m 0
 61.6552734375 -16 -11.419921875 97 14.0869140625 253 c 1
 168.321289062 260 l 1
 151.512695312 159 183.225585938 112 249.225585938 112 c 0
 316.225585938 112 364.3359375 158 381.439453125 255 c 2
 461.668945312 710 l 1
 613.668945312 710 l 1
 533.439453125 255 l 2
 504.345703125 90 381.655273438 -16 226.655273438 -16 c 0
EndSplineSet
Validated: 33
EndChar

StartChar: K
Encoding: 75 75 60
Width: 689
GlyphClass: 2
Flags: HMW
HStem: 0 21G<74 74 74 226 504 504 504 677> 690 20G<74 226 226 226 484 661 661 661>
VStem: 74 152<0 209 400 710>
AnchorPoint: "Anchor-3" 408.596 710 basechar 0
AnchorPoint: "Anchor-0" 294.404 0 basechar 0
LayerCount: 2
Fore
SplineSet
11.404296875 0 m 1
 136.595703125 710 l 1
 288.595703125 710 l 1
 233.934570312 400 l 1
 546.595703125 710 l 1
 723.595703125 710 l 1
 407.405273438 397 l 1
 614.404296875 0 l 1
 441.404296875 0 l 1
 289.419921875 295 l 1
 200.255859375 209 l 1
 163.404296875 0 l 1
 11.404296875 0 l 1
EndSplineSet
Validated: 1
EndChar

StartChar: uni01E8
Encoding: 488 488 61
Width: 689
GlyphClass: 2
Flags: HMW
HStem: 0 21G<74 74 74 226 504 504 504 677> 690 20G<74 226 226 226 484 661 661 661> 765 153<274 283 409 418 274 274>
VStem: 74 152<0 209 400 710>
AnchorPoint: "Anchor-3" 390.258 710 basechar 0
AnchorPoint: "Anchor-0" 276.065 0 basechar 0
LayerCount: 2
Fore
SplineSet
258.934570312 918 m 1
 363.934570312 918 l 1
 411.241210938 829 l 1
 489.934570312 918 l 1
 594.934570312 918 l 1
 471.956054688 765 l 1
 327.956054688 765 l 1
 258.934570312 918 l 1
-6.9345703125 0 m 1
 118.2578125 710 l 1
 270.2578125 710 l 1
 215.596679688 400 l 1
 528.2578125 710 l 1
 705.2578125 710 l 1
 389.067382812 397 l 1
 596.065429688 0 l 1
 423.065429688 0 l 1
 271.08203125 295 l 1
 181.91796875 209 l 1
 145.065429688 0 l 1
 -6.9345703125 0 l 1
EndSplineSet
Validated: 1
EndChar

StartChar: uni0136
Encoding: 310 310 62
Width: 689
GlyphClass: 2
Flags: HMW
HStem: -165 116<292 327 292 422> 0 21G<74 74 74 226 504 504 504 677> 690 20G<74 226 226 226 484 661 661 661>
VStem: 74 152<0 209 400 710> 292 130<-154 -49 -154 -49 -154 -49>
AnchorPoint: "Anchor-3" 430.901 710 basechar 0
AnchorPoint: "Anchor-0" 272.099 -253 basechar 0
LayerCount: 2
Fore
SplineSet
33.708984375 0 m 1
 158.901367188 710 l 1
 310.901367188 710 l 1
 256.240234375 400 l 1
 568.901367188 710 l 1
 745.901367188 710 l 1
 429.7109375 397 l 1
 636.708984375 0 l 1
 463.708984375 0 l 1
 311.725585938 295 l 1
 222.561523438 209 l 1
 185.708984375 0 l 1
 33.708984375 0 l 1
190.098632812 -253 m 1
 257.615234375 -165 l 1
 222.615234375 -165 l 1
 243.069335938 -49 l 1
 373.069335938 -49 l 1
 354.5546875 -154 l 1
 278.098632812 -253 l 1
 190.098632812 -253 l 1
EndSplineSet
Validated: 1
EndChar

StartChar: L
Encoding: 76 76 63
Width: 589
GlyphClass: 2
Flags: HMW
HStem: 0 128<226 553 226 553> 690 20G<74 226 226 226>
VStem: 74 152<128 710 128 710 128 710>
AnchorPoint: "Anchor-4" 393.915 536 basechar 0
AnchorPoint: "Anchor-3" 212.596 710 basechar 0
AnchorPoint: "Anchor-1" 188.408 380 basechar 0
AnchorPoint: "Anchor-0" 251.404 0 basechar 0
LayerCount: 2
Fore
SplineSet
11.404296875 0 m 1
 136.595703125 710 l 1
 288.595703125 710 l 1
 185.973632812 128 l 1
 512.973632812 128 l 1
 490.404296875 0 l 1
 11.404296875 0 l 1
EndSplineSet
Validated: 1
EndChar

StartChar: Lacute
Encoding: 313 313 64
Width: 589
GlyphClass: 2
Flags: HMW
HStem: 0 128<226 553 226 553> 690 20G<74 226 226 226> 765 148<82 286 141 196>
VStem: 74 152<128 710 128 710 128 710>
AnchorPoint: "Anchor-4" 376.018 536 basechar 0
AnchorPoint: "Anchor-3" 194.699 710 basechar 0
AnchorPoint: "Anchor-1" 170.511 380 basechar 0
AnchorPoint: "Anchor-0" 233.507 0 basechar 0
LayerCount: 2
Fore
SplineSet
136.396484375 765 m 1
 221.493164062 913 l 1
 366.493164062 913 l 1
 250.396484375 765 l 1
 136.396484375 765 l 1
-6.4931640625 0 m 1
 118.69921875 710 l 1
 270.69921875 710 l 1
 168.076171875 128 l 1
 495.076171875 128 l 1
 472.506835938 0 l 1
 -6.4931640625 0 l 1
EndSplineSet
Validated: 1
EndChar

StartChar: Lcaron
Encoding: 317 317 65
Width: 589
GlyphClass: 2
Flags: HMW
HStem: 0 128<226 553 226 553> 424 286<74 382 411 486> 690 20G<74 226 226 226 411 540 540 540>
VStem: 74 152<128 710 128 710 128 710>
AnchorPoint: "Anchor-4" 393.915 536 basechar 0
AnchorPoint: "Anchor-3" 212.596 710 basechar 0
AnchorPoint: "Anchor-1" 188.408 380 basechar 0
AnchorPoint: "Anchor-0" 251.404 0 basechar 0
LayerCount: 2
Fore
SplineSet
11.404296875 0 m 1xb0
 136.595703125 710 l 1
 288.595703125 710 l 1
 185.973632812 128 l 1
 512.973632812 128 l 1
 490.404296875 0 l 1
 11.404296875 0 l 1xb0
394.166992188 424 m 1xd0
 473.595703125 710 l 1
 602.595703125 710 l 1
 498.166992188 424 l 1
 394.166992188 424 l 1xd0
EndSplineSet
Validated: 1
EndChar

StartChar: uni013B
Encoding: 315 315 66
Width: 589
GlyphClass: 2
Flags: HMW
HStem: -165 116<249 283 249 379> 0 128<226 553 226 553> 690 20G<74 226 226 226>
VStem: 74 152<128 710 128 710 128 710> 249 130<-154 -49 -154 -49 -154 -49>
AnchorPoint: "Anchor-4" 416.221 536 basechar 0
AnchorPoint: "Anchor-3" 234.901 710 basechar 0
AnchorPoint: "Anchor-1" 210.714 380 basechar 0
AnchorPoint: "Anchor-0" 229.099 -253 basechar 0
LayerCount: 2
Fore
SplineSet
33.708984375 0 m 1
 158.901367188 710 l 1
 310.901367188 710 l 1
 208.279296875 128 l 1
 535.279296875 128 l 1
 512.708984375 0 l 1
 33.708984375 0 l 1
146.098632812 -253 m 1
 213.615234375 -165 l 1
 179.615234375 -165 l 1
 200.069335938 -49 l 1
 330.069335938 -49 l 1
 311.5546875 -154 l 1xe8
 234.098632812 -253 l 1
 146.098632812 -253 l 1
EndSplineSet
Validated: 1
Substitution2: "'locl' Localized Forms in Latin lookup 11 subtable" uni013B.loclMAH
Substitution2: "'aalt' Access All Alternates in Latin lookup 0 subtable" uni013B.loclMAH
EndChar

StartChar: Lslash
Encoding: 321 321 67
Width: 589
GlyphClass: 2
Flags: HMW
HStem: 0 128<226 553 226 553> 690 20G<74 226 226 226>
VStem: 74 152<128 276 276 276 451 710>
AnchorPoint: "Anchor-4" 393.915 536 basechar 0
AnchorPoint: "Anchor-3" 212.596 710 basechar 0
AnchorPoint: "Anchor-1" 188.408 380 basechar 0
AnchorPoint: "Anchor-0" 251.404 0 basechar 0
LayerCount: 2
Fore
SplineSet
11.404296875 0 m 1
 60.0703125 276 l 1
 -14.9248046875 242 l 1
 3.236328125 345 l 1
 78.0556640625 378 l 1
 136.595703125 710 l 1
 288.595703125 710 l 1
 242.927734375 451 l 1
 390.565429688 517 l 1
 372.580078125 415 l 1
 224.942382812 349 l 1
 185.973632812 128 l 1
 512.973632812 128 l 1
 490.404296875 0 l 1
 11.404296875 0 l 1
EndSplineSet
Validated: 1
EndChar

StartChar: M
Encoding: 77 77 68
Width: 915
GlyphClass: 2
Flags: HMW
HStem: 0 21G<74 74 74 226 689 689 689 841> 690 20G<74 277 277 277 638 841 841 841>
VStem: 74 152<0 460 0 710> 689 152<0 460 460 460>
AnchorPoint: "Anchor-3" 520.596 710 basechar 0
AnchorPoint: "Anchor-0" 395.404 0 basechar 0
LayerCount: 2
Fore
SplineSet
11.404296875 0 m 1
 136.595703125 710 l 1
 339.595703125 710 l 1
 429.434570312 193 l 1
 700.595703125 710 l 1
 903.595703125 710 l 1
 778.404296875 0 l 1
 626.404296875 0 l 1
 707.514648438 460 l 1
 459.756835938 2 l 1
 329.756835938 2 l 1
 244.514648438 460 l 1
 163.404296875 0 l 1
 11.404296875 0 l 1
EndSplineSet
Validated: 1
EndChar

StartChar: N
Encoding: 78 78 69
Width: 750
GlyphClass: 2
Flags: HMW
HStem: 0 21G<74 74 74 226 506 506 506 676> 690 20G<74 242 242 242 524 676 676 676>
VStem: 74 152<0 473 0 710> 524 152<220 710 0 710>
AnchorPoint: "Anchor-3" 443.596 710 basechar 0
AnchorPoint: "Anchor-0" 310.404 0 basechar 0
LayerCount: 2
Fore
SplineSet
11.404296875 0 m 1
 136.595703125 710 l 1
 304.595703125 710 l 1
 500.196289062 220 l 1
 586.595703125 710 l 1
 738.595703125 710 l 1
 613.404296875 0 l 1
 443.404296875 0 l 1
 246.806640625 473 l 1
 163.404296875 0 l 1
 11.404296875 0 l 1
EndSplineSet
Validated: 1
EndChar

StartChar: Nacute
Encoding: 323 323 70
Width: 750
GlyphClass: 2
Flags: HMW
HStem: 0 21G<74 74 74 226 506 506 506 676> 690 20G<74 242 242 242 524 676 676 676> 765 148<313 517 372 427>
VStem: 74 152<0 473 0 710> 524 152<220 710 0 710>
AnchorPoint: "Anchor-3" 425.699 710 basechar 0
AnchorPoint: "Anchor-0" 292.507 0 basechar 0
LayerCount: 2
Fore
SplineSet
367.396484375 765 m 1
 452.493164062 913 l 1
 597.493164062 913 l 1
 481.396484375 765 l 1
 367.396484375 765 l 1
-6.4931640625 0 m 1
 118.69921875 710 l 1
 286.69921875 710 l 1
 482.298828125 220 l 1
 568.69921875 710 l 1
 720.69921875 710 l 1
 595.506835938 0 l 1
 425.506835938 0 l 1
 228.909179688 473 l 1
 145.506835938 0 l 1
 -6.4931640625 0 l 1
EndSplineSet
Validated: 1
EndChar

StartChar: Ncaron
Encoding: 327 327 71
Width: 750
GlyphClass: 2
Flags: HMW
HStem: 0 21G<74 74 74 226 506 506 506 676> 690 20G<74 242 242 242 524 676 676 676> 765 153<309 318 445 453 309 309>
VStem: 74 152<0 473 0 710> 524 152<220 710 0 710>
AnchorPoint: "Anchor-3" 425.258 710 basechar 0
AnchorPoint: "Anchor-0" 292.065 0 basechar 0
LayerCount: 2
Fore
SplineSet
293.934570312 918 m 1
 398.934570312 918 l 1
 446.241210938 829 l 1
 525.934570312 918 l 1
 629.934570312 918 l 1
 506.956054688 765 l 1
 362.956054688 765 l 1
 293.934570312 918 l 1
-6.9345703125 0 m 1
 118.2578125 710 l 1
 286.2578125 710 l 1
 481.857421875 220 l 1
 568.2578125 710 l 1
 720.2578125 710 l 1
 595.065429688 0 l 1
 425.065429688 0 l 1
 228.46875 473 l 1
 145.065429688 0 l 1
 -6.9345703125 0 l 1
EndSplineSet
Validated: 1
EndChar

StartChar: uni0145
Encoding: 325 325 72
Width: 750
GlyphClass: 2
Flags: HMW
HStem: -165 116<308 343 308 438> 0 21G<74 74 74 226 506 506 506 676> 690 20G<74 242 242 242 524 676 676 676>
VStem: 74 152<0 473 0 710> 308 130<-154 -49 -154 -49 -154 -49> 524 152<220 710 0 710>
AnchorPoint: "Anchor-3" 465.901 710 basechar 0
AnchorPoint: "Anchor-0" 288.099 -253 basechar 0
LayerCount: 2
Fore
SplineSet
33.708984375 0 m 1
 158.901367188 710 l 1
 326.901367188 710 l 1
 522.500976562 220 l 1
 608.901367188 710 l 1
 760.901367188 710 l 1
 635.708984375 0 l 1
 465.708984375 0 l 1
 269.112304688 473 l 1
 185.708984375 0 l 1
 33.708984375 0 l 1
206.098632812 -253 m 1
 273.615234375 -165 l 1
 238.615234375 -165 l 1
 259.069335938 -49 l 1
 389.069335938 -49 l 1
 370.5546875 -154 l 1
 294.098632812 -253 l 1
 206.098632812 -253 l 1
EndSplineSet
Validated: 1
Substitution2: "'locl' Localized Forms in Latin lookup 11 subtable" uni0145.loclMAH
Substitution2: "'aalt' Access All Alternates in Latin lookup 0 subtable" uni0145.loclMAH
EndChar

StartChar: Ntilde
Encoding: 209 209 73
Width: 750
GlyphClass: 2
Flags: HMW
HStem: 0 21G<74 74 74 226 506 506 506 676> 690 20G<74 242 242 242 524 676 676 676> 769 142<209 336 209 336> 774 89<434 450 434 473.5> 774 144<421.5 552> 822 89<312.5 329>
VStem: 74 152<0 473 0 710> 209 75<769 769> 477 75<918 918> 524 152<220 710 0 710>
AnchorPoint: "Anchor-3" 425.258 710 basechar 0
AnchorPoint: "Anchor-0" 292.065 0 basechar 0
LayerCount: 2
Fore
SplineSet
492.54296875 774 m 0xca80
 461.54296875 774 443.954101562 782 421.833007812 804 c 0
 408.94921875 816 400.006835938 822 386.006835938 822 c 0xc540
 367.006835938 822 348.890625 810 338.661132812 769 c 1
 263.661132812 769 l 1
 280.001953125 856 330.700195312 911 399.700195312 911 c 0xe140
 431.700195312 911 453.11328125 902 475.41015625 881 c 0
 490.293945312 869 499.236328125 863 511.236328125 863 c 0xd280
 531.236328125 863 547.3515625 875 557.934570312 918 c 1
 632.934570312 918 l 1
 615.416992188 830 565.54296875 774 492.54296875 774 c 0xca80
-6.9345703125 0 m 1xe240
 118.2578125 710 l 1
 286.2578125 710 l 1
 481.857421875 220 l 1
 568.2578125 710 l 1
 720.2578125 710 l 1
 595.065429688 0 l 1
 425.065429688 0 l 1
 228.46875 473 l 1
 145.065429688 0 l 1
 -6.9345703125 0 l 1xe240
EndSplineSet
Validated: 1
EndChar

StartChar: Eng
Encoding: 330 330 74
Width: 750
GlyphClass: 2
Flags: HMW
HStem: -162 104<385 479 479 497 385 515 385 479> 0 21G<74 74 74 226 506 506 506 532> 690 20G<74 242 242 242 524 676 676 676>
VStem: 74 152<0 473 0 710> 524 152<221 710> 532 144<-8 -6 -6 0 0 0>
AnchorPoint: "Anchor-3" 452.879 710 basechar 0
AnchorPoint: "Anchor-0" 301.237 -150 basechar 0
LayerCount: 2
Fore
SplineSet
25.6865234375 0 m 1xf4
 150.87890625 710 l 1
 318.87890625 710 l 1
 514.654296875 221 l 1
 600.87890625 710 l 1
 752.87890625 710 l 1
 626.62890625 -6 l 2xf8
 609.524414062 -103 544.12109375 -162 438.12109375 -162 c 2
 308.12109375 -162 l 1
 326.458984375 -58 l 1
 420.458984375 -58 l 2
 456.458984375 -58 475.927734375 -44 482.275390625 -8 c 2
 483.686523438 0 l 1
 457.686523438 0 l 1
 261.088867188 473 l 1
 177.686523438 0 l 1
 25.6865234375 0 l 1xf4
EndSplineSet
Validated: 1
EndChar

StartChar: O
Encoding: 79 79 75
Width: 776
GlyphClass: 2
Flags: HMW
HStem: -16 128<328.5 447 328.5 496> 598 128<328.5 447>
VStem: 42 157<277 431 277 468.5> 577 157<277 431>
AnchorPoint: "Anchor-3" 450.596 710 basechar 0
AnchorPoint: "Anchor-1" 388 355 basechar 0
AnchorPoint: "Anchor-0" 325.404 0 basechar 0
LayerCount: 2
Fore
SplineSet
322.583007812 -16 m 0
 106.583007812 -16 1.4443359375 125 41.8232421875 354 c 0
 82.2021484375 583 237.416992188 726 453.416992188 726 c 0
 669.416992188 726 774.202148438 583 733.823242188 354 c 0
 693.444335938 125 538.583007812 -16 322.583007812 -16 c 0
345.15234375 112 m 0
 463.15234375 112 549.668945312 200 576.823242188 354 c 0
 603.978515625 508 548.84765625 598 430.84765625 598 c 0
 311.84765625 598 225.978515625 508 198.823242188 354 c 0
 171.668945312 200 226.15234375 112 345.15234375 112 c 0
EndSplineSet
Validated: 33
Substitution2: "Single Substitution lookup 27 subtable" ordmasculine
Substitution2: "'aalt' Access All Alternates in Latin lookup 0 subtable" ordmasculine
EndChar

StartChar: Oacute
Encoding: 211 211 76
Width: 776
GlyphClass: 2
Flags: HMW
HStem: -16 128<328.5 447 328.5 496> 598 128<328.5 447> 765 148<319 524 378 434>
VStem: 42 157<277 431 277 468.5> 577 157<277 431>
AnchorPoint: "Anchor-3" 434.109 710 basechar 0
AnchorPoint: "Anchor-1" 371.514 355 basechar 0
AnchorPoint: "Anchor-0" 308.917 0 basechar 0
LayerCount: 2
Fore
SplineSet
374.807617188 765 m 1
 459.904296875 913 l 1
 605.904296875 913 l 1
 489.807617188 765 l 1
 374.807617188 765 l 1
306.095703125 -16 m 0
 90.095703125 -16 -15.0419921875 125 25.3369140625 354 c 0
 65.7158203125 583 220.930664062 726 436.930664062 726 c 0
 652.930664062 726 757.715820312 583 717.336914062 354 c 0
 676.958007812 125 522.095703125 -16 306.095703125 -16 c 0
328.666015625 112 m 0
 446.666015625 112 533.182617188 200 560.336914062 354 c 0
 587.491210938 508 532.361328125 598 414.361328125 598 c 0
 295.361328125 598 209.491210938 508 182.336914062 354 c 0
 155.182617188 200 209.666015625 112 328.666015625 112 c 0
EndSplineSet
Validated: 33
EndChar

StartChar: Ocircumflex
Encoding: 212 212 77
Width: 776
GlyphClass: 2
Flags: HMW
HStem: -16 128<328.5 447 328.5 496> 598 128<328.5 447> 765 153<219 460 315 324 451 451 451 460 315 556>
VStem: 42 157<277 431 277 468.5> 577 157<277 431>
AnchorPoint: "Anchor-3" 433.669 710 basechar 0
AnchorPoint: "Anchor-1" 371.072 355 basechar 0
AnchorPoint: "Anchor-0" 308.477 0 basechar 0
LayerCount: 2
Fore
SplineSet
274.366210938 765 m 1
 397.344726562 918 l 1
 542.344726562 918 l 1
 611.366210938 765 l 1
 506.366210938 765 l 1
 459.059570312 854 l 1
 379.366210938 765 l 1
 274.366210938 765 l 1
305.655273438 -16 m 0
 89.6552734375 -16 -15.482421875 125 24.896484375 354 c 0
 65.275390625 583 220.490234375 726 436.490234375 726 c 0
 652.490234375 726 757.275390625 583 716.896484375 354 c 0
 676.517578125 125 521.655273438 -16 305.655273438 -16 c 0
328.225585938 112 m 0
 446.225585938 112 532.7421875 200 559.896484375 354 c 0
 587.05078125 508 531.919921875 598 413.919921875 598 c 0
 294.919921875 598 209.05078125 508 181.896484375 354 c 0
 154.7421875 200 209.225585938 112 328.225585938 112 c 0
EndSplineSet
Validated: 33
EndChar

StartChar: Odieresis
Encoding: 214 214 78
Width: 776
GlyphClass: 2
Flags: HMW
HStem: -16 128<328.5 447 328.5 496> 598 128<328.5 447> 773 121<209 352 209 352 423 567 209 423>
VStem: 42 157<277 431 277 468.5> 209 143<773 894 773 894> 423 144<773 894 773 894> 577 157<277 431>
AnchorPoint: "Anchor-3" 435.784 710 basechar 0
AnchorPoint: "Anchor-1" 373.188 355 basechar 0
AnchorPoint: "Anchor-0" 310.593 0 basechar 0
LayerCount: 2
Fore
SplineSet
267.893554688 773 m 1
 289.228515625 894 l 1
 432.228515625 894 l 1
 410.893554688 773 l 1
 267.893554688 773 l 1
481.893554688 773 m 1
 503.228515625 894 l 1
 647.228515625 894 l 1
 625.893554688 773 l 1
 481.893554688 773 l 1
307.771484375 -16 m 0
 91.771484375 -16 -13.3662109375 125 27.01171875 354 c 0
 67.390625 583 222.60546875 726 438.60546875 726 c 0
 654.60546875 726 759.390625 583 719.01171875 354 c 0xf2
 678.633789062 125 523.771484375 -16 307.771484375 -16 c 0
330.340820312 112 m 0
 448.340820312 112 534.857421875 200 562.01171875 354 c 0
 589.166992188 508 534.036132812 598 416.036132812 598 c 0
 297.036132812 598 211.166992188 508 184.01171875 354 c 0
 156.857421875 200 211.340820312 112 330.340820312 112 c 0
EndSplineSet
Validated: 33
Substitution2: "'ss08' Style Set 8 in Latin lookup 41 subtable" Odieresis.ss08
Substitution2: "'aalt' Access All Alternates in Latin lookup 0 subtable" Odieresis.ss08
EndChar

StartChar: Ograve
Encoding: 210 210 79
Width: 776
GlyphClass: 2
Flags: HMW
HStem: -16 128<328.5 447 328.5 496> 598 128<328.5 447> 772 147<340 340 340 395 250 454>
VStem: 42 157<277 431 277 468.5> 577 157<277 431>
AnchorPoint: "Anchor-3" 433.58 710 basechar 0
AnchorPoint: "Anchor-1" 370.984 355 basechar 0
AnchorPoint: "Anchor-0" 308.389 0 basechar 0
LayerCount: 2
Fore
SplineSet
396.512695312 772 m 1
 332.432617188 919 l 1
 477.432617188 919 l 1
 510.512695312 772 l 1
 396.512695312 772 l 1
305.567382812 -16 m 0
 89.5673828125 -16 -15.5703125 125 24.80859375 354 c 0
 65.1865234375 583 220.401367188 726 436.401367188 726 c 0
 652.401367188 726 757.186523438 583 716.80859375 354 c 0
 676.4296875 125 521.567382812 -16 305.567382812 -16 c 0
328.13671875 112 m 0
 446.13671875 112 532.653320312 200 559.80859375 354 c 0
 586.962890625 508 531.83203125 598 413.83203125 598 c 0
 294.83203125 598 208.962890625 508 181.80859375 354 c 0
 154.653320312 200 209.13671875 112 328.13671875 112 c 0
EndSplineSet
Validated: 33
EndChar

StartChar: Ohungarumlaut
Encoding: 336 336 80
Width: 776
GlyphClass: 2
Flags: HMW
HStem: -16 128<328.5 447 328.5 496> 598 128<328.5 447> 765 148<242 446 300 356 419 446 478 533 419 419>
VStem: 42 157<277 431 277 468.5> 577 157<277 431>
AnchorPoint: "Anchor-3" 434.109 710 basechar 0
AnchorPoint: "Anchor-1" 371.514 355 basechar 0
AnchorPoint: "Anchor-0" 308.917 0 basechar 0
LayerCount: 2
Fore
SplineSet
297.807617188 765 m 1
 381.904296875 913 l 1
 527.904296875 913 l 1
 411.807617188 765 l 1
 297.807617188 765 l 1
474.807617188 765 m 1
 559.904296875 913 l 1
 704.904296875 913 l 1
 588.807617188 765 l 1
 474.807617188 765 l 1
306.095703125 -16 m 0
 90.095703125 -16 -15.0419921875 125 25.3369140625 354 c 0
 65.7158203125 583 220.930664062 726 436.930664062 726 c 0
 652.930664062 726 757.715820312 583 717.336914062 354 c 0
 676.958007812 125 522.095703125 -16 306.095703125 -16 c 0
328.666015625 112 m 0
 446.666015625 112 533.182617188 200 560.336914062 354 c 0
 587.491210938 508 532.361328125 598 414.361328125 598 c 0
 295.361328125 598 209.491210938 508 182.336914062 354 c 0
 155.182617188 200 209.666015625 112 328.666015625 112 c 0
EndSplineSet
Validated: 33
EndChar

StartChar: Omacron
Encoding: 332 332 81
Width: 776
GlyphClass: 2
Flags: HMW
HStem: -16 128<328.5 447 328.5 496> 598 128<328.5 447> 781 110<238 537 238 537>
VStem: 42 157<277 431 277 468.5> 238 299<781 891 781 891> 577 157<277 431>
AnchorPoint: "Anchor-3" 436.049 710 basechar 0
AnchorPoint: "Anchor-1" 373.453 355 basechar 0
AnchorPoint: "Anchor-0" 310.857 0 basechar 0
LayerCount: 2
Fore
SplineSet
298.568359375 781 m 1
 317.963867188 891 l 1
 616.963867188 891 l 1
 597.568359375 781 l 1
 298.568359375 781 l 1
308.036132812 -16 m 0
 92.0361328125 -16 -13.1025390625 125 27.2763671875 354 c 0
 67.6552734375 583 222.870117188 726 438.870117188 726 c 0
 654.870117188 726 759.655273438 583 719.276367188 354 c 0
 678.897460938 125 524.036132812 -16 308.036132812 -16 c 0
330.60546875 112 m 0
 448.60546875 112 535.122070312 200 562.276367188 354 c 0
 589.430664062 508 534.30078125 598 416.30078125 598 c 0
 297.30078125 598 211.430664062 508 184.276367188 354 c 0
 157.122070312 200 211.60546875 112 330.60546875 112 c 0
EndSplineSet
Validated: 33
EndChar

StartChar: Oslash
Encoding: 216 216 82
Width: 776
GlyphClass: 2
Flags: HMW
HStem: -16 128<369 447 369 496> 598 128<328.5 406.5>
VStem: 42 157<324.5 431 324.5 468.5> 577 157<277 383.5>
AnchorPoint: "Anchor-3" 450.596 710 basechar 0
AnchorPoint: "Anchor-1" 388 355 basechar 0
AnchorPoint: "Anchor-0" 325.404 0 basechar 0
LayerCount: 2
Fore
SplineSet
6.5830078125 -16 m 1
 89.333984375 79 l 1
 38.619140625 143 21.193359375 237 41.8232421875 354 c 0
 82.2021484375 583 237.416992188 726 453.416992188 726 c 0
 520.416992188 726 576.94921875 712 622.364257812 686 c 1
 657.416992188 726 l 1
 769.416992188 726 l 1
 685.666015625 631 l 1
 736.205078125 566 754.454101562 471 733.823242188 354 c 0
 693.444335938 125 538.583007812 -16 322.583007812 -16 c 0
 254.583007812 -16 198.05078125 -2 153.635742188 24 c 1
 118.583007812 -16 l 1
 6.5830078125 -16 l 1
198.823242188 354 m 0
 188.419921875 295 189.780273438 246 201.903320312 207 c 1
 522.262695312 572 l 1
 498.260742188 589 467.84765625 598 430.84765625 598 c 0
 311.84765625 598 225.978515625 508 198.823242188 354 c 0
345.15234375 112 m 0
 463.15234375 112 549.668945312 200 576.823242188 354 c 0
 587.2265625 413 585.04296875 463 572.919921875 502 c 1
 252.560546875 137 l 1
 276.739257812 121 307.15234375 112 345.15234375 112 c 0
EndSplineSet
Validated: 33
EndChar

StartChar: Otilde
Encoding: 213 213 83
Width: 776
GlyphClass: 2
Flags: HMW
HStem: -16 128<328.5 447 328.5 496> 598 128<328.5 447> 769 142<216 342 216 342> 774 89<440 456.5 440 480> 774 144<428.5 558> 822 89<319.5 336>
VStem: 42 157<277 431 277 468.5> 216 75<769 769> 484 74<918 918> 577 157<277 431>
AnchorPoint: "Anchor-3" 433.669 710 basechar 0
AnchorPoint: "Anchor-1" 371.072 355 basechar 0
AnchorPoint: "Anchor-0" 308.477 0 basechar 0
LayerCount: 2
Fore
SplineSet
500.954101562 774 m 0xca80
 469.954101562 774 451.364257812 782 430.243164062 804 c 0
 416.359375 816 408.416992188 822 394.416992188 822 c 0xc540
 375.416992188 822 357.301757812 810 347.072265625 769 c 1
 272.072265625 769 l 1
 288.412109375 856 338.110351562 911 407.110351562 911 c 0xe140
 439.110351562 911 461.5234375 902 483.8203125 881 c 0
 497.705078125 869 506.646484375 863 518.646484375 863 c 0xd280
 539.646484375 863 555.762695312 875 566.344726562 918 c 1
 640.344726562 918 l 1
 623.828125 830 572.954101562 774 500.954101562 774 c 0xca80
305.655273438 -16 m 0
 89.6552734375 -16 -15.482421875 125 24.896484375 354 c 0xc240
 65.275390625 583 220.490234375 726 436.490234375 726 c 0
 652.490234375 726 757.275390625 583 716.896484375 354 c 0
 676.517578125 125 521.655273438 -16 305.655273438 -16 c 0
328.225585938 112 m 0
 446.225585938 112 532.7421875 200 559.896484375 354 c 0
 587.05078125 508 531.919921875 598 413.919921875 598 c 0
 294.919921875 598 209.05078125 508 181.896484375 354 c 0
 154.7421875 200 209.225585938 112 328.225585938 112 c 0
EndSplineSet
Validated: 33
EndChar

StartChar: OE
Encoding: 338 338 84
Width: 1120
GlyphClass: 2
Flags: HMW
HStem: -16 128<322.5 431> 0 128<752 1074 752 1074> 293 126<752 1054 752 1054> 582 128<752 1066 752 752> 598 128<322 431 281.5 452>
VStem: 42 157<285 423.5 285 470> 576 176<285 293 419 423.5> 600 152<0 293 69 293>
AnchorPoint: "Anchor-3" 623.596 710 basechar 0
AnchorPoint: "Anchor-0" 498.404 0 basechar 0
LayerCount: 2
Fore
SplineSet
320.583007812 -16 m 0xb5
 112.583007812 -16 1.4443359375 125 41.8232421875 354 c 0
 82.7314453125 586 242.416992188 726 451.416992188 726 c 0xae
 541.416992188 726 608.127929688 696 650.4296875 641 c 1
 662.595703125 710 l 1x75
 1128.59570312 710 l 1
 1106.02636719 582 l 1
 792.026367188 582 l 1
 763.28515625 419 l 1
 1065.28515625 419 l 1
 1043.06738281 293 l 1
 741.067382812 293 l 1
 711.973632812 128 l 1x76
 1033.97363281 128 l 1
 1011.40429688 0 l 1
 537.404296875 0 l 1x75
 549.5703125 69 l 1
 487.872070312 14 410.583007812 -16 320.583007812 -16 c 0xb5
343.15234375 112 m 0
 475.15234375 112 551.490234375 216 575.823242188 354 c 0
 600.333007812 493 560.84765625 598 428.84765625 598 c 0
 300.84765625 598 223.333007812 493 198.823242188 354 c 0
 174.490234375 216 216.15234375 112 343.15234375 112 c 0
EndSplineSet
Validated: 33
EndChar

StartChar: P
Encoding: 80 80 85
Width: 672
GlyphClass: 2
Flags: HMW
HStem: 0 21G<74 74 74 226> 245 128<226 349 349 358 226 349> 582 128<226 349 226 226>
VStem: 74 152<0 245 373 582> 475 156<443.5 512.5>
AnchorPoint: "Anchor-3" 398.596 710 basechar 0
AnchorPoint: "Anchor-0" 273.404 0 basechar 0
LayerCount: 2
Fore
SplineSet
11.404296875 0 m 1
 136.595703125 710 l 1
 420.595703125 710 l 2
 590.595703125 710 678.079101562 622 652.688476562 478 c 0
 627.296875 334 508.604492188 245 338.604492188 245 c 2
 206.604492188 245 l 1
 163.404296875 0 l 1
 11.404296875 0 l 1
229.173828125 373 m 1
 352.173828125 373 l 2
 432.173828125 373 484.521484375 409 496.688476562 478 c 0
 508.854492188 547 469.026367188 582 389.026367188 582 c 2
 266.026367188 582 l 1
 229.173828125 373 l 1
EndSplineSet
Validated: 33
EndChar

StartChar: Thorn
Encoding: 222 222 86
Width: 642
GlyphClass: 2
Flags: HMW
HStem: 0 21G<74 74 74 226> 149 128<226 333 333 336 226 333> 454 129<226 333 226 336> 690 20G<74 226 226 226>
VStem: 74 152<0 149 0 277 277 454 583 710> 445 156<336.5 395.5>
AnchorPoint: "Anchor-3" 383.596 710 basechar 0
AnchorPoint: "Anchor-0" 258.404 0 basechar 0
LayerCount: 2
Fore
SplineSet
11.404296875 0 m 1
 136.595703125 710 l 1
 288.595703125 710 l 1
 266.202148438 583 l 1
 376.202148438 583 l 2
 544.202148438 583 627.096679688 503 603.116210938 367 c 0
 578.606445312 228 467.676757812 149 299.676757812 149 c 2
 189.676757812 149 l 1
 163.404296875 0 l 1
 11.404296875 0 l 1
350.456054688 454 m 2
 243.456054688 454 l 1
 212.24609375 277 l 1
 319.24609375 277 l 2
 394.24609375 277 436.536132812 307 446.939453125 366 c 0
 457.342773438 425 425.456054688 454 350.456054688 454 c 2
EndSplineSet
Validated: 33
EndChar

StartChar: Q
Encoding: 81 81 87
Width: 769
GlyphClass: 2
Flags: HMW
HStem: -16 128<320.5 393.5 320.5 411> 598 128<320 449.5>
VStem: 42 157<289.5 419 289.5 459.5> 570 157<310 419>
AnchorPoint: "Anchor-3" 451.651 710 basechar 0
AnchorPoint: "Anchor-0" 326.459 0 basechar 0
LayerCount: 2
Fore
SplineSet
497.52734375 -62 m 1
 454.693359375 7 l 1
 421.048828125 -8 375.638671875 -16 323.638671875 -16 c 0
 113.638671875 -16 7.79296875 138 45.87890625 354 c 0
 83.083984375 565 232.47265625 726 454.47265625 726 c 0
 676.47265625 726 768.083984375 565 730.87890625 354 c 0
 707.604492188 222 642.794921875 121 549.157226562 55 c 1
 622.52734375 -62 l 1
 497.52734375 -62 l 1
346.208007812 112 m 0
 363.208007812 112 378.560546875 114 392.442382812 119 c 1
 314.778320312 240 l 1
 440.778320312 240 l 1
 480.611328125 171 l 1
 526.311523438 209 558.362304688 266 573.87890625 354 c 0
 596.801757812 484 560.903320312 598 431.903320312 598 c 0
 301.903320312 598 225.801757812 484 202.87890625 354 c 0
 180.1328125 225 217.208007812 112 346.208007812 112 c 0
EndSplineSet
Validated: 33
EndChar

StartChar: R
Encoding: 82 82 88
Width: 697
GlyphClass: 2
Flags: HMW
HStem: 0 21G<74 74 74 226 492 492 492 647> 260 127<226 368 368 377 226 368> 582 128<226 363 226 226>
VStem: 74 152<0 260 387 582> 484 156<455 516.5>
AnchorPoint: "Anchor-3" 407.596 710 basechar 0
AnchorPoint: "Anchor-0" 297.404 0 basechar 0
LayerCount: 2
Fore
SplineSet
11.404296875 0 m 1
 136.595703125 710 l 1
 447.595703125 710 l 2
 603.595703125 710 687.9609375 627 665.21484375 498 c 0
 650.05078125 412 587.942382812 349 509.88671875 326 c 1
 579.123046875 316 609.0703125 276 602.375 204 c 2
 584.404296875 0 l 1
 429.404296875 0 l 1
 448.142578125 180 l 2
 453.6640625 234 432.249023438 260 360.249023438 260 c 2
 209.249023438 260 l 1
 163.404296875 0 l 1
 11.404296875 0 l 1
231.642578125 387 m 1
 373.642578125 387 l 2
 446.642578125 387 495.990234375 423 506.922851562 485 c 0
 518.03125 548 482.026367188 582 403.026367188 582 c 2
 266.026367188 582 l 1
 231.642578125 387 l 1
EndSplineSet
Validated: 33
Substitution2: "'ss04' Style Set 4 in Latin lookup 37 subtable" R.ss04
Substitution2: "'aalt' Access All Alternates in Latin lookup 0 subtable" R.ss04
EndChar

StartChar: Racute
Encoding: 340 340 89
Width: 697
GlyphClass: 2
Flags: HMW
HStem: 0 21G<74 74 74 226 492 492 492 647> 260 127<226 368 368 377 226 368> 582 128<226 363 226 226> 765 148<277 481 335 391>
VStem: 74 152<0 260 387 582> 484 156<455 516.5>
AnchorPoint: "Anchor-3" 389.699 710 basechar 0
AnchorPoint: "Anchor-0" 279.507 0 basechar 0
LayerCount: 2
Fore
SplineSet
331.396484375 765 m 1
 415.493164062 913 l 1
 561.493164062 913 l 1
 445.396484375 765 l 1
 331.396484375 765 l 1
-6.4931640625 0 m 1
 118.69921875 710 l 1
 429.69921875 710 l 2
 585.69921875 710 670.063476562 627 647.317382812 498 c 0
 632.153320312 412 570.044921875 349 491.989257812 326 c 1
 561.225585938 316 591.172851562 276 584.477539062 204 c 2
 566.506835938 0 l 1
 411.506835938 0 l 1
 430.245117188 180 l 2
 435.767578125 234 414.3515625 260 342.3515625 260 c 2
 191.3515625 260 l 1
 145.506835938 0 l 1
 -6.4931640625 0 l 1
213.745117188 387 m 1
 355.745117188 387 l 2
 428.745117188 387 478.092773438 423 489.025390625 485 c 0
 500.133789062 548 464.12890625 582 385.12890625 582 c 2
 248.12890625 582 l 1
 213.745117188 387 l 1
EndSplineSet
Validated: 33
Substitution2: "'ss04' Style Set 4 in Latin lookup 37 subtable" Racute.ss04
Substitution2: "'aalt' Access All Alternates in Latin lookup 0 subtable" Racute.ss04
EndChar

StartChar: Rcaron
Encoding: 344 344 90
Width: 697
GlyphClass: 2
Flags: HMW
HStem: 0 21G<74 74 74 226 492 492 492 647> 260 127<226 368 368 377 226 368> 582 128<226 363 226 226> 765 153<273 281 408 417 273 273>
VStem: 74 152<0 260 387 582> 484 156<455 516.5>
AnchorPoint: "Anchor-3" 389.258 710 basechar 0
AnchorPoint: "Anchor-0" 279.065 0 basechar 0
LayerCount: 2
Fore
SplineSet
257.934570312 918 m 1
 361.934570312 918 l 1
 410.241210938 829 l 1
 488.934570312 918 l 1
 593.934570312 918 l 1
 470.956054688 765 l 1
 326.956054688 765 l 1
 257.934570312 918 l 1
-6.9345703125 0 m 1
 118.2578125 710 l 1
 429.2578125 710 l 2
 585.2578125 710 669.623046875 627 646.876953125 498 c 0
 631.712890625 412 569.604492188 349 491.548828125 326 c 1
 560.78515625 316 590.732421875 276 584.036132812 204 c 2
 566.065429688 0 l 1
 411.065429688 0 l 1
 429.8046875 180 l 2
 435.326171875 234 413.911132812 260 341.911132812 260 c 2
 190.911132812 260 l 1
 145.065429688 0 l 1
 -6.9345703125 0 l 1
213.3046875 387 m 1
 355.3046875 387 l 2
 428.3046875 387 477.65234375 423 488.584960938 485 c 0
 499.693359375 548 463.688476562 582 384.688476562 582 c 2
 247.688476562 582 l 1
 213.3046875 387 l 1
EndSplineSet
Validated: 33
Substitution2: "'ss04' Style Set 4 in Latin lookup 37 subtable" Rcaron.ss04
Substitution2: "'aalt' Access All Alternates in Latin lookup 0 subtable" Rcaron.ss04
EndChar

StartChar: uni0156
Encoding: 342 342 91
Width: 697
GlyphClass: 2
Flags: HMW
HStem: -165 116<295 330 295 425> 0 21G<74 74 74 226 492 492 492 647> 260 127<226 368 368 377 226 368> 582 128<226 363 226 226>
VStem: 74 152<0 260 387 582> 295 130<-154 -49 -154 -49 -154 -49> 484 156<455 516.5>
AnchorPoint: "Anchor-3" 429.901 710 basechar 0
AnchorPoint: "Anchor-0" 275.099 -253 basechar 0
LayerCount: 2
Fore
SplineSet
33.708984375 0 m 1
 158.901367188 710 l 1
 469.901367188 710 l 2
 625.901367188 710 710.266601562 627 687.520507812 498 c 0
 672.356445312 412 610.247070312 349 532.19140625 326 c 1
 601.428710938 316 631.375976562 276 624.6796875 204 c 2
 606.708984375 0 l 1
 451.708984375 0 l 1
 470.448242188 180 l 2
 475.969726562 234 454.5546875 260 382.5546875 260 c 2
 231.5546875 260 l 1
 185.708984375 0 l 1
 33.708984375 0 l 1
253.948242188 387 m 1
 395.948242188 387 l 2
 468.948242188 387 518.295898438 423 529.227539062 485 c 0
 540.336914062 548 504.33203125 582 425.33203125 582 c 2
 288.33203125 582 l 1
 253.948242188 387 l 1
193.098632812 -253 m 1
 260.615234375 -165 l 1
 225.615234375 -165 l 1
 246.069335938 -49 l 1
 376.069335938 -49 l 1
 357.5546875 -154 l 1
 281.098632812 -253 l 1
 193.098632812 -253 l 1
EndSplineSet
Validated: 33
Substitution2: "'ss04' Style Set 4 in Latin lookup 37 subtable" uni0156.ss04
Substitution2: "'aalt' Access All Alternates in Latin lookup 0 subtable" uni0156.ss04
EndChar

StartChar: S
Encoding: 83 83 92
Width: 681
GlyphClass: 2
Flags: HMW
HStem: -16 126<311 394.5 311 439> 600 126<295.5 370.5>
VStem: 66 153<490.5 542 490.5 575.5> 476 153<165 216.5>
AnchorPoint: "Anchor-3" 395.596 710 basechar 0
AnchorPoint: "Anchor-0" 286.404 0 basechar 0
LayerCount: 2
Fore
SplineSet
289.583007812 -16 m 0
 105.583007812 -16 14.8623046875 82 30.6640625 234 c 1
 184.8984375 241 l 1
 182.086914062 157 221.799804688 110 313.799804688 110 c 0
 388.799804688 110 437.737304688 138 447.258789062 192 c 0
 455.8984375 241 436.01171875 270 308.301757812 300 c 0
 133.53125 341 72.34765625 391 93.68359375 512 c 0
 116.077148438 639 230.416992188 726 397.416992188 726 c 0
 573.416992188 726 650.784179688 626 641.098632812 486 c 1
 487.688476562 478 l 1
 492.736328125 552 454.200195312 600 373.200195312 600 c 0
 304.200195312 600 256.380859375 567 247.565429688 517 c 0
 238.219726562 464 267.340820312 442 378.108398438 418 c 0
 568.055664062 378 620.536132812 307 601.493164062 199 c 0
 578.041015625 66 457.583007812 -16 289.583007812 -16 c 0
EndSplineSet
Validated: 33
EndChar

StartChar: Sacute
Encoding: 346 346 93
Width: 681
GlyphClass: 2
Flags: HMW
HStem: -16 126<311 394.5 311 439> 600 126<295.5 370.5> 765 148<265 469 324 379>
VStem: 66 153<490.5 542 490.5 575.5> 476 153<165 216.5>
AnchorPoint: "Anchor-3" 379.109 710 basechar 0
AnchorPoint: "Anchor-0" 269.917 0 basechar 0
LayerCount: 2
Fore
SplineSet
320.807617188 765 m 1
 405.904296875 913 l 1
 550.904296875 913 l 1
 434.807617188 765 l 1
 320.807617188 765 l 1
273.095703125 -16 m 0
 89.095703125 -16 -1.6240234375 82 14.177734375 234 c 1
 168.412109375 241 l 1
 165.600585938 157 205.313476562 110 297.313476562 110 c 0
 372.313476562 110 421.25 138 430.772460938 192 c 0
 439.412109375 241 419.525390625 270 291.815429688 300 c 0
 117.044921875 341 55.861328125 391 77.1962890625 512 c 0
 99.58984375 639 213.930664062 726 380.930664062 726 c 0
 556.930664062 726 634.297851562 626 624.612304688 486 c 1
 471.201171875 478 l 1
 476.25 552 437.713867188 600 356.713867188 600 c 0
 287.713867188 600 239.89453125 567 231.078125 517 c 0
 221.733398438 464 250.853515625 442 361.622070312 418 c 0
 551.569335938 378 604.049804688 307 585.006835938 199 c 0
 561.5546875 66 441.095703125 -16 273.095703125 -16 c 0
EndSplineSet
Validated: 33
EndChar

StartChar: Scaron
Encoding: 352 352 94
Width: 681
GlyphClass: 2
Flags: HMW
HStem: -16 126<311 394.5 311 439> 600 126<295.5 370.5> 765 153<261 270 396 405 261 261>
VStem: 66 153<490.5 542 490.5 575.5> 476 153<165 216.5>
AnchorPoint: "Anchor-3" 378.669 710 basechar 0
AnchorPoint: "Anchor-0" 269.477 0 basechar 0
LayerCount: 2
Fore
SplineSet
247.344726562 918 m 1
 352.344726562 918 l 1
 399.651367188 829 l 1
 478.344726562 918 l 1
 583.344726562 918 l 1
 460.366210938 765 l 1
 316.366210938 765 l 1
 247.344726562 918 l 1
272.655273438 -16 m 0
 88.6552734375 -16 -2.064453125 82 13.7373046875 234 c 1
 167.971679688 241 l 1
 165.16015625 157 204.872070312 110 296.872070312 110 c 0
 371.872070312 110 420.809570312 138 430.331054688 192 c 0
 438.971679688 241 419.084960938 270 291.375 300 c 0
 116.604492188 341 55.419921875 391 76.755859375 512 c 0
 99.1494140625 639 213.490234375 726 380.490234375 726 c 0
 556.490234375 726 633.857421875 626 624.171875 486 c 1
 470.760742188 478 l 1
 475.80859375 552 437.272460938 600 356.272460938 600 c 0
 287.272460938 600 239.454101562 567 230.637695312 517 c 0
 221.291992188 464 250.413085938 442 361.181640625 418 c 0
 551.127929688 378 603.609375 307 584.565429688 199 c 0
 561.114257812 66 440.655273438 -16 272.655273438 -16 c 0
EndSplineSet
Validated: 33
EndChar

StartChar: Scedilla
Encoding: 350 350 95
Width: 681
GlyphClass: 2
Flags: HMW
HStem: -232 73<324.5 354.5 324.5 378> -84 53<323 374> -84 194<323 349.5> -13 21G<301 301> 600 126<295.5 370.5>
VStem: 66 153<490.5 542 490.5 575.5> 388 82<-134.5 -111.5> 476 153<165 216.5>
AnchorPoint: "Anchor-3" 414.64 710 basechar 0
AnchorPoint: "Anchor-0" 305.447 0 basechar 0
LayerCount: 2
Fore
SplineSet
258.5390625 -232 m 0xce
 191.5390625 -232 154.534179688 -198 145.174804688 -149 c 1
 216.111328125 -121 l 1
 222.52734375 -147 237.411132812 -159 268.411132812 -159 c 0
 297.411132812 -159 318.703125 -146 322.758789062 -123 c 0
 326.814453125 -100 317.635742188 -84 264.635742188 -84 c 1xce
 230.512695312 -45 l 1
 255.155273438 -13 l 1x9e
 107.15234375 4 35.7275390625 98 49.7080078125 234 c 1
 203.942382812 241 l 1
 201.130859375 157 240.842773438 110 332.842773438 110 c 0
 407.842773438 110 456.780273438 138 466.301757812 192 c 0
 474.942382812 241 455.055664062 270 327.345703125 300 c 0
 152.575195312 341 91.390625 391 112.7265625 512 c 0
 135.120117188 639 249.4609375 726 416.4609375 726 c 0
 592.4609375 726 669.828125 626 660.142578125 486 c 1
 506.731445312 478 l 1
 511.779296875 552 473.243164062 600 392.243164062 600 c 0
 323.243164062 600 275.424804688 567 266.608398438 517 c 0
 257.262695312 464 286.383789062 442 397.15234375 418 c 0
 587.098632812 378 639.580078125 307 620.536132812 199 c 0xad
 598.495117188 74 491.389648438 -6 338.802734375 -15 c 1
 324.981445312 -31 l 1
 390.922851562 -37 413.045898438 -76 404.23046875 -126 c 0
 391.534179688 -198 328.5390625 -232 258.5390625 -232 c 0xce
EndSplineSet
Validated: 33
Substitution2: "'locl' Localized Forms in Latin lookup 10 subtable" uni0218
Substitution2: "'aalt' Access All Alternates in Latin lookup 0 subtable" uni0218
EndChar

StartChar: Scircumflex
Encoding: 348 348 96
Width: 681
GlyphClass: 2
Flags: HMW
HStem: -16 126<311 394.5 311 439> 600 126<295.5 370.5> 765 153<165 405 261 270 396 396 396 405 261 501>
VStem: 66 153<490.5 542 490.5 575.5> 476 153<165 216.5>
AnchorPoint: "Anchor-3" 378.669 710 basechar 0
AnchorPoint: "Anchor-0" 269.477 0 basechar 0
LayerCount: 2
Fore
SplineSet
220.366210938 765 m 1
 343.344726562 918 l 1
 487.344726562 918 l 1
 556.366210938 765 l 1
 451.366210938 765 l 1
 404.059570312 854 l 1
 325.366210938 765 l 1
 220.366210938 765 l 1
272.655273438 -16 m 0
 88.6552734375 -16 -2.064453125 82 13.7373046875 234 c 1
 167.971679688 241 l 1
 165.16015625 157 204.872070312 110 296.872070312 110 c 0
 371.872070312 110 420.809570312 138 430.331054688 192 c 0
 438.971679688 241 419.084960938 270 291.375 300 c 0
 116.604492188 341 55.419921875 391 76.755859375 512 c 0
 99.1494140625 639 213.490234375 726 380.490234375 726 c 0
 556.490234375 726 633.857421875 626 624.171875 486 c 1
 470.760742188 478 l 1
 475.80859375 552 437.272460938 600 356.272460938 600 c 0
 287.272460938 600 239.454101562 567 230.637695312 517 c 0
 221.291992188 464 250.413085938 442 361.181640625 418 c 0
 551.127929688 378 603.609375 307 584.565429688 199 c 0
 561.114257812 66 440.655273438 -16 272.655273438 -16 c 0
EndSplineSet
Validated: 33
EndChar

StartChar: uni0218
Encoding: 536 536 97
Width: 681
GlyphClass: 2
Flags: HMW
HStem: -165 116<284 319 284 414> -16 126<311 394.5 311 439> 600 126<295.5 370.5>
VStem: 66 153<490.5 542 490.5 575.5> 284 130<-154 -49 -154 -49 -154 -49> 476 153<165 216.5>
AnchorPoint: "Anchor-3" 416.491 710 basechar 0
AnchorPoint: "Anchor-0" 262.688 -253 basechar 0
LayerCount: 2
Fore
SplineSet
310.477539062 -16 m 0
 126.477539062 -16 35.7578125 82 51.5595703125 234 c 1
 205.793945312 241 l 1
 202.982421875 157 242.694335938 110 334.694335938 110 c 0
 409.694335938 110 458.631835938 138 468.153320312 192 c 0
 476.793945312 241 456.907226562 270 329.196289062 300 c 0
 154.42578125 341 93.2421875 391 114.578125 512 c 0
 136.971679688 639 251.3125 726 418.3125 726 c 0
 594.3125 726 671.6796875 626 661.993164062 486 c 1
 508.583007812 478 l 1
 513.630859375 552 475.094726562 600 394.094726562 600 c 0
 325.094726562 600 277.276367188 567 268.459960938 517 c 0
 259.114257812 464 288.235351562 442 399.002929688 418 c 0
 588.950195312 378 641.430664062 307 622.387695312 199 c 0
 598.936523438 66 478.477539062 -16 310.477539062 -16 c 0
180.6875 -253 m 1
 248.205078125 -165 l 1
 213.205078125 -165 l 1
 233.658203125 -49 l 1
 363.658203125 -49 l 1
 345.14453125 -154 l 1
 268.6875 -253 l 1
 180.6875 -253 l 1
EndSplineSet
Validated: 33
EndChar

StartChar: uni1E9E
Encoding: 7838 7838 98
Width: 741
GlyphClass: 2
Flags: HMW
HStem: 0 128<74 414 293 414 293 414> 582 128<297.5 656 333 478>
VStem: 74 152<0 469 0 547> 535 156<193 253.5>
AnchorPoint: "Anchor-3" 433.596 710 basechar 0
AnchorPoint: "Anchor-0" 308.404 0 basechar 0
LayerCount: 2
Fore
SplineSet
11.404296875 0 m 1
 94.1015625 469 l 2
 121.608398438 625 226.595703125 710 395.595703125 710 c 2
 718.595703125 710 l 1
 695.497070312 579 l 1
 491.637695312 421 l 1
 626.287109375 402 686.944335938 332 667.372070312 221 c 0
 642.686523438 81 527.404296875 0 351.404296875 0 c 2
 230.404296875 0 l 1
 252.973632812 128 l 1
 373.973632812 128 l 2
 448.973632812 128 501.145507812 163 511.724609375 223 c 0
 522.48046875 284 479.475585938 318 398.475585938 318 c 2
 300.475585938 318 l 1
 318.990234375 423 l 1
 518.026367188 582 l 1
 373.026367188 582 l 2
 302.026367188 582 259.326171875 544 246.1015625 469 c 2
 163.404296875 0 l 1
 11.404296875 0 l 1
EndSplineSet
Validated: 33
EndChar

StartChar: T
Encoding: 84 84 99
Width: 599
GlyphClass: 2
Flags: HMW
HStem: 0 21G<223 223 223 376> 582 128<11 223 11 589 376 376 376 589>
VStem: 223 153<0 582 0 582>
AnchorPoint: "Anchor-3" 361.596 710 basechar 0
AnchorPoint: "Anchor-1" 294.887 326 basechar 0
AnchorPoint: "Anchor-0" 236.404 0 basechar 0
LayerCount: 2
Fore
SplineSet
160.404296875 0 m 1
 263.026367188 582 l 1
 51.0263671875 582 l 1
 73.595703125 710 l 1
 651.595703125 710 l 1
 629.026367188 582 l 1
 416.026367188 582 l 1
 313.404296875 0 l 1
 160.404296875 0 l 1
EndSplineSet
Validated: 1
EndChar

StartChar: Tbar
Encoding: 358 358 100
Width: 599
GlyphClass: 2
Flags: HMW
HStem: 0 21G<223 223 223 376> 269 115<99 223 99 223 376 501> 582 128<11 223 11 589 376 376 376 589>
VStem: 223 153<0 269 0 269 384 582>
AnchorPoint: "Anchor-3" 361.596 710 basechar 0
AnchorPoint: "Anchor-1" 294.887 326 basechar 0
AnchorPoint: "Anchor-0" 236.404 0 basechar 0
LayerCount: 2
Fore
SplineSet
160.404296875 0 m 1
 207.8359375 269 l 1
 83.8359375 269 l 1
 104.11328125 384 l 1
 228.11328125 384 l 1
 263.026367188 582 l 1
 51.0263671875 582 l 1
 73.595703125 710 l 1
 651.595703125 710 l 1
 629.026367188 582 l 1
 416.026367188 582 l 1
 381.11328125 384 l 1
 506.11328125 384 l 1
 485.8359375 269 l 1
 360.8359375 269 l 1
 313.404296875 0 l 1
 160.404296875 0 l 1
EndSplineSet
Validated: 1
EndChar

StartChar: Tcaron
Encoding: 356 356 101
Width: 599
GlyphClass: 2
Flags: HMW
HStem: 0 21G<223 223 223 376> 582 128<11 223 11 589 376 376 376 589> 765 153<227 236 363 372 227 227>
VStem: 223 153<0 582 0 582>
AnchorPoint: "Anchor-3" 343.258 710 basechar 0
AnchorPoint: "Anchor-1" 276.549 326 basechar 0
AnchorPoint: "Anchor-0" 218.065 0 basechar 0
LayerCount: 2
Fore
SplineSet
211.934570312 918 m 1
 316.934570312 918 l 1
 364.241210938 829 l 1
 443.934570312 918 l 1
 548.934570312 918 l 1
 425.956054688 765 l 1
 280.956054688 765 l 1
 211.934570312 918 l 1
142.065429688 0 m 1
 244.688476562 582 l 1
 32.6884765625 582 l 1
 55.2578125 710 l 1
 633.2578125 710 l 1
 610.688476562 582 l 1
 397.688476562 582 l 1
 295.065429688 0 l 1
 142.065429688 0 l 1
EndSplineSet
Validated: 1
EndChar

StartChar: uni0162
Encoding: 354 354 102
Width: 599
GlyphClass: 2
Flags: HMW
HStem: -232 73<274.5 305 274.5 328.5> -84 53<273 324> 0 21G<223 223 223 259 345 345 345 376> 582 128<11 223 11 589 376 376 376 589>
VStem: 223 153<0 582 0 582> 338 82<-134.5 -111.5>
AnchorPoint: "Anchor-3" 382.05 710 basechar 0
AnchorPoint: "Anchor-1" 315.341 326 basechar 0
AnchorPoint: "Anchor-0" 256.857 0 basechar 0
LayerCount: 2
Fore
SplineSet
180.857421875 0 m 1xf8
 283.48046875 582 l 1
 71.48046875 582 l 1
 94.0498046875 710 l 1
 672.049804688 710 l 1
 649.48046875 582 l 1
 436.48046875 582 l 1
 333.857421875 0 l 1xb8
 302.857421875 0 l 1
 276.391601562 -31 l 1
 342.333984375 -37 364.45703125 -76 355.640625 -126 c 0
 342.9453125 -198 279.950195312 -232 210.950195312 -232 c 0
 143.950195312 -232 105.9453125 -198 96.5849609375 -149 c 1
 167.522460938 -121 l 1
 173.9375 -147 188.822265625 -159 219.822265625 -159 c 0
 249.822265625 -159 270.114257812 -146 274.169921875 -123 c 0xf4
 278.225585938 -100 269.045898438 -84 216.045898438 -84 c 1
 182.922851562 -45 l 1
 216.857421875 0 l 1
 180.857421875 0 l 1xf8
EndSplineSet
Validated: 33
Substitution2: "'locl' Localized Forms in Latin lookup 10 subtable" uni021A
Substitution2: "'aalt' Access All Alternates in Latin lookup 0 subtable" uni021A
EndChar

StartChar: uni021A
Encoding: 538 538 103
Width: 599
GlyphClass: 2
Flags: HMW
HStem: -165 116<234 269 234 364> 0 21G<223 223 223 376> 582 128<11 223 11 589 376 376 376 589>
VStem: 223 141<-154 582> 223 153<0 582 0 582> 234 142<-165 582 -49 582>
AnchorPoint: "Anchor-3" 383.901 710 basechar 0
AnchorPoint: "Anchor-1" 317.191 326 basechar 0
AnchorPoint: "Anchor-0" 214.099 -253 basechar 0
LayerCount: 2
Fore
SplineSet
182.708984375 0 m 1xe8
 285.33203125 582 l 1
 73.33203125 582 l 1
 95.9013671875 710 l 1
 673.901367188 710 l 1
 651.33203125 582 l 1
 438.33203125 582 l 1
 335.708984375 0 l 1
 182.708984375 0 l 1xe8
132.098632812 -253 m 1
 199.615234375 -165 l 1
 164.615234375 -165 l 1
 185.069335938 -49 l 1xe4
 315.069335938 -49 l 1
 296.5546875 -154 l 1xf0
 220.098632812 -253 l 1
 132.098632812 -253 l 1
EndSplineSet
Validated: 1
EndChar

StartChar: U
Encoding: 85 85 104
Width: 703
GlyphClass: 2
Flags: HMW
HStem: -16 128<306.5 397 306.5 441.5> 691 20G<59 211 211 211 492 644 644 644>
VStem: 59 152<256 711> 492 152<256 711>
AnchorPoint: "Anchor-3" 415.919 710 basechar 0
AnchorPoint: "Anchor-2" 405.902 1 basechar 0
AnchorPoint: "Anchor-0" 290.727 0 basechar 0
LayerCount: 2
Fore
SplineSet
287.905273438 -16 m 0
 107.905273438 -16 13.595703125 90 42.8662109375 256 c 2
 123.094726562 711 l 1
 275.094726562 711 l 1
 194.866210938 256 l 2
 178.643554688 164 219.474609375 112 310.474609375 112 c 0
 400.474609375 112 459.643554688 164 475.866210938 256 c 2
 556.094726562 711 l 1
 708.094726562 711 l 1
 627.866210938 256 l 2
 598.595703125 90 466.905273438 -16 287.905273438 -16 c 0
EndSplineSet
Validated: 33
EndChar

StartChar: Uacute
Encoding: 218 218 105
Width: 703
GlyphClass: 2
Flags: HMW
HStem: -16 128<306.5 397 306.5 441.5> 691 20G<59 211 211 211 492 644 644 644> 765 148<283 488 342 398>
VStem: 59 152<256 711> 492 152<256 711>
AnchorPoint: "Anchor-3" 398.109 710 basechar 0
AnchorPoint: "Anchor-2" 388.094 1 basechar 0
AnchorPoint: "Anchor-0" 272.917 0 basechar 0
LayerCount: 2
Fore
SplineSet
338.807617188 765 m 1
 423.904296875 913 l 1
 569.904296875 913 l 1
 453.807617188 765 l 1
 338.807617188 765 l 1
270.095703125 -16 m 0
 90.095703125 -16 -4.212890625 90 25.056640625 256 c 2
 105.286132812 711 l 1
 257.286132812 711 l 1
 177.056640625 256 l 2
 160.834960938 164 201.666015625 112 292.666015625 112 c 0
 382.666015625 112 441.834960938 164 458.056640625 256 c 2
 538.286132812 711 l 1
 690.286132812 711 l 1
 610.056640625 256 l 2
 580.787109375 90 449.095703125 -16 270.095703125 -16 c 0
EndSplineSet
Validated: 33
EndChar

StartChar: Ubreve
Encoding: 364 364 106
Width: 703
GlyphClass: 2
Flags: HMW
HStem: -16 128<306.5 397 306.5 441.5> 691 20G<59 211 211 211 492 644 644 644> 766 82<332 372 332 398> 766 147<195 398>
VStem: 59 152<256 711> 492 152<256 711>
AnchorPoint: "Anchor-3" 398.109 710 basechar 0
AnchorPoint: "Anchor-2" 388.094 1 basechar 0
AnchorPoint: "Anchor-0" 272.917 0 basechar 0
LayerCount: 2
Fore
SplineSet
407.983398438 766 m 0xdc
 314.983398438 766 264.329101562 819 276.904296875 913 c 1xdc
 363.904296875 913 l 1
 359.79296875 867 382.442382812 848 422.442382812 848 c 0xec
 462.442382812 848 489.79296875 867 502.904296875 913 c 1
 589.904296875 913 l 1
 569.329101562 819 499.983398438 766 407.983398438 766 c 0xdc
270.095703125 -16 m 0
 90.095703125 -16 -4.212890625 90 25.056640625 256 c 2
 105.286132812 711 l 1
 257.286132812 711 l 1
 177.056640625 256 l 2
 160.834960938 164 201.666015625 112 292.666015625 112 c 0
 382.666015625 112 441.834960938 164 458.056640625 256 c 2
 538.286132812 711 l 1
 690.286132812 711 l 1
 610.056640625 256 l 2
 580.787109375 90 449.095703125 -16 270.095703125 -16 c 0
EndSplineSet
Validated: 33
EndChar

StartChar: Ucircumflex
Encoding: 219 219 107
Width: 703
GlyphClass: 2
Flags: HMW
HStem: -16 128<306.5 397 306.5 441.5> 691 20G<59 211 211 211 492 644 644 644> 765 153<183 424 279 288 415 415 415 424 279 520>
VStem: 59 152<256 711> 492 152<256 711>
AnchorPoint: "Anchor-3" 397.669 710 basechar 0
AnchorPoint: "Anchor-2" 387.653 1 basechar 0
AnchorPoint: "Anchor-0" 272.477 0 basechar 0
LayerCount: 2
Fore
SplineSet
238.366210938 765 m 1
 361.344726562 918 l 1
 506.344726562 918 l 1
 575.366210938 765 l 1
 470.366210938 765 l 1
 423.059570312 854 l 1
 343.366210938 765 l 1
 238.366210938 765 l 1
269.655273438 -16 m 0
 89.6552734375 -16 -4.654296875 90 24.6162109375 256 c 2
 104.844726562 711 l 1
 256.844726562 711 l 1
 176.616210938 256 l 2
 160.39453125 164 201.225585938 112 292.225585938 112 c 0
 382.225585938 112 441.39453125 164 457.616210938 256 c 2
 537.844726562 711 l 1
 689.844726562 711 l 1
 609.616210938 256 l 2
 580.345703125 90 448.655273438 -16 269.655273438 -16 c 0
EndSplineSet
Validated: 33
EndChar

StartChar: Udieresis
Encoding: 220 220 108
Width: 703
GlyphClass: 2
Flags: HMW
HStem: -16 128<306.5 397 306.5 441.5> 691 20G<59 211 211 211 492 644 644 644> 773 121<173 316 173 316 387 531 173 387>
VStem: 59 152<256 711> 173 38 173 143<773 894 773 894> 387 144<773 894 773 894> 492 39 492 152<256 711>
AnchorPoint: "Anchor-3" 399.784 710 basechar 0
AnchorPoint: "Anchor-2" 389.769 1 basechar 0
AnchorPoint: "Anchor-0" 274.593 0 basechar 0
LayerCount: 2
Fore
SplineSet
231.893554688 773 m 1xe880
 253.228515625 894 l 1xea
 396.228515625 894 l 1
 374.893554688 773 l 1xe480
 231.893554688 773 l 1xe880
445.893554688 773 m 1
 467.228515625 894 l 1xf2
 611.228515625 894 l 1
 589.893554688 773 l 1xf1
 445.893554688 773 l 1
271.771484375 -16 m 0
 91.771484375 -16 -2.5380859375 90 26.732421875 256 c 2
 106.9609375 711 l 1
 258.9609375 711 l 1
 178.732421875 256 l 2
 162.509765625 164 203.340820312 112 294.340820312 112 c 0
 384.340820312 112 443.509765625 164 459.732421875 256 c 2
 539.9609375 711 l 1
 691.9609375 711 l 1
 611.732421875 256 l 2xf080
 582.461914062 90 450.771484375 -16 271.771484375 -16 c 0
EndSplineSet
Validated: 33
Substitution2: "'ss08' Style Set 8 in Latin lookup 41 subtable" Udieresis.ss08
Substitution2: "'aalt' Access All Alternates in Latin lookup 0 subtable" Udieresis.ss08
EndChar

StartChar: Ugrave
Encoding: 217 217 109
Width: 703
GlyphClass: 2
Flags: HMW
HStem: -16 128<306.5 397 306.5 441.5> 691 20G<59 211 211 211 492 644 644 644> 772 147<304 304 304 359 214 418>
VStem: 59 152<256 711> 492 152<256 711>
AnchorPoint: "Anchor-3" 397.58 710 basechar 0
AnchorPoint: "Anchor-2" 387.564 1 basechar 0
AnchorPoint: "Anchor-0" 272.389 0 basechar 0
LayerCount: 2
Fore
SplineSet
360.512695312 772 m 1
 296.432617188 919 l 1
 441.432617188 919 l 1
 474.512695312 772 l 1
 360.512695312 772 l 1
269.567382812 -16 m 0
 89.5673828125 -16 -4.7421875 90 24.5283203125 256 c 2
 104.756835938 711 l 1
 256.756835938 711 l 1
 176.528320312 256 l 2
 160.305664062 164 201.13671875 112 292.13671875 112 c 0
 382.13671875 112 441.305664062 164 457.528320312 256 c 2
 537.756835938 711 l 1
 689.756835938 711 l 1
 609.528320312 256 l 2
 580.2578125 90 448.567382812 -16 269.567382812 -16 c 0
EndSplineSet
Validated: 33
EndChar

StartChar: Uhungarumlaut
Encoding: 368 368 110
Width: 703
GlyphClass: 2
Flags: HMW
HStem: -16 128<306.5 397 306.5 441.5> 691 20G<59 211 211 211 492 644 644 644> 765 148<206 410 264 320 383 410 442 497 383 383>
VStem: 59 152<256 711> 492 152<256 711>
AnchorPoint: "Anchor-3" 398.109 710 basechar 0
AnchorPoint: "Anchor-2" 388.094 1 basechar 0
AnchorPoint: "Anchor-0" 272.917 0 basechar 0
LayerCount: 2
Fore
SplineSet
261.807617188 765 m 1
 345.904296875 913 l 1
 491.904296875 913 l 1
 375.807617188 765 l 1
 261.807617188 765 l 1
438.807617188 765 m 1
 523.904296875 913 l 1
 668.904296875 913 l 1
 552.807617188 765 l 1
 438.807617188 765 l 1
270.095703125 -16 m 0
 90.095703125 -16 -4.212890625 90 25.056640625 256 c 2
 105.286132812 711 l 1
 257.286132812 711 l 1
 177.056640625 256 l 2
 160.834960938 164 201.666015625 112 292.666015625 112 c 0
 382.666015625 112 441.834960938 164 458.056640625 256 c 2
 538.286132812 711 l 1
 690.286132812 711 l 1
 610.056640625 256 l 2
 580.787109375 90 449.095703125 -16 270.095703125 -16 c 0
EndSplineSet
Validated: 33
EndChar

StartChar: Umacron
Encoding: 362 362 111
Width: 703
GlyphClass: 2
Flags: HMW
HStem: -16 128<306.5 397 306.5 441.5> 691 20G<59 211 211 211 492 644 644 644> 781 110<202 501 202 501>
VStem: 59 152<256 711> 202 9 492 9 492 152<256 711>
AnchorPoint: "Anchor-3" 400.049 710 basechar 0
AnchorPoint: "Anchor-2" 390.033 1 basechar 0
AnchorPoint: "Anchor-0" 274.857 0 basechar 0
LayerCount: 2
Fore
SplineSet
262.568359375 781 m 1xec
 281.963867188 891 l 1
 580.963867188 891 l 1
 561.568359375 781 l 1
 262.568359375 781 l 1xec
272.036132812 -16 m 0
 92.0361328125 -16 -2.2734375 90 26.9970703125 256 c 2
 107.225585938 711 l 1
 259.225585938 711 l 1
 178.997070312 256 l 2
 162.774414062 164 203.60546875 112 294.60546875 112 c 0
 384.60546875 112 443.774414062 164 459.997070312 256 c 2
 540.225585938 711 l 1
 692.225585938 711 l 1
 611.997070312 256 l 2xf2
 582.7265625 90 451.036132812 -16 272.036132812 -16 c 0
EndSplineSet
Validated: 33
EndChar

StartChar: Uogonek
Encoding: 370 370 112
Width: 703
GlyphClass: 2
Flags: HMW
HStem: -216 90<361.5 439.5> -16 128<335 335> 691 20G<59 211 211 211 492 644 644 644>
VStem: 59 152<256 711> 284 121<-158 -93.5> 492 152<256 711>
AnchorPoint: "Anchor-3" 433.551 710 basechar 0
AnchorPoint: "Anchor-2" 423.535 1 basechar 0
AnchorPoint: "Anchor-0" 308.359 0 basechar 0
LayerCount: 2
Fore
SplineSet
315.272460938 -216 m 0
 244.272460938 -216 207.5625 -186 217.436523438 -130 c 0
 224.489257812 -90 256.366210938 -51 286.185546875 -18 c 1
 288.538085938 -16 l 1
 119.595703125 -10 32.1103515625 95 60.4990234375 256 c 2
 140.727539062 711 l 1
 292.727539062 711 l 1
 212.499023438 256 l 2
 196.276367188 164 237.107421875 112 328.107421875 112 c 0
 418.107421875 112 477.276367188 164 493.499023438 256 c 2
 573.727539062 711 l 1
 725.727539062 711 l 1
 645.499023438 256 l 2
 623.10546875 129 540.8828125 37 422.53515625 1 c 1
 385.658203125 -38 l 2
 361.897460938 -65 346.37109375 -85 343.374023438 -102 c 0
 340.552734375 -118 351.141601562 -126 365.141601562 -126 c 0
 382.141601562 -126 401.0234375 -121 412.2578125 -114 c 1
 425.857421875 -190 l 1
 405.388671875 -204 358.272460938 -216 315.272460938 -216 c 0
EndSplineSet
Validated: 33
EndChar

StartChar: Uring
Encoding: 366 366 113
Width: 703
GlyphClass: 2
Flags: HMW
HStem: -16 128<306.5 397 306.5 441.5> 691 20G<59 211 211 211 492 644 644 644> 749 64<341 362.5 341 381> 888 64<341 362.5>
VStem: 59 152<256 711> 249 65<839.5 861 839.5 879> 389 65<839.5 861> 492 152<256 711>
AnchorPoint: "Anchor-3" 394.671 710 basechar 0
AnchorPoint: "Anchor-2" 384.655 1 basechar 0
AnchorPoint: "Anchor-0" 269.479 0 basechar 0
LayerCount: 2
Fore
SplineSet
401.547851562 749 m 0
 343.547851562 749 306.129882812 792 316.356445312 850 c 0
 326.583984375 908 379.341796875 952 437.341796875 952 c 0
 495.341796875 952 531.583984375 908 521.356445312 850 c 0
 511.129882812 792 459.547851562 749 401.547851562 749 c 0
412.833007812 813 m 0
 433.833007812 813 452.654296875 829 456.356445312 850 c 0
 460.236328125 872 447.057617188 888 426.057617188 888 c 0
 404.057617188 888 385.236328125 872 381.356445312 850 c 0
 377.654296875 829 390.833007812 813 412.833007812 813 c 0
266.658203125 -16 m 0
 86.658203125 -16 -7.6513671875 90 21.619140625 256 c 2
 101.84765625 711 l 1
 253.84765625 711 l 1
 173.619140625 256 l 2
 157.396484375 164 198.227539062 112 289.227539062 112 c 0
 379.227539062 112 438.396484375 164 454.619140625 256 c 2
 534.84765625 711 l 1
 686.84765625 711 l 1
 606.619140625 256 l 2
 577.348632812 90 445.658203125 -16 266.658203125 -16 c 0
EndSplineSet
Validated: 33
EndChar

StartChar: Utilde
Encoding: 360 360 114
Width: 703
GlyphClass: 2
Flags: HMW
HStem: -16 128<306.5 397 306.5 441.5> 691 20G<59 211 211 211 492 644 644 644> 769 142<180 306 180 306> 774 89<404 420.5 404 444> 774 144<392.5 522> 822 89<283.5 300>
VStem: 59 152<256 711> 180 31 180 75<769 769> 448 74<918 918> 492 152<256 711>
AnchorPoint: "Anchor-3" 397.669 710 basechar 0
AnchorPoint: "Anchor-2" 387.653 1 basechar 0
AnchorPoint: "Anchor-0" 272.477 0 basechar 0
LayerCount: 2
Fore
SplineSet
464.954101562 774 m 0xca40
 433.954101562 774 415.364257812 782 394.243164062 804 c 0
 380.359375 816 372.416992188 822 358.416992188 822 c 0xc4a0
 339.416992188 822 321.301757812 810 311.072265625 769 c 1xe0a0
 236.072265625 769 l 1
 252.412109375 856 302.110351562 911 371.110351562 911 c 0xe120
 403.110351562 911 425.5234375 902 447.8203125 881 c 0
 461.705078125 869 470.646484375 863 482.646484375 863 c 0xd240
 503.646484375 863 519.762695312 875 530.344726562 918 c 1
 604.344726562 918 l 1
 587.828125 830 536.954101562 774 464.954101562 774 c 0xca40
269.655273438 -16 m 0
 89.6552734375 -16 -4.654296875 90 24.6162109375 256 c 2
 104.844726562 711 l 1
 256.844726562 711 l 1
 176.616210938 256 l 2xe220
 160.39453125 164 201.225585938 112 292.225585938 112 c 0
 382.225585938 112 441.39453125 164 457.616210938 256 c 2
 537.844726562 711 l 1
 689.844726562 711 l 1
 609.616210938 256 l 2
 580.345703125 90 448.655273438 -16 269.655273438 -16 c 0
EndSplineSet
Validated: 33
EndChar

StartChar: V
Encoding: 86 86 115
Width: 730
GlyphClass: 2
Flags: HMW
HStem: 0 21G<275 275 275 454> 690 20G<19 176 176 176 554 711 711 711>
VStem: 19 692<710 710>
AnchorPoint: "Anchor-3" 427.596 710 basechar 0
AnchorPoint: "Anchor-0" 302.404 0 basechar 0
LayerCount: 2
Fore
SplineSet
212.404296875 0 m 1
 81.595703125 710 l 1
 238.595703125 710 l 1
 332.555664062 171 l 1
 616.595703125 710 l 1
 773.595703125 710 l 1
 391.404296875 0 l 1
 212.404296875 0 l 1
EndSplineSet
Validated: 1
EndChar

StartChar: W
Encoding: 87 87 116
Width: 1015
GlyphClass: 2
Flags: HMW
HStem: 0 21G<229 229 229 391 623 623 623 787> 690 20G<37 196 196 196 441 574 574 574 819 978 978 978>
VStem: 37 941<710 710>
AnchorPoint: "Anchor-3" 569.596 710 basechar 0
AnchorPoint: "Anchor-0" 444.404 0 basechar 0
LayerCount: 2
Fore
SplineSet
166.404296875 0 m 1
 99.595703125 710 l 1
 258.595703125 710 l 1
 292.432617188 210 l 1
 503.595703125 710 l 1
 636.595703125 710 l 1
 672.432617188 210 l 1
 881.595703125 710 l 1
 1040.59570312 710 l 1
 724.404296875 0 l 1
 560.404296875 0 l 1
 524.456054688 454 l 1
 328.404296875 0 l 1
 166.404296875 0 l 1
EndSplineSet
Validated: 1
EndChar

StartChar: Wacute
Encoding: 7810 7810 117
Width: 1015
GlyphClass: 2
Flags: HMW
HStem: 0 21G<229 229 229 391 623 623 623 787> 690 20G<37 196 196 196 441 574 574 574 819 978 978 978> 765 148<439 644 498 554>
VStem: 37 941<710 710>
AnchorPoint: "Anchor-3" 551.699 710 basechar 0
AnchorPoint: "Anchor-0" 426.507 0 basechar 0
LayerCount: 2
Fore
SplineSet
493.396484375 765 m 1
 578.493164062 913 l 1
 724.493164062 913 l 1
 608.396484375 765 l 1
 493.396484375 765 l 1
148.506835938 0 m 1
 81.69921875 710 l 1
 240.69921875 710 l 1
 274.53515625 210 l 1
 485.69921875 710 l 1
 618.69921875 710 l 1
 654.53515625 210 l 1
 863.69921875 710 l 1
 1022.69921875 710 l 1
 706.506835938 0 l 1
 542.506835938 0 l 1
 506.559570312 454 l 1
 310.506835938 0 l 1
 148.506835938 0 l 1
EndSplineSet
Validated: 1
EndChar

StartChar: Wcircumflex
Encoding: 372 372 118
Width: 1015
GlyphClass: 2
Flags: HMW
HStem: 0 21G<229 229 229 391 623 623 623 787> 690 20G<37 196 196 196 441 574 574 574 819 978 978 978> 765 153<339 580 435 444 571 571 571 580 435 676>
VStem: 37 941<710 710>
AnchorPoint: "Anchor-3" 551.258 710 basechar 0
AnchorPoint: "Anchor-0" 426.065 0 basechar 0
LayerCount: 2
Fore
SplineSet
392.956054688 765 m 1
 515.934570312 918 l 1
 660.934570312 918 l 1
 729.956054688 765 l 1
 624.956054688 765 l 1
 576.649414062 854 l 1
 497.956054688 765 l 1
 392.956054688 765 l 1
148.065429688 0 m 1
 81.2578125 710 l 1
 240.2578125 710 l 1
 274.094726562 210 l 1
 485.2578125 710 l 1
 618.2578125 710 l 1
 654.094726562 210 l 1
 863.2578125 710 l 1
 1022.2578125 710 l 1
 706.065429688 0 l 1
 542.065429688 0 l 1
 506.118164062 454 l 1
 310.065429688 0 l 1
 148.065429688 0 l 1
EndSplineSet
Validated: 1
EndChar

StartChar: Wdieresis
Encoding: 7812 7812 119
Width: 1015
GlyphClass: 2
Flags: HMW
HStem: 0 21G<229 229 229 391 623 623 623 787> 690 20G<37 196 196 196 441 574 574 574 819 978 978 978> 773 121<328 472 328 472 543 686 328 543>
VStem: 328 144<773 894 773 894> 543 143<773 894 773 894>
AnchorPoint: "Anchor-3" 553.374 710 basechar 0
AnchorPoint: "Anchor-0" 428.182 0 basechar 0
LayerCount: 2
Fore
SplineSet
385.482421875 773 m 1
 406.818359375 894 l 1
 550.818359375 894 l 1
 529.482421875 773 l 1
 385.482421875 773 l 1
600.482421875 773 m 1
 621.818359375 894 l 1
 764.818359375 894 l 1
 743.482421875 773 l 1
 600.482421875 773 l 1
150.181640625 0 m 1
 83.3740234375 710 l 1
 242.374023438 710 l 1
 276.2109375 210 l 1
 487.374023438 710 l 1
 620.374023438 710 l 1
 656.2109375 210 l 1
 865.374023438 710 l 1
 1024.37402344 710 l 1
 708.181640625 0 l 1
 544.181640625 0 l 1
 508.234375 454 l 1
 312.181640625 0 l 1
 150.181640625 0 l 1
EndSplineSet
Validated: 1
Substitution2: "'ss08' Style Set 8 in Latin lookup 41 subtable" Wdieresis.ss08
Substitution2: "'aalt' Access All Alternates in Latin lookup 0 subtable" Wdieresis.ss08
EndChar

StartChar: Wgrave
Encoding: 7808 7808 120
Width: 1015
GlyphClass: 2
Flags: HMW
HStem: 0 21G<229 229 229 391 623 623 623 787> 690 20G<37 196 196 196 441 574 574 574 819 978 978 978> 772 147<460 460 460 515 370 574>
VStem: 37 941<710 710>
AnchorPoint: "Anchor-3" 551.17 710 basechar 0
AnchorPoint: "Anchor-0" 425.978 0 basechar 0
LayerCount: 2
Fore
SplineSet
515.102539062 772 m 1
 451.022460938 919 l 1
 596.022460938 919 l 1
 629.102539062 772 l 1
 515.102539062 772 l 1
147.977539062 0 m 1
 81.169921875 710 l 1
 240.169921875 710 l 1
 274.006835938 210 l 1
 485.169921875 710 l 1
 618.169921875 710 l 1
 654.006835938 210 l 1
 863.169921875 710 l 1
 1022.16992188 710 l 1
 705.977539062 0 l 1
 541.977539062 0 l 1
 506.030273438 454 l 1
 309.977539062 0 l 1
 147.977539062 0 l 1
EndSplineSet
Validated: 1
EndChar

StartChar: X
Encoding: 88 88 121
Width: 688
GlyphClass: 2
Flags: HMW
HStem: 0 21G<12 12 12 189 499 499 499 676> 690 20G<14 190 190 190 496 673 673 673>
VStem: 12 664<0 0>
AnchorPoint: "Anchor-3" 406.596 710 basechar 0
AnchorPoint: "Anchor-0" 281.404 0 basechar 0
LayerCount: 2
Fore
SplineSet
-50.595703125 0 m 1
 253.176757812 356 l 1
 76.595703125 710 l 1
 252.595703125 710 l 1
 365.454101562 471 l 1
 558.595703125 710 l 1
 735.595703125 710 l 1
 434.529296875 358 l 1
 613.404296875 0 l 1
 436.404296875 0 l 1
 323.250976562 243 l 1
 126.404296875 0 l 1
 -50.595703125 0 l 1
EndSplineSet
Validated: 1
EndChar

StartChar: Y
Encoding: 89 89 122
Width: 631
GlyphClass: 2
Flags: HMW
HStem: 0 21G<240 240 240 392> 690 20G<-7 161 161 161 470 638 638 638>
VStem: 240 152<0 276 0 276>
AnchorPoint: "Anchor-3" 378.596 710 basechar 0
AnchorPoint: "Anchor-0" 253.404 0 basechar 0
LayerCount: 2
Fore
SplineSet
177.404296875 0 m 1
 226.0703125 276 l 1
 55.595703125 710 l 1
 223.595703125 710 l 1
 328.166992188 424 l 1
 532.595703125 710 l 1
 700.595703125 710 l 1
 378.0703125 276 l 1
 329.404296875 0 l 1
 177.404296875 0 l 1
EndSplineSet
Validated: 1
EndChar

StartChar: Yacute
Encoding: 221 221 123
Width: 631
GlyphClass: 2
Flags: HMW
HStem: 0 21G<240 240 240 392> 690 20G<-7 161 161 161 470 638 638 638> 765 148<248 452 307 362>
VStem: 240 152<0 276 0 276>
AnchorPoint: "Anchor-3" 360.699 710 basechar 0
AnchorPoint: "Anchor-0" 235.507 0 basechar 0
LayerCount: 2
Fore
SplineSet
302.396484375 765 m 1
 387.493164062 913 l 1
 532.493164062 913 l 1
 416.396484375 765 l 1
 302.396484375 765 l 1
159.506835938 0 m 1
 208.172851562 276 l 1
 37.69921875 710 l 1
 205.69921875 710 l 1
 310.26953125 424 l 1
 514.69921875 710 l 1
 682.69921875 710 l 1
 360.172851562 276 l 1
 311.506835938 0 l 1
 159.506835938 0 l 1
EndSplineSet
Validated: 1
EndChar

StartChar: Ycircumflex
Encoding: 374 374 124
Width: 631
GlyphClass: 2
Flags: HMW
HStem: 0 21G<240 240 240 392> 690 20G<-7 161 161 161 470 638 638 638> 765 153<148 388 244 253 380 380 380 388 244 484>
VStem: 240 152<0 276 0 276>
AnchorPoint: "Anchor-3" 360.258 710 basechar 0
AnchorPoint: "Anchor-0" 235.065 0 basechar 0
LayerCount: 2
Fore
SplineSet
201.956054688 765 m 1
 324.934570312 918 l 1
 468.934570312 918 l 1
 537.956054688 765 l 1
 433.956054688 765 l 1
 385.649414062 854 l 1
 306.956054688 765 l 1
 201.956054688 765 l 1
159.065429688 0 m 1
 207.732421875 276 l 1
 37.2578125 710 l 1
 205.2578125 710 l 1
 309.828125 424 l 1
 514.2578125 710 l 1
 682.2578125 710 l 1
 359.732421875 276 l 1
 311.065429688 0 l 1
 159.065429688 0 l 1
EndSplineSet
Validated: 1
EndChar

StartChar: Ydieresis
Encoding: 376 376 125
Width: 631
GlyphClass: 2
Flags: HMW
HStem: 0 21G<240 240 240 392> 690 20G<-7 161 161 161 470 638 638 638> 773 121<137 280 137 280 352 495 137 352>
VStem: 137 143<773 894 773 894> 240 152<0 276 0 276> 352 143<773 894 773 894>
AnchorPoint: "Anchor-3" 362.374 710 basechar 0
AnchorPoint: "Anchor-0" 237.182 0 basechar 0
LayerCount: 2
Fore
SplineSet
194.482421875 773 m 1xf4
 215.818359375 894 l 1
 358.818359375 894 l 1
 337.482421875 773 l 1
 194.482421875 773 l 1xf4
409.482421875 773 m 1
 430.818359375 894 l 1
 573.818359375 894 l 1
 552.482421875 773 l 1
 409.482421875 773 l 1
161.181640625 0 m 1xe8
 209.84765625 276 l 1
 39.3740234375 710 l 1
 207.374023438 710 l 1
 311.944335938 424 l 1
 516.374023438 710 l 1
 684.374023438 710 l 1
 361.84765625 276 l 1
 313.181640625 0 l 1
 161.181640625 0 l 1xe8
EndSplineSet
Validated: 1
Substitution2: "'ss08' Style Set 8 in Latin lookup 41 subtable" Ydieresis.ss08
Substitution2: "'aalt' Access All Alternates in Latin lookup 0 subtable" Ydieresis.ss08
EndChar

StartChar: Ygrave
Encoding: 7922 7922 126
Width: 631
GlyphClass: 2
Flags: HMW
HStem: 0 21G<240 240 240 392> 690 20G<-7 161 161 161 470 638 638 638> 772 147<268 268 268 324 178 383>
VStem: 240 152<0 276 0 276>
AnchorPoint: "Anchor-3" 360.17 710 basechar 0
AnchorPoint: "Anchor-0" 234.978 0 basechar 0
LayerCount: 2
Fore
SplineSet
323.102539062 772 m 1
 259.022460938 919 l 1
 405.022460938 919 l 1
 438.102539062 772 l 1
 323.102539062 772 l 1
158.977539062 0 m 1
 207.643554688 276 l 1
 37.169921875 710 l 1
 205.169921875 710 l 1
 309.740234375 424 l 1
 514.169921875 710 l 1
 682.169921875 710 l 1
 359.643554688 276 l 1
 310.977539062 0 l 1
 158.977539062 0 l 1
EndSplineSet
Validated: 1
EndChar

StartChar: uni1EF8
Encoding: 7928 7928 127
Width: 631
GlyphClass: 2
Flags: HMW
HStem: 0 21G<240 240 240 392> 690 20G<-7 161 161 161 470 638 638 638> 769 142<144 271 144 271> 774 89<369 385 369 408.5> 774 144<356.5 487> 822 89<247.5 264>
VStem: 144 75<769 769> 240 152<0 276 0 276> 412 75<918 918>
AnchorPoint: "Anchor-3" 360.258 710 basechar 0
AnchorPoint: "Anchor-0" 235.065 0 basechar 0
LayerCount: 2
Fore
SplineSet
427.54296875 774 m 0xc880
 396.54296875 774 378.954101562 782 356.833007812 804 c 0
 343.94921875 816 335.006835938 822 321.006835938 822 c 0xc6
 302.006835938 822 283.890625 810 273.661132812 769 c 1
 198.661132812 769 l 1
 215.001953125 856 265.700195312 911 334.700195312 911 c 0xe2
 366.700195312 911 388.11328125 902 410.41015625 881 c 0
 425.293945312 869 434.236328125 863 446.236328125 863 c 0xd080
 466.236328125 863 482.3515625 875 492.934570312 918 c 1
 567.934570312 918 l 1
 550.416992188 830 500.54296875 774 427.54296875 774 c 0xc880
159.065429688 0 m 1xe1
 207.732421875 276 l 1
 37.2578125 710 l 1
 205.2578125 710 l 1
 309.828125 424 l 1
 514.2578125 710 l 1
 682.2578125 710 l 1
 359.732421875 276 l 1
 311.065429688 0 l 1
 159.065429688 0 l 1xe1
EndSplineSet
Validated: 1
EndChar

StartChar: Z
Encoding: 90 90 128
Width: 594
GlyphClass: 2
Flags: HMW
HStem: 0 128<209 567 209 567> 582 128<43 365 43 554>
VStem: 27 540<0 124 124 124>
AnchorPoint: "Anchor-3" 368.596 710 basechar 0
AnchorPoint: "Anchor-0" 243.404 0 basechar 0
LayerCount: 2
Fore
SplineSet
-35.595703125 0 m 1
 -13.7314453125 124 l 1
 405.026367188 582 l 1
 83.0263671875 582 l 1
 105.595703125 710 l 1
 616.595703125 710 l 1
 594.731445312 586 l 1
 168.973632812 128 l 1
 526.973632812 128 l 1
 504.404296875 0 l 1
 -35.595703125 0 l 1
EndSplineSet
Validated: 1
EndChar

StartChar: Zacute
Encoding: 377 377 129
Width: 594
GlyphClass: 2
Flags: HMW
HStem: 0 128<209 567 209 567> 582 128<43 365 43 554> 765 148<238 442 296 352>
VStem: 27 540<0 124 124 124>
AnchorPoint: "Anchor-3" 350.699 710 basechar 0
AnchorPoint: "Anchor-0" 225.507 0 basechar 0
LayerCount: 2
Fore
SplineSet
292.396484375 765 m 1
 376.493164062 913 l 1
 522.493164062 913 l 1
 406.396484375 765 l 1
 292.396484375 765 l 1
-53.4931640625 0 m 1
 -31.62890625 124 l 1
 387.12890625 582 l 1
 65.12890625 582 l 1
 87.69921875 710 l 1
 598.69921875 710 l 1
 576.833984375 586 l 1
 151.076171875 128 l 1
 509.076171875 128 l 1
 486.506835938 0 l 1
 -53.4931640625 0 l 1
EndSplineSet
Validated: 1
EndChar

StartChar: Zcaron
Encoding: 381 381 130
Width: 594
GlyphClass: 2
Flags: HMW
HStem: 0 128<209 567 209 567> 582 128<43 365 43 554> 765 153<234 242 369 378 234 234>
VStem: 27 540<0 124 124 124>
AnchorPoint: "Anchor-3" 350.258 710 basechar 0
AnchorPoint: "Anchor-0" 225.065 0 basechar 0
LayerCount: 2
Fore
SplineSet
218.934570312 918 m 1
 322.934570312 918 l 1
 371.241210938 829 l 1
 449.934570312 918 l 1
 554.934570312 918 l 1
 431.956054688 765 l 1
 287.956054688 765 l 1
 218.934570312 918 l 1
-53.9345703125 0 m 1
 -32.0693359375 124 l 1
 386.688476562 582 l 1
 64.6884765625 582 l 1
 87.2578125 710 l 1
 598.2578125 710 l 1
 576.393554688 586 l 1
 150.635742188 128 l 1
 508.635742188 128 l 1
 486.065429688 0 l 1
 -53.9345703125 0 l 1
EndSplineSet
Validated: 1
EndChar

StartChar: Zdotaccent
Encoding: 379 379 131
Width: 594
GlyphClass: 2
Flags: HMW
HStem: 0 128<209 567 209 567> 582 128<43 365 43 554> 776 120<228 383 228 383>
VStem: 228 155<776 896 776 896>
AnchorPoint: "Anchor-3" 352.197 710 basechar 0
AnchorPoint: "Anchor-0" 227.006 0 basechar 0
LayerCount: 2
Fore
SplineSet
285.834960938 776 m 1
 306.994140625 896 l 1
 461.994140625 896 l 1
 440.834960938 776 l 1
 285.834960938 776 l 1
-51.994140625 0 m 1
 -30.1298828125 124 l 1
 388.627929688 582 l 1
 66.6279296875 582 l 1
 89.197265625 710 l 1
 600.197265625 710 l 1
 578.333007812 586 l 1
 152.575195312 128 l 1
 510.575195312 128 l 1
 488.005859375 0 l 1
 -51.994140625 0 l 1
EndSplineSet
Validated: 1
Substitution2: "'ss08' Style Set 8 in Latin lookup 41 subtable" Zdotaccent.ss08
Substitution2: "'aalt' Access All Alternates in Latin lookup 0 subtable" Zdotaccent.ss08
EndChar

StartChar: uniA78B
Encoding: 42891 42891 132
Width: 226
GlyphClass: 1
Flags: HMW
HStem: 690 20G<42 184 184 184>
VStem: 42 142<570 710 570 710>
LayerCount: 2
Fore
SplineSet
21.498046875 330 m 1
 50.81640625 570 l 1
 75.501953125 710 l 1
 217.501953125 710 l 1
 192.81640625 570 l 1
 137.498046875 330 l 1
 21.498046875 330 l 1
EndSplineSet
Validated: 1
EndChar

StartChar: uni013B.loclMAH
Encoding: 65538 -1 133
Width: 589
GlyphClass: 2
Flags: HMW
HStem: -165 116<249 283 249 379> 0 128<226 553 226 553> 690 20G<74 226 226 226>
VStem: 74 152<128 710 128 710 128 710> 249 130<-154 -49 -154 -49 -154 -49>
AnchorPoint: "Anchor-4" 416.221 536 basechar 0
AnchorPoint: "Anchor-3" 234.901 710 basechar 0
AnchorPoint: "Anchor-1" 210.714 380 basechar 0
AnchorPoint: "Anchor-0" 229.099 -253 basechar 0
LayerCount: 2
Fore
SplineSet
33.708984375 0 m 1
 158.901367188 710 l 1
 310.901367188 710 l 1
 208.279296875 128 l 1
 535.279296875 128 l 1
 512.708984375 0 l 1
 33.708984375 0 l 1
146.098632812 -253 m 1
 213.615234375 -165 l 1
 179.615234375 -165 l 1
 200.069335938 -49 l 1
 330.069335938 -49 l 1
 311.5546875 -154 l 1xe8
 234.098632812 -253 l 1
 146.098632812 -253 l 1
EndSplineSet
Validated: 1
EndChar

StartChar: uni0145.loclMAH
Encoding: 65539 -1 134
Width: 750
GlyphClass: 2
Flags: HMW
HStem: -165 116<306 341 306 436> 0 21G<74 74 74 226 506 506 506 676> 690 20G<74 242 242 242 524 676 676 676>
VStem: 74 152<0 473 0 710> 306 130<-154 -49 -154 -49 -154 -49> 524 152<220 710 0 710>
AnchorPoint: "Anchor-3" 465.901 710 basechar 0
AnchorPoint: "Anchor-0" 286.099 -253 basechar 0
LayerCount: 2
Fore
SplineSet
33.708984375 0 m 1
 158.901367188 710 l 1
 326.901367188 710 l 1
 522.500976562 220 l 1
 608.901367188 710 l 1
 760.901367188 710 l 1
 635.708984375 0 l 1
 465.708984375 0 l 1
 269.112304688 473 l 1
 185.708984375 0 l 1
 33.708984375 0 l 1
204.098632812 -253 m 1
 271.615234375 -165 l 1
 236.615234375 -165 l 1
 257.069335938 -49 l 1
 387.069335938 -49 l 1
 368.5546875 -154 l 1
 292.098632812 -253 l 1
 204.098632812 -253 l 1
EndSplineSet
Validated: 1
EndChar

StartChar: R.ss04
Encoding: 65540 -1 135
Width: 709
GlyphClass: 2
Flags: HMW
HStem: 0 21G<74 74 74 226 494 494 494 658> 261 126<226 349 349 356 226 349> 582 128<226 349 226 226>
VStem: 74 152<0 261 387 582> 476 155<452 516>
AnchorPoint: "Anchor-3" 404.596 710 basechar 0
AnchorPoint: "Anchor-0" 279.404 0 basechar 0
LayerCount: 2
Fore
SplineSet
11.404296875 0 m 1
 136.595703125 710 l 1
 420.595703125 710 l 2
 594.595703125 710 679.137695312 628 653.922851562 485 c 0
 637.876953125 394 580.65234375 319 487.186523438 288 c 1
 595.404296875 0 l 1
 431.404296875 0 l 1
 339.424804688 261 l 1
 209.424804688 261 l 1
 163.404296875 0 l 1
 11.404296875 0 l 1
231.642578125 387 m 1
 354.642578125 387 l 2
 431.642578125 387 487.4609375 420 498.74609375 484 c 0
 510.03125 548 466.026367188 582 389.026367188 582 c 2
 266.026367188 582 l 1
 231.642578125 387 l 1
EndSplineSet
Validated: 33
EndChar

StartChar: Racute.ss04
Encoding: 65541 -1 136
Width: 709
GlyphClass: 2
Flags: HMW
HStem: 0 21G<74 74 74 226 494 494 494 658> 261 126<226 349 349 356 226 349> 582 128<226 349 226 226> 765 148<274 478 333 388>
VStem: 74 152<0 261 387 582> 476 155<452 516>
AnchorPoint: "Anchor-3" 386.699 710 basechar 0
AnchorPoint: "Anchor-0" 261.507 0 basechar 0
LayerCount: 2
Fore
SplineSet
328.396484375 765 m 1
 413.493164062 913 l 1
 558.493164062 913 l 1
 442.396484375 765 l 1
 328.396484375 765 l 1
-6.4931640625 0 m 1
 118.69921875 710 l 1
 402.69921875 710 l 2
 576.69921875 710 661.240234375 628 636.025390625 485 c 0
 619.979492188 394 562.754882812 319 469.2890625 288 c 1
 577.506835938 0 l 1
 413.506835938 0 l 1
 321.528320312 261 l 1
 191.528320312 261 l 1
 145.506835938 0 l 1
 -6.4931640625 0 l 1
213.745117188 387 m 1
 336.745117188 387 l 2
 413.745117188 387 469.564453125 420 480.848632812 484 c 0
 492.133789062 548 448.12890625 582 371.12890625 582 c 2
 248.12890625 582 l 1
 213.745117188 387 l 1
EndSplineSet
Validated: 33
EndChar

StartChar: Rcaron.ss04
Encoding: 65542 -1 137
Width: 709
GlyphClass: 2
Flags: HMW
HStem: 0 21G<74 74 74 226 494 494 494 658> 261 126<226 349 349 356 226 349> 582 128<226 349 226 226> 765 153<270 279 406 414 270 270>
VStem: 74 152<0 261 387 582> 476 155<452 516>
AnchorPoint: "Anchor-3" 386.258 710 basechar 0
AnchorPoint: "Anchor-0" 261.065 0 basechar 0
LayerCount: 2
Fore
SplineSet
254.934570312 918 m 1
 359.934570312 918 l 1
 407.241210938 829 l 1
 486.934570312 918 l 1
 590.934570312 918 l 1
 467.956054688 765 l 1
 323.956054688 765 l 1
 254.934570312 918 l 1
-6.9345703125 0 m 1
 118.2578125 710 l 1
 402.2578125 710 l 2
 576.2578125 710 660.798828125 628 635.584960938 485 c 0
 619.5390625 394 562.314453125 319 468.84765625 288 c 1
 577.065429688 0 l 1
 413.065429688 0 l 1
 321.086914062 261 l 1
 191.086914062 261 l 1
 145.065429688 0 l 1
 -6.9345703125 0 l 1
213.3046875 387 m 1
 336.3046875 387 l 2
 413.3046875 387 469.123046875 420 480.408203125 484 c 0
 491.693359375 548 447.688476562 582 370.688476562 582 c 2
 247.688476562 582 l 1
 213.3046875 387 l 1
EndSplineSet
Validated: 33
EndChar

StartChar: uni0156.ss04
Encoding: 65543 -1 138
Width: 709
GlyphClass: 2
Flags: HMW
HStem: -165 116<277 312 277 407> 0 21G<74 74 74 226 494 494 494 658> 261 126<226 349 349 356 226 349> 582 128<226 349 226 226>
VStem: 74 152<0 261 387 582> 277 130<-154 -49 -154 -49 -154 -49> 476 155<452 516>
AnchorPoint: "Anchor-3" 426.901 710 basechar 0
AnchorPoint: "Anchor-0" 257.099 -253 basechar 0
LayerCount: 2
Fore
SplineSet
33.708984375 0 m 1
 158.901367188 710 l 1
 442.901367188 710 l 2
 616.901367188 710 701.442382812 628 676.227539062 485 c 0
 660.181640625 394 602.958007812 319 509.491210938 288 c 1
 617.708984375 0 l 1
 453.708984375 0 l 1
 361.73046875 261 l 1
 231.73046875 261 l 1
 185.708984375 0 l 1
 33.708984375 0 l 1
253.948242188 387 m 1
 376.948242188 387 l 2
 453.948242188 387 509.766601562 420 521.051757812 484 c 0
 532.336914062 548 488.33203125 582 411.33203125 582 c 2
 288.33203125 582 l 1
 253.948242188 387 l 1
175.098632812 -253 m 1
 242.615234375 -165 l 1
 207.615234375 -165 l 1
 228.069335938 -49 l 1
 358.069335938 -49 l 1
 339.5546875 -154 l 1
 263.098632812 -253 l 1
 175.098632812 -253 l 1
EndSplineSet
Validated: 33
EndChar

StartChar: I.ss05
Encoding: 65544 -1 139
Width: 472
GlyphClass: 2
Flags: HMW
HStem: 0 128<42 160 42 160 312 430> 582 128<48 160 48 424 312 312 312 424>
VStem: 160 152<128 582 128 582>
AnchorPoint: "Anchor-3" 298.596 710 basechar 0
AnchorPoint: "Anchor-2" 367.404 0 basechar 0
AnchorPoint: "Anchor-0" 173.404 0 basechar 0
LayerCount: 2
Fore
SplineSet
-20.595703125 0 m 1
 1.9736328125 128 l 1
 119.973632812 128 l 1
 200.026367188 582 l 1
 88.0263671875 582 l 1
 110.595703125 710 l 1
 486.595703125 710 l 1
 464.026367188 582 l 1
 352.026367188 582 l 1
 271.973632812 128 l 1
 389.973632812 128 l 1
 367.404296875 0 l 1
 -20.595703125 0 l 1
EndSplineSet
Validated: 1
EndChar

StartChar: Iacute.ss05
Encoding: 65545 -1 140
Width: 472
GlyphClass: 2
Flags: HMW
HStem: 0 128<42 160 42 160 312 430> 582 128<48 160 48 424 312 312 312 424> 765 148<168 372 226 282>
VStem: 160 152<128 582 128 582>
AnchorPoint: "Anchor-3" 280.699 710 basechar 0
AnchorPoint: "Anchor-2" 349.507 0 basechar 0
AnchorPoint: "Anchor-0" 155.507 0 basechar 0
LayerCount: 2
Fore
SplineSet
222.396484375 765 m 1
 306.493164062 913 l 1
 452.493164062 913 l 1
 336.396484375 765 l 1
 222.396484375 765 l 1
-38.4931640625 0 m 1
 -15.923828125 128 l 1
 102.076171875 128 l 1
 182.12890625 582 l 1
 70.12890625 582 l 1
 92.69921875 710 l 1
 468.69921875 710 l 1
 446.12890625 582 l 1
 334.12890625 582 l 1
 254.076171875 128 l 1
 372.076171875 128 l 1
 349.506835938 0 l 1
 -38.4931640625 0 l 1
EndSplineSet
Validated: 1
EndChar

StartChar: Icircumflex.ss05
Encoding: 65546 -1 141
Width: 472
GlyphClass: 2
Flags: HMW
HStem: 0 128<42 160 42 160 312 430> 582 128<48 160 48 424 312 312 312 424> 765 153<68 308 164 172 299 299 299 308 164 404>
VStem: 160 152<128 582 128 582>
AnchorPoint: "Anchor-3" 280.258 710 basechar 0
AnchorPoint: "Anchor-2" 349.065 0 basechar 0
AnchorPoint: "Anchor-0" 155.065 0 basechar 0
LayerCount: 2
Fore
SplineSet
121.956054688 765 m 1
 244.934570312 918 l 1
 388.934570312 918 l 1
 457.956054688 765 l 1
 352.956054688 765 l 1
 305.649414062 854 l 1
 225.956054688 765 l 1
 121.956054688 765 l 1
-38.9345703125 0 m 1
 -16.3642578125 128 l 1
 101.635742188 128 l 1
 181.688476562 582 l 1
 69.6884765625 582 l 1
 92.2578125 710 l 1
 468.2578125 710 l 1
 445.688476562 582 l 1
 333.688476562 582 l 1
 253.635742188 128 l 1
 371.635742188 128 l 1
 349.065429688 0 l 1
 -38.9345703125 0 l 1
EndSplineSet
Validated: 1
EndChar

StartChar: Idieresis.ss05
Encoding: 65547 -1 142
Width: 472
GlyphClass: 2
Flags: HMW
HStem: 0 128<42 160 42 160 312 430> 582 128<48 160 48 424 312 312 312 424> 773 121<57 200 57 200 272 415 57 272>
VStem: 48 152<582 894 710 894> 57 143<773 894 773 894> 160 152<128 582 128 582> 272 143<773 894 773 894> 272 152<582 894>
AnchorPoint: "Anchor-3" 282.374 710 basechar 0
AnchorPoint: "Anchor-2" 351.182 0 basechar 0
AnchorPoint: "Anchor-0" 157.182 0 basechar 0
LayerCount: 2
Fore
SplineSet
114.482421875 773 m 1xea
 135.818359375 894 l 1
 278.818359375 894 l 1
 257.482421875 773 l 1
 114.482421875 773 l 1xea
329.482421875 773 m 1
 350.818359375 894 l 1
 493.818359375 894 l 1
 472.482421875 773 l 1
 329.482421875 773 l 1
-36.818359375 0 m 1
 -14.248046875 128 l 1
 103.751953125 128 l 1
 183.803710938 582 l 1xe4
 71.8037109375 582 l 1
 94.3740234375 710 l 1
 470.374023438 710 l 1
 447.803710938 582 l 1xf1
 335.803710938 582 l 1
 255.751953125 128 l 1xe4
 373.751953125 128 l 1
 351.181640625 0 l 1
 -36.818359375 0 l 1
EndSplineSet
Validated: 1
Substitution2: "'ss08' Style Set 8 in Latin lookup 41 subtable" Idieresis.ss05.ss08
Substitution2: "'aalt' Access All Alternates in Latin lookup 0 subtable" Idieresis.ss05.ss08
EndChar

StartChar: Idotaccent.ss05
Encoding: 65548 -1 143
Width: 472
GlyphClass: 2
Flags: HMW
HStem: 0 128<42 160 42 160 312 430> 582 128<48 160 48 424 312 312 312 424> 776 120<158 313 158 313>
VStem: 158 155<776 896 776 896> 160 152<128 582 128 582>
AnchorPoint: "Anchor-3" 282.197 710 basechar 0
AnchorPoint: "Anchor-2" 351.006 0 basechar 0
AnchorPoint: "Anchor-0" 157.006 0 basechar 0
LayerCount: 2
Fore
SplineSet
215.834960938 776 m 1xf0
 236.994140625 896 l 1
 391.994140625 896 l 1
 370.834960938 776 l 1
 215.834960938 776 l 1xf0
-36.994140625 0 m 1
 -14.4248046875 128 l 1
 103.575195312 128 l 1
 183.627929688 582 l 1
 71.6279296875 582 l 1
 94.197265625 710 l 1
 470.197265625 710 l 1
 447.627929688 582 l 1
 335.627929688 582 l 1
 255.575195312 128 l 1xe8
 373.575195312 128 l 1
 351.005859375 0 l 1
 -36.994140625 0 l 1
EndSplineSet
Validated: 1
Substitution2: "'ss08' Style Set 8 in Latin lookup 41 subtable" Idotaccent.ss05.ss08
Substitution2: "'aalt' Access All Alternates in Latin lookup 0 subtable" Idotaccent.ss05.ss08
EndChar

StartChar: Igrave.ss05
Encoding: 65549 -1 144
Width: 472
GlyphClass: 2
Flags: HMW
HStem: 0 128<42 160 42 160 312 430> 582 128<48 160 48 424 312 312 312 424> 772 147<188 188 188 244 98 302>
VStem: 160 152<128 582 128 582>
AnchorPoint: "Anchor-3" 280.17 710 basechar 0
AnchorPoint: "Anchor-2" 348.978 0 basechar 0
AnchorPoint: "Anchor-0" 154.978 0 basechar 0
LayerCount: 2
Fore
SplineSet
243.102539062 772 m 1
 179.022460938 919 l 1
 325.022460938 919 l 1
 357.102539062 772 l 1
 243.102539062 772 l 1
-39.0224609375 0 m 1
 -16.4521484375 128 l 1
 101.547851562 128 l 1
 181.599609375 582 l 1
 69.599609375 582 l 1
 92.169921875 710 l 1
 468.169921875 710 l 1
 445.599609375 582 l 1
 333.599609375 582 l 1
 253.547851562 128 l 1
 371.547851562 128 l 1
 348.977539062 0 l 1
 -39.0224609375 0 l 1
EndSplineSet
Validated: 1
EndChar

StartChar: Imacron.ss05
Encoding: 65550 -1 145
Width: 472
GlyphClass: 2
Flags: HMW
HStem: 0 128<42 160 42 160 312 430> 582 128<48 160 48 424 312 312 312 424> 781 110<86 385 86 385>
VStem: 86 299<781 891 781 891> 160 152<128 582 128 582>
AnchorPoint: "Anchor-3" 282.639 710 basechar 0
AnchorPoint: "Anchor-2" 351.446 0 basechar 0
AnchorPoint: "Anchor-0" 157.446 0 basechar 0
LayerCount: 2
Fore
SplineSet
145.157226562 781 m 1xf0
 164.553710938 891 l 1
 463.553710938 891 l 1
 444.157226562 781 l 1
 145.157226562 781 l 1xf0
-36.5537109375 0 m 1
 -13.9833984375 128 l 1
 104.016601562 128 l 1
 184.068359375 582 l 1
 72.068359375 582 l 1
 94.638671875 710 l 1
 470.638671875 710 l 1
 448.068359375 582 l 1
 336.068359375 582 l 1
 256.016601562 128 l 1xe8
 374.016601562 128 l 1
 351.446289062 0 l 1
 -36.5537109375 0 l 1
EndSplineSet
Validated: 1
EndChar

StartChar: Iogonek.ss05
Encoding: 65551 -1 146
Width: 472
GlyphClass: 2
Flags: HMW
HStem: -217 89<325 403> 0 128<42 160 42 160 42 312> 582 128<48 160 48 424 312 312 312 424>
VStem: 160 152<128 582> 247 121<-159.5 -94.5> 247 183<-159.5 128>
AnchorPoint: "Anchor-3" 317.728 710 basechar 0
AnchorPoint: "Anchor-2" 386.535 0 basechar 0
AnchorPoint: "Anchor-0" 192.535 0 basechar 0
LayerCount: 2
Fore
SplineSet
-1.46484375 0 m 1xe8
 21.10546875 128 l 1
 139.10546875 128 l 1
 219.157226562 582 l 1
 107.157226562 582 l 1
 129.727539062 710 l 1
 505.727539062 710 l 1
 483.157226562 582 l 1
 371.157226562 582 l 1
 291.10546875 128 l 1x70
 409.10546875 128 l 1
 386.53515625 0 l 1x64
 349.482421875 -40 l 2
 324.897460938 -66 309.37109375 -86 306.374023438 -103 c 0
 303.552734375 -119 313.965820312 -128 327.965820312 -128 c 0
 345.965820312 -128 364.0234375 -122 375.2578125 -115 c 1
 389.857421875 -191 l 1
 369.211914062 -206 321.272460938 -217 279.272460938 -217 c 0
 207.272460938 -217 170.5625 -187 180.259765625 -132 c 0
 187.489257812 -91 219.366210938 -52 250.008789062 -20 c 2
 268.53515625 0 l 1
 -1.46484375 0 l 1xe8
EndSplineSet
Validated: 33
EndChar

StartChar: Itilde.ss05
Encoding: 65552 -1 147
Width: 472
GlyphClass: 2
Flags: HMW
HStem: 0 128<42 160 42 160 312 430> 582 128<48 160 48 424 312 312 312 424> 769 142<64 191 64 191> 774 89<288.5 305 288.5 328> 774 144<276.5 407> 822 89<167.5 184>
VStem: 48 91<582 769 710 769> 64 75<769 769> 160 152<128 582 128 582> 332 75<918 918>
AnchorPoint: "Anchor-3" 280.258 710 basechar 0
AnchorPoint: "Anchor-2" 349.065 0 basechar 0
AnchorPoint: "Anchor-0" 155.065 0 basechar 0
LayerCount: 2
Fore
SplineSet
347.54296875 774 m 0xc840
 316.54296875 774 297.954101562 782 276.833007812 804 c 0
 263.94921875 816 255.006835938 822 241.006835938 822 c 0xc5
 222.006835938 822 203.890625 810 193.661132812 769 c 1
 118.661132812 769 l 1
 135.001953125 856 185.700195312 911 254.700195312 911 c 0xe1
 286.700195312 911 308.11328125 902 330.41015625 881 c 0
 344.293945312 869 353.236328125 863 366.236328125 863 c 0xd040
 386.236328125 863 402.3515625 875 412.934570312 918 c 1
 487.934570312 918 l 1
 470.416992188 830 419.54296875 774 347.54296875 774 c 0xc840
-38.9345703125 0 m 1
 -16.3642578125 128 l 1
 101.635742188 128 l 1
 181.688476562 582 l 1xc080
 69.6884765625 582 l 1
 92.2578125 710 l 1xc2
 468.2578125 710 l 1
 445.688476562 582 l 1
 333.688476562 582 l 1
 253.635742188 128 l 1xc080
 371.635742188 128 l 1
 349.065429688 0 l 1
 -38.9345703125 0 l 1
EndSplineSet
Validated: 1
EndChar

StartChar: G.ss06
Encoding: 65553 -1 148
Width: 728
GlyphClass: 2
Flags: HMW
HStem: -16 128<317.5 428.5 317.5 476> 258 111<380 542 380 691> 598 128<318.5 429>
VStem: 42 157<283 423.5 283 459.5> 380 311<258 327 327 369 213.5 369> 542 149<258 258>
AnchorPoint: "Anchor-3" 443.596 710 basechar 0
AnchorPoint: "Anchor-0" 321.404 0 basechar 0
LayerCount: 2
Fore
SplineSet
315.583007812 -16 m 0xf4
 90.5830078125 -16 4.619140625 143 41.8232421875 354 c 0
 79.0283203125 565 230.416992188 726 450.416992188 726 c 0
 622.416992188 726 709.666015625 631 710.51171875 477 c 1
 552.27734375 470 l 1
 552.03125 548 518.84765625 598 424.84765625 598 c 0
 297.84765625 598 223.333007812 493 198.823242188 354 c 0
 173.78515625 212 214.15234375 112 335.15234375 112 c 0
 436.15234375 112 502.555664062 171 524.896484375 258 c 1xf4
 362.896484375 258 l 1
 382.46875 369 l 1xf8
 693.46875 369 l 1
 686.0625 327 l 2
 646.036132812 100 505.583007812 -16 315.583007812 -16 c 0xf4
EndSplineSet
Validated: 33
EndChar

StartChar: Gbreve.ss06
Encoding: 65554 -1 149
Width: 728
GlyphClass: 2
Flags: HMW
HStem: -16 128<317.5 428.5 317.5 476> 258 111<380 542 380 691> 598 128<318.5 429> 766 82<361 401 361 427.5> 766 147<224 427.5>
VStem: 42 157<283 423.5 283 459.5> 380 311<258 327 327 369 213.5 369> 542 149<258 258>
AnchorPoint: "Anchor-3" 427.109 710 basechar 0
AnchorPoint: "Anchor-0" 304.917 0 basechar 0
LayerCount: 2
Fore
SplineSet
436.983398438 766 m 0xee
 343.983398438 766 293.329101562 819 305.904296875 913 c 1xed
 392.904296875 913 l 1
 389.79296875 867 411.442382812 848 451.442382812 848 c 0xf5
 491.442382812 848 519.79296875 867 532.904296875 913 c 1
 619.904296875 913 l 1
 599.329101562 819 529.983398438 766 436.983398438 766 c 0xee
299.095703125 -16 m 0
 74.095703125 -16 -11.8681640625 143 25.3369140625 354 c 0
 62.5419921875 565 213.930664062 726 433.930664062 726 c 0
 605.930664062 726 693.1796875 631 694.025390625 477 c 1
 535.791015625 470 l 1
 535.544921875 548 502.361328125 598 408.361328125 598 c 0
 281.361328125 598 206.846679688 493 182.336914062 354 c 0
 157.298828125 212 197.666015625 112 318.666015625 112 c 0
 419.666015625 112 486.069335938 171 508.41015625 258 c 1xf5
 346.41015625 258 l 1
 365.982421875 369 l 1xf6
 676.982421875 369 l 1
 669.576171875 327 l 2
 629.549804688 100 489.095703125 -16 299.095703125 -16 c 0
EndSplineSet
Validated: 33
EndChar

StartChar: Gcircumflex.ss06
Encoding: 65555 -1 150
Width: 728
GlyphClass: 2
Flags: HMW
HStem: -16 128<317.5 428.5 317.5 476> 258 111<380 542 380 691> 598 128<318.5 429> 765 153<213 453 309 318 445 445 445 453 309 549>
VStem: 42 157<283 423.5 283 459.5> 380 311<258 327 327 369 213.5 369> 542 149<258 258>
AnchorPoint: "Anchor-3" 426.669 710 basechar 0
AnchorPoint: "Anchor-0" 304.477 0 basechar 0
LayerCount: 2
Fore
SplineSet
268.366210938 765 m 1xfa
 391.344726562 918 l 1
 535.344726562 918 l 1
 604.366210938 765 l 1
 500.366210938 765 l 1
 452.059570312 854 l 1
 373.366210938 765 l 1
 268.366210938 765 l 1xfa
298.655273438 -16 m 0
 73.6552734375 -16 -12.30859375 143 24.896484375 354 c 0
 62.1015625 565 213.490234375 726 433.490234375 726 c 0
 605.490234375 726 692.739257812 631 693.584960938 477 c 1
 535.350585938 470 l 1
 535.103515625 548 501.919921875 598 407.919921875 598 c 0
 280.919921875 598 206.405273438 493 181.896484375 354 c 0
 156.857421875 212 197.225585938 112 318.225585938 112 c 0
 419.225585938 112 485.62890625 171 507.96875 258 c 1xfa
 345.96875 258 l 1
 365.541015625 369 l 1xfc
 676.541015625 369 l 1
 669.135742188 327 l 2
 629.109375 100 488.655273438 -16 298.655273438 -16 c 0
EndSplineSet
Validated: 33
EndChar

StartChar: uni0122.ss06
Encoding: 65556 -1 151
Width: 728
GlyphClass: 2
Flags: HMW
HStem: -165 116<319 354 319 449> -16 128<317.5 428.5 317.5 476> 258 111<380 542 380 691> 598 128<318.5 429>
VStem: 42 157<283 423.5 283 459.5> 319 130<-154 -49 -154 -49 -154 -49> 380 311<258 327 327 369 213.5 369> 542 149<258 258>
AnchorPoint: "Anchor-3" 464.491 710 basechar 0
AnchorPoint: "Anchor-0" 297.688 -253 basechar 0
LayerCount: 2
Fore
SplineSet
336.477539062 -16 m 0xfd
 111.477539062 -16 25.513671875 143 62.71875 354 c 0
 99.923828125 565 251.3125 726 471.3125 726 c 0
 643.3125 726 730.560546875 631 731.40625 477 c 1
 573.171875 470 l 1
 572.92578125 548 539.7421875 598 445.7421875 598 c 0
 318.7421875 598 244.227539062 493 219.71875 354 c 0
 194.6796875 212 235.046875 112 356.046875 112 c 0
 457.046875 112 523.450195312 171 545.791015625 258 c 1xfd
 383.791015625 258 l 1
 403.36328125 369 l 1xfa
 714.36328125 369 l 1
 706.958007812 327 l 2
 666.931640625 100 526.477539062 -16 336.477539062 -16 c 0xfd
215.6875 -253 m 1
 283.205078125 -165 l 1
 248.205078125 -165 l 1
 268.658203125 -49 l 1
 398.658203125 -49 l 1
 380.14453125 -154 l 1
 303.6875 -253 l 1
 215.6875 -253 l 1
EndSplineSet
Validated: 33
EndChar

StartChar: Gdotaccent.ss06
Encoding: 65557 -1 152
Width: 728
GlyphClass: 2
Flags: HMW
HStem: -16 128<317.5 428.5 317.5 476> 258 111<380 542 380 691> 598 128<318.5 429> 776 120<304 459 304 459>
VStem: 42 157<283 423.5 283 459.5> 304 155<776 896 776 896> 380 311<258 327 327 369 213.5 369> 542 149<258 258>
AnchorPoint: "Anchor-3" 428.608 710 basechar 0
AnchorPoint: "Anchor-0" 306.416 0 basechar 0
LayerCount: 2
Fore
SplineSet
363.24609375 776 m 1xfd
 384.405273438 896 l 1
 539.405273438 896 l 1
 518.24609375 776 l 1
 363.24609375 776 l 1xfd
300.594726562 -16 m 0
 75.5947265625 -16 -10.369140625 143 26.8359375 354 c 0
 64.041015625 565 215.4296875 726 435.4296875 726 c 0
 607.4296875 726 694.678710938 631 695.524414062 477 c 1
 537.290039062 470 l 1
 537.04296875 548 503.859375 598 409.859375 598 c 0
 282.859375 598 208.345703125 493 183.8359375 354 c 0
 158.797851562 212 199.165039062 112 320.165039062 112 c 0
 421.165039062 112 487.568359375 171 509.908203125 258 c 1xfd
 347.908203125 258 l 1
 367.48046875 369 l 1xfa
 678.48046875 369 l 1
 671.075195312 327 l 2
 631.048828125 100 490.594726562 -16 300.594726562 -16 c 0
EndSplineSet
Validated: 33
Substitution2: "'ss08' Style Set 8 in Latin lookup 41 subtable" Gdotaccent.ss06.ss08
Substitution2: "'aalt' Access All Alternates in Latin lookup 0 subtable" Gdotaccent.ss06.ss08
EndChar

StartChar: uni1E20.ss06
Encoding: 65558 -1 153
Width: 728
GlyphClass: 2
Flags: HMW
HStem: -16 128<317.5 428.5 317.5 476> 258 111<380 542 380 691> 598 128<318.5 429> 781 110<232 531 232 531>
VStem: 42 157<283 423.5 283 459.5> 232 299<781 891 781 891> 380 311<258 327 327 369 213.5 369> 542 149<258 258>
AnchorPoint: "Anchor-3" 429.049 710 basechar 0
AnchorPoint: "Anchor-0" 306.857 0 basechar 0
LayerCount: 2
Fore
SplineSet
292.568359375 781 m 1xfc
 311.963867188 891 l 1
 610.963867188 891 l 1
 591.568359375 781 l 1
 292.568359375 781 l 1xfc
301.036132812 -16 m 0
 76.0361328125 -16 -9.9287109375 143 27.2763671875 354 c 0
 64.4814453125 565 215.870117188 726 435.870117188 726 c 0
 607.870117188 726 695.119140625 631 695.96484375 477 c 1
 537.73046875 470 l 1
 537.484375 548 504.30078125 598 410.30078125 598 c 0
 283.30078125 598 208.786132812 493 184.276367188 354 c 0
 159.23828125 212 199.60546875 112 320.60546875 112 c 0
 421.60546875 112 488.008789062 171 510.349609375 258 c 1xf9
 348.349609375 258 l 1
 367.921875 369 l 1xfa
 678.921875 369 l 1
 671.515625 327 l 2xf9
 631.489257812 100 491.036132812 -16 301.036132812 -16 c 0
EndSplineSet
Validated: 33
EndChar

StartChar: Adieresis.ss08
Encoding: 65559 -1 154
Width: 730
GlyphClass: 2
Flags: HMW
HStem: 0 21G<19 19 19 176 553 553 553 711> 151 125<271 459 271 501 228 459> 690 20G<275 455 455 455> 765 143<237.5 282.5 447.5 492.5>
VStem: 187 146<814 858> 397 146<814 858>
AnchorPoint: "Anchor-3" 410.14 710 basechar 0
AnchorPoint: "Anchor-2" 630.947 0 basechar 0
AnchorPoint: "Anchor-0" 284.947 0 basechar 0
LayerCount: 2
Fore
SplineSet
314.837890625 765 m 0
 269.837890625 765 246.598632812 792 254.356445312 836 c 0
 262.115234375 880 295.052734375 908 340.052734375 908 c 0
 385.052734375 908 408.115234375 880 400.356445312 836 c 0
 392.598632812 792 359.837890625 765 314.837890625 765 c 0
524.837890625 765 m 0
 479.837890625 765 456.598632812 792 464.356445312 836 c 0
 472.115234375 880 505.052734375 908 550.052734375 908 c 0
 595.052734375 908 618.115234375 880 610.356445312 836 c 0
 602.598632812 792 569.837890625 765 524.837890625 765 c 0
-61.052734375 0 m 1
 320.139648438 710 l 1
 500.139648438 710 l 1
 630.947265625 0 l 1
 472.947265625 0 l 1
 447.573242188 151 l 1
 174.573242188 151 l 1
 95.947265625 0 l 1
 -61.052734375 0 l 1
239.614257812 276 m 1
 427.614257812 276 l 1
 381.927734375 550 l 1
 239.614257812 276 l 1
EndSplineSet
Validated: 33
EndChar

StartChar: Cdotaccent.ss08
Encoding: 65560 -1 155
Width: 734
GlyphClass: 2
Flags: HMW
HStem: -16 128<322.5 424.5 322.5 467.5> 598 128<321.5 422> 765 143<355 399.5>
VStem: 42 157<279 428 279 467> 302 151<814 858>
AnchorPoint: "Anchor-3" 423.551 710 basechar 0
AnchorPoint: "Anchor-0" 300.358 0 basechar 0
LayerCount: 2
Fore
SplineSet
433.248046875 765 m 0
 389.248046875 765 363.008789062 792 370.767578125 836 c 0
 378.526367188 880 414.462890625 908 458.462890625 908 c 0
 503.462890625 908 529.526367188 880 521.767578125 836 c 0
 514.008789062 792 478.248046875 765 433.248046875 765 c 0
293.537109375 -16 m 0
 99.537109375 -16 -15.1298828125 122 25.7783203125 354 c 0
 65.6279296875 580 222.37109375 726 427.37109375 726 c 0
 613.37109375 726 696.620117188 631 696.821289062 462 c 1
 537.763671875 456 l 1
 537.456054688 545 492.801757812 598 404.801757812 598 c 0
 291.801757812 598 208.874023438 502 182.778320312 354 c 0
 156.329101562 204 209.106445312 112 318.106445312 112 c 0
 413.106445312 112 475.157226562 169 506.084960938 265 c 1
 664.026367188 259 l 1
 604.522460938 86 478.537109375 -16 293.537109375 -16 c 0
EndSplineSet
Validated: 33
EndChar

StartChar: Edieresis.ss08
Encoding: 65561 -1 156
Width: 622
GlyphClass: 2
Flags: HMW
HStem: 0 128<226 576 226 576> 293 126<226 556 226 556> 582 128<226 568 226 226> 765 143<194.5 239.5 404.5 449.5>
VStem: 74 152<128 293 419 582> 144 146<814 858> 354 146<814 858>
AnchorPoint: "Anchor-3" 367.14 710 basechar 0
AnchorPoint: "Anchor-2" 495.947 0 basechar 0
AnchorPoint: "Anchor-0" 242.947 0 basechar 0
LayerCount: 2
Fore
SplineSet
271.837890625 765 m 0xf6
 226.837890625 765 203.598632812 792 211.356445312 836 c 0
 219.115234375 880 252.052734375 908 297.052734375 908 c 0
 342.052734375 908 365.115234375 880 357.356445312 836 c 0
 349.598632812 792 316.837890625 765 271.837890625 765 c 0xf6
481.837890625 765 m 0
 436.837890625 765 413.598632812 792 421.356445312 836 c 0
 429.115234375 880 462.052734375 908 507.052734375 908 c 0
 552.052734375 908 575.115234375 880 567.356445312 836 c 0
 559.598632812 792 526.837890625 765 481.837890625 765 c 0
-6.052734375 0 m 1xe8
 119.139648438 710 l 1
 613.139648438 710 l 1
 590.5703125 582 l 1
 248.5703125 582 l 1
 219.828125 419 l 1
 549.828125 419 l 1
 527.611328125 293 l 1
 197.611328125 293 l 1
 168.517578125 128 l 1
 518.517578125 128 l 1
 495.947265625 0 l 1
 -6.052734375 0 l 1xe8
EndSplineSet
Validated: 33
EndChar

StartChar: Edotaccent.ss08
Encoding: 65562 -1 157
Width: 622
GlyphClass: 2
Flags: HMW
HStem: 0 128<226 576 226 576> 293 126<226 556 226 556> 582 128<226 568 226 226> 765 143<299.5 344.5>
VStem: 74 152<128 293 419 582> 247 151<814 858>
AnchorPoint: "Anchor-3" 367.14 710 basechar 0
AnchorPoint: "Anchor-2" 495.947 0 basechar 0
AnchorPoint: "Anchor-0" 242.947 0 basechar 0
LayerCount: 2
Fore
SplineSet
376.837890625 765 m 0
 331.837890625 765 306.598632812 792 314.356445312 836 c 0
 322.115234375 880 357.052734375 908 402.052734375 908 c 0
 447.052734375 908 473.115234375 880 465.356445312 836 c 0
 457.598632812 792 421.837890625 765 376.837890625 765 c 0
-6.052734375 0 m 1xe8
 119.139648438 710 l 1
 613.139648438 710 l 1
 590.5703125 582 l 1
 248.5703125 582 l 1
 219.828125 419 l 1
 549.828125 419 l 1
 527.611328125 293 l 1
 197.611328125 293 l 1
 168.517578125 128 l 1
 518.517578125 128 l 1
 495.947265625 0 l 1
 -6.052734375 0 l 1xe8
EndSplineSet
Validated: 33
EndChar

StartChar: Gdotaccent.ss08
Encoding: 65563 -1 158
Width: 738
GlyphClass: 2
Flags: HMW
HStem: -16 128<319 420> 0 21G<597 691 597 597> 258 111<380 542 380 691> 598 128<319 426.5> 765 143<358.5 403>
VStem: 42 157<283 423.5 283 461> 305 151<814 858> 594.5 96.5
AnchorPoint: "Anchor-3" 426.551 710 basechar 0
AnchorPoint: "Anchor-0" 304.358 0 basechar 0
LayerCount: 2
Fore
SplineSet
437.248046875 765 m 0xbf
 392.248046875 765 366.008789062 792 373.767578125 836 c 0
 381.526367188 880 417.462890625 908 462.462890625 908 c 0
 506.462890625 908 532.526367188 880 524.767578125 836 c 0
 517.008789062 792 481.248046875 765 437.248046875 765 c 0xbf
288.537109375 -16 m 0
 83.537109375 -16 -12.837890625 135 25.7783203125 354 c 0
 63.51171875 568 216.37109375 726 428.37109375 726 c 0
 612.37109375 726 690.091796875 628 694.465820312 477 c 1
 536.231445312 470 l 1
 535.162109375 549 499.801757812 598 406.801757812 598 c 0
 284.801757812 598 207.287109375 493 182.778320312 354 c 0
 157.739257812 212 196.106445312 112 324.106445312 112 c 0xb5
 418.106445312 112 486.862304688 173 508.850585938 258 c 1
 346.850585938 258 l 1
 366.422851562 369 l 1
 677.422851562 369 l 1
 612.358398438 0 l 1
 518.358398438 0 l 1x75
 531.166992188 101 l 1
 481.6484375 30 388.537109375 -16 288.537109375 -16 c 0
EndSplineSet
Validated: 33
EndChar

StartChar: Idieresis.ss08
Encoding: 65564 -1 159
Width: 300
GlyphClass: 2
Flags: HMW
HStem: 0 21G<74 74 74 226> 690 20G<74 226 226 226> 765 143<22.5 67.5 232.5 277.5>
VStem: -28 146<814 858> 74 152<0 710 0 710> 182 146<814 858>
AnchorPoint: "Anchor-3" 195.14 710 basechar 0
AnchorPoint: "Anchor-2" 145.947 0 basechar 0
AnchorPoint: "Anchor-0" 69.9473 0 basechar 0
LayerCount: 2
Fore
SplineSet
99.837890625 765 m 0xf4
 54.837890625 765 31.5986328125 792 39.3564453125 836 c 0
 47.115234375 880 80.052734375 908 125.052734375 908 c 0
 170.052734375 908 193.115234375 880 185.356445312 836 c 0
 177.598632812 792 144.837890625 765 99.837890625 765 c 0xf4
309.837890625 765 m 0
 264.837890625 765 241.598632812 792 249.356445312 836 c 0
 257.115234375 880 290.052734375 908 335.052734375 908 c 0
 380.052734375 908 403.115234375 880 395.356445312 836 c 0
 387.598632812 792 354.837890625 765 309.837890625 765 c 0
-6.052734375 0 m 1xe8
 119.139648438 710 l 1
 271.139648438 710 l 1
 145.947265625 0 l 1
 -6.052734375 0 l 1xe8
EndSplineSet
Validated: 33
EndChar

StartChar: Idotaccent.ss08
Encoding: 65565 -1 160
Width: 300
GlyphClass: 2
Flags: HMW
HStem: 0 21G<74 74 74 226> 690 20G<74 226 226 226> 765 143<128 172.5>
VStem: 74 152<0 710 0 710>
AnchorPoint: "Anchor-3" 195.14 710 basechar 0
AnchorPoint: "Anchor-2" 145.947 0 basechar 0
AnchorPoint: "Anchor-0" 69.9473 0 basechar 0
LayerCount: 2
Fore
SplineSet
204.837890625 765 m 0
 160.837890625 765 134.598632812 792 142.356445312 836 c 0
 150.115234375 880 186.052734375 908 230.052734375 908 c 0
 275.052734375 908 301.115234375 880 293.356445312 836 c 0
 285.598632812 792 249.837890625 765 204.837890625 765 c 0
-6.052734375 0 m 1
 119.139648438 710 l 1
 271.139648438 710 l 1
 145.947265625 0 l 1
 -6.052734375 0 l 1
EndSplineSet
Validated: 33
EndChar

StartChar: Odieresis.ss08
Encoding: 65566 -1 161
Width: 776
GlyphClass: 2
Flags: HMW
HStem: -16 128<328.5 447 328.5 496> 598 128<328.5 447> 765 143<260.5 305 470.5 515>
VStem: 42 157<277 431 277 468.5> 209 147<814 858> 419 147<814 858> 577 157<277 431>
AnchorPoint: "Anchor-3" 434.551 710 basechar 0
AnchorPoint: "Anchor-1" 371.954 355 basechar 0
AnchorPoint: "Anchor-0" 309.358 0 basechar 0
LayerCount: 2
Fore
SplineSet
339.248046875 765 m 0
 294.248046875 765 270.008789062 792 277.767578125 836 c 0
 285.526367188 880 319.462890625 908 364.462890625 908 c 0
 408.462890625 908 432.526367188 880 424.767578125 836 c 0
 417.008789062 792 383.248046875 765 339.248046875 765 c 0
549.248046875 765 m 0
 504.248046875 765 480.008789062 792 487.767578125 836 c 0
 495.526367188 880 529.462890625 908 574.462890625 908 c 0
 618.462890625 908 642.526367188 880 634.767578125 836 c 0
 627.008789062 792 593.248046875 765 549.248046875 765 c 0
306.537109375 -16 m 0
 90.537109375 -16 -14.6005859375 125 25.7783203125 354 c 0
 66.1572265625 583 221.37109375 726 437.37109375 726 c 0
 653.37109375 726 758.157226562 583 717.778320312 354 c 0xf2
 677.399414062 125 522.537109375 -16 306.537109375 -16 c 0
329.106445312 112 m 0
 447.106445312 112 533.624023438 200 560.778320312 354 c 0
 587.932617188 508 532.801757812 598 414.801757812 598 c 0
 295.801757812 598 209.932617188 508 182.778320312 354 c 0
 155.624023438 200 210.106445312 112 329.106445312 112 c 0
EndSplineSet
Validated: 33
EndChar

StartChar: Udieresis.ss08
Encoding: 65567 -1 162
Width: 703
GlyphClass: 2
Flags: HMW
HStem: -16 128<306.5 397 306.5 441.5> 691 20G<59 211 211 211 492 644 644 644> 765 143<224.5 269 434.5 479>
VStem: 59 152<256 711> 173 147<814 858> 383 147<814 858> 492 152<256 711>
AnchorPoint: "Anchor-3" 398.551 710 basechar 0
AnchorPoint: "Anchor-2" 388.534 1 basechar 0
AnchorPoint: "Anchor-0" 273.358 0 basechar 0
LayerCount: 2
Fore
SplineSet
303.248046875 765 m 0xec
 258.248046875 765 234.008789062 792 241.767578125 836 c 0
 249.526367188 880 283.462890625 908 328.462890625 908 c 0
 372.462890625 908 396.526367188 880 388.767578125 836 c 0
 381.008789062 792 347.248046875 765 303.248046875 765 c 0xec
513.248046875 765 m 0
 468.248046875 765 444.008789062 792 451.767578125 836 c 0
 459.526367188 880 493.462890625 908 538.462890625 908 c 0
 582.462890625 908 606.526367188 880 598.767578125 836 c 0
 591.008789062 792 557.248046875 765 513.248046875 765 c 0
270.537109375 -16 m 0
 90.537109375 -16 -3.7724609375 90 25.498046875 256 c 2
 105.7265625 711 l 1
 257.7265625 711 l 1
 177.498046875 256 l 2
 161.275390625 164 202.106445312 112 293.106445312 112 c 0
 383.106445312 112 442.275390625 164 458.498046875 256 c 2
 538.7265625 711 l 1
 690.7265625 711 l 1
 610.498046875 256 l 2xf2
 581.227539062 90 449.537109375 -16 270.537109375 -16 c 0
EndSplineSet
Validated: 33
EndChar

StartChar: Wdieresis.ss08
Encoding: 65568 -1 163
Width: 1015
GlyphClass: 2
Flags: HMW
HStem: 0 21G<229 229 229 391 623 623 623 787> 690 20G<37 196 196 196 441 574 574 574 819 978 978 978> 765 143<380 424.5 590 634.5>
VStem: 329 147<814 858> 539 147<814 858>
AnchorPoint: "Anchor-3" 552.14 710 basechar 0
AnchorPoint: "Anchor-0" 426.947 0 basechar 0
LayerCount: 2
Fore
SplineSet
456.837890625 765 m 0
 412.837890625 765 388.598632812 792 396.356445312 836 c 0
 404.115234375 880 438.052734375 908 482.052734375 908 c 0
 527.052734375 908 551.115234375 880 543.356445312 836 c 0
 535.598632812 792 501.837890625 765 456.837890625 765 c 0
666.837890625 765 m 0
 622.837890625 765 598.598632812 792 606.356445312 836 c 0
 614.115234375 880 648.052734375 908 692.052734375 908 c 0
 737.052734375 908 761.115234375 880 753.356445312 836 c 0
 745.598632812 792 711.837890625 765 666.837890625 765 c 0
148.947265625 0 m 1
 82.1396484375 710 l 1
 241.139648438 710 l 1
 274.9765625 210 l 1
 486.139648438 710 l 1
 619.139648438 710 l 1
 654.9765625 210 l 1
 864.139648438 710 l 1
 1023.13964844 710 l 1
 706.947265625 0 l 1
 542.947265625 0 l 1
 507 454 l 1
 310.947265625 0 l 1
 148.947265625 0 l 1
EndSplineSet
Validated: 33
EndChar

StartChar: Ydieresis.ss08
Encoding: 65569 -1 164
Width: 631
GlyphClass: 2
Flags: HMW
HStem: 0 21G<240 240 240 392> 690 20G<-7 161 161 161 470 638 638 638> 765 143<188.5 233.5 398.5 443.5>
VStem: 138 146<814 858> 240 152<0 276 0 276> 348 146<814 858>
AnchorPoint: "Anchor-3" 361.14 710 basechar 0
AnchorPoint: "Anchor-0" 235.947 0 basechar 0
LayerCount: 2
Fore
SplineSet
265.837890625 765 m 0xf4
 220.837890625 765 197.598632812 792 205.356445312 836 c 0
 213.115234375 880 246.052734375 908 291.052734375 908 c 0
 336.052734375 908 359.115234375 880 351.356445312 836 c 0
 343.598632812 792 310.837890625 765 265.837890625 765 c 0xf4
475.837890625 765 m 0
 430.837890625 765 407.598632812 792 415.356445312 836 c 0
 423.115234375 880 456.052734375 908 501.052734375 908 c 0
 546.052734375 908 569.115234375 880 561.356445312 836 c 0
 553.598632812 792 520.837890625 765 475.837890625 765 c 0
159.947265625 0 m 1xe8
 208.614257812 276 l 1
 38.1396484375 710 l 1
 206.139648438 710 l 1
 310.709960938 424 l 1
 515.139648438 710 l 1
 683.139648438 710 l 1
 360.614257812 276 l 1
 311.947265625 0 l 1
 159.947265625 0 l 1xe8
EndSplineSet
Validated: 33
EndChar

StartChar: Zdotaccent.ss08
Encoding: 65570 -1 165
Width: 594
GlyphClass: 2
Flags: HMW
HStem: 0 128<209 567 209 567> 582 128<43 365 43 554> 765 143<283.5 328.5>
VStem: 231 151<814 858>
AnchorPoint: "Anchor-3" 351.14 710 basechar 0
AnchorPoint: "Anchor-0" 225.947 0 basechar 0
LayerCount: 2
Fore
SplineSet
360.837890625 765 m 0
 315.837890625 765 290.598632812 792 298.356445312 836 c 0
 306.115234375 880 341.052734375 908 386.052734375 908 c 0
 431.052734375 908 457.115234375 880 449.356445312 836 c 0
 441.598632812 792 405.837890625 765 360.837890625 765 c 0
-53.052734375 0 m 1
 -31.1875 124 l 1
 387.5703125 582 l 1
 65.5703125 582 l 1
 88.1396484375 710 l 1
 599.139648438 710 l 1
 577.275390625 586 l 1
 151.517578125 128 l 1
 509.517578125 128 l 1
 486.947265625 0 l 1
 -53.052734375 0 l 1
EndSplineSet
Validated: 33
EndChar

StartChar: Idieresis.ss05.ss08
Encoding: 65571 -1 166
Width: 472
GlyphClass: 2
Flags: HMW
HStem: 0 128<42 160 42 160 312 430> 582 128<48 160 48 424 312 312 312 424> 765 143<108.5 153.5 318.5 363.5>
VStem: 58 146<814 858> 160 152<128 582 128 582> 268 146<814 858>
AnchorPoint: "Anchor-3" 281.14 710 basechar 0
AnchorPoint: "Anchor-2" 349.947 0 basechar 0
AnchorPoint: "Anchor-0" 155.947 0 basechar 0
LayerCount: 2
Fore
SplineSet
185.837890625 765 m 0xf4
 140.837890625 765 117.598632812 792 125.356445312 836 c 0
 133.115234375 880 166.052734375 908 211.052734375 908 c 0
 256.052734375 908 279.115234375 880 271.356445312 836 c 0
 263.598632812 792 230.837890625 765 185.837890625 765 c 0xf4
395.837890625 765 m 0
 350.837890625 765 327.598632812 792 335.356445312 836 c 0
 343.115234375 880 376.052734375 908 421.052734375 908 c 0
 466.052734375 908 489.115234375 880 481.356445312 836 c 0
 473.598632812 792 440.837890625 765 395.837890625 765 c 0
-38.052734375 0 m 1
 -15.482421875 128 l 1
 102.517578125 128 l 1
 182.5703125 582 l 1
 70.5703125 582 l 1
 93.1396484375 710 l 1
 469.139648438 710 l 1
 446.5703125 582 l 1
 334.5703125 582 l 1
 254.517578125 128 l 1xc8
 372.517578125 128 l 1
 349.947265625 0 l 1
 -38.052734375 0 l 1
EndSplineSet
Validated: 33
EndChar

StartChar: Idotaccent.ss05.ss08
Encoding: 65572 -1 167
Width: 472
GlyphClass: 2
Flags: HMW
HStem: 0 128<42 160 42 160 312 430> 582 128<48 160 48 424 312 312 312 424> 765 143<213.5 258.5>
VStem: 160 152<128 582 128 582> 161 151<814 858>
AnchorPoint: "Anchor-3" 281.14 710 basechar 0
AnchorPoint: "Anchor-2" 349.947 0 basechar 0
AnchorPoint: "Anchor-0" 155.947 0 basechar 0
LayerCount: 2
Fore
SplineSet
290.837890625 765 m 0xe8
 245.837890625 765 220.598632812 792 228.356445312 836 c 0
 236.115234375 880 271.052734375 908 316.052734375 908 c 0
 361.052734375 908 387.115234375 880 379.356445312 836 c 0
 371.598632812 792 335.837890625 765 290.837890625 765 c 0xe8
-38.052734375 0 m 1
 -15.482421875 128 l 1
 102.517578125 128 l 1
 182.5703125 582 l 1
 70.5703125 582 l 1
 93.1396484375 710 l 1
 469.139648438 710 l 1
 446.5703125 582 l 1
 334.5703125 582 l 1
 254.517578125 128 l 1xd0
 372.517578125 128 l 1
 349.947265625 0 l 1
 -38.052734375 0 l 1
EndSplineSet
Validated: 33
EndChar

StartChar: Gdotaccent.ss06.ss08
Encoding: 65573 -1 168
Width: 728
GlyphClass: 2
Flags: HMW
HStem: -16 128<317.5 428.5 317.5 476> 258 111<380 542 380 691> 598 128<318.5 429> 765 143<359.5 404>
VStem: 42 157<283 423.5 283 459.5> 306 151<814 858> 380 311<258 327 327 369 213.5 369> 542 149<258 258>
AnchorPoint: "Anchor-3" 427.551 710 basechar 0
AnchorPoint: "Anchor-0" 305.358 0 basechar 0
LayerCount: 2
Fore
SplineSet
438.248046875 765 m 0xfd
 393.248046875 765 367.008789062 792 374.767578125 836 c 0
 382.526367188 880 418.462890625 908 463.462890625 908 c 0
 507.462890625 908 533.526367188 880 525.767578125 836 c 0
 518.008789062 792 482.248046875 765 438.248046875 765 c 0xfd
299.537109375 -16 m 0
 74.537109375 -16 -11.4267578125 143 25.7783203125 354 c 0
 62.9833984375 565 214.37109375 726 434.37109375 726 c 0
 606.37109375 726 693.620117188 631 694.465820312 477 c 1
 536.231445312 470 l 1
 535.985351562 548 502.801757812 598 408.801757812 598 c 0
 281.801757812 598 207.287109375 493 182.778320312 354 c 0
 157.739257812 212 198.106445312 112 319.106445312 112 c 0
 420.106445312 112 486.509765625 171 508.850585938 258 c 1xed
 346.850585938 258 l 1
 366.422851562 369 l 1xea
 677.422851562 369 l 1
 670.016601562 327 l 2
 629.991210938 100 489.537109375 -16 299.537109375 -16 c 0
EndSplineSet
Validated: 33
EndChar

StartChar: A_I.dlig
Encoding: 65574 -1 169
Width: 1202
GlyphClass: 3
Flags: HMW
HStem: 0 128<553 890 772 890 1042 1160 772 890> 151 125<271 459 271 501 228 459> 582 128<778 890 1042 1042 1042 1154>
VStem: 890 152<128 582 128 582>
AnchorPoint: "Anchor-8" 427.596 710 baselig 0
AnchorPoint: "Anchor-7" 648.404 0 baselig 0
AnchorPoint: "Anchor-5" 302.404 0 baselig 0
AnchorPoint: "Anchor-8" 1028.6 710 baselig 1
AnchorPoint: "Anchor-5" 903.404 0 baselig 1
AnchorPoint: "Anchor-7" 1097.4 0 baselig 1
LayerCount: 2
Fore
SplineSet
-43.595703125 0 m 1
 337.595703125 710 l 1
 517.595703125 710 l 1
 648.404296875 0 l 1
 490.404296875 0 l 1xb0
 465.029296875 151 l 1
 192.029296875 151 l 1x70
 113.404296875 0 l 1
 -43.595703125 0 l 1
709.404296875 0 m 1
 731.973632812 128 l 1
 849.973632812 128 l 1
 930.026367188 582 l 1
 818.026367188 582 l 1
 840.595703125 710 l 1
 1216.59570312 710 l 1
 1194.02636719 582 l 1
 1082.02636719 582 l 1
 1001.97363281 128 l 1
 1119.97363281 128 l 1
 1097.40429688 0 l 1
 709.404296875 0 l 1
257.0703125 276 m 1x70
 445.0703125 276 l 1
 399.383789062 550 l 1
 257.0703125 276 l 1x70
EndSplineSet
Validated: 1
Ligature2: "'dlig' Discretionary Ligatures in Latin lookup 32 subtable" A I
EndChar

StartChar: U_I.dlig
Encoding: 65575 -1 170
Width: 1176
GlyphClass: 3
Flags: HMW
HStem: -16 128<306.5 397 306.5 441.5> 0 128<745 863 745 863 1016 1134> 582 128<751 863 751 1128 1016 1016 1016 1128>
VStem: 59 152<256 711> 492 152<256 711> 863 153<128 582 128 582>
AnchorPoint: "Anchor-8" 415.919 710 baselig 0
AnchorPoint: "Anchor-7" 405.902 1 baselig 0
AnchorPoint: "Anchor-5" 290.727 0 baselig 0
AnchorPoint: "Anchor-8" 1002.92 710 baselig 1
AnchorPoint: "Anchor-5" 877.727 0 baselig 1
AnchorPoint: "Anchor-7" 1072.73 0 baselig 1
LayerCount: 2
Fore
SplineSet
287.905273438 -16 m 0xbc
 107.905273438 -16 13.595703125 90 42.8662109375 256 c 2
 123.094726562 711 l 1
 275.094726562 711 l 1
 194.866210938 256 l 2
 178.643554688 164 219.474609375 112 310.474609375 112 c 0
 400.474609375 112 459.643554688 164 475.866210938 256 c 2
 556.094726562 711 l 1
 708.094726562 711 l 1
 627.866210938 256 l 2
 598.595703125 90 466.905273438 -16 287.905273438 -16 c 0xbc
683.7265625 0 m 1x7c
 706.295898438 128 l 1
 824.295898438 128 l 1
 904.348632812 582 l 1
 792.348632812 582 l 1
 814.918945312 710 l 1
 1191.91894531 710 l 1
 1169.34863281 582 l 1
 1057.34863281 582 l 1
 977.295898438 128 l 1
 1095.29589844 128 l 1
 1072.7265625 0 l 1
 683.7265625 0 l 1x7c
EndSplineSet
Validated: 33
Ligature2: "'dlig' Discretionary Ligatures in Latin lookup 32 subtable" U I
EndChar

StartChar: a
Encoding: 97 97 171
Width: 594
GlyphClass: 2
Flags: HMW
HStem: -12 103<238 271> -6 21G<500 538> -6 109<500 581> 439 109<266.5 324.5>
VStem: 37 154<130 165.5 130 181> 386 150<214 240 240 240>
AnchorPoint: "Anchor-3" 344.256 536 basechar 0
AnchorPoint: "Anchor-2" 533.744 0 basechar 0
AnchorPoint: "Anchor-0" 244.744 0 basechar 0
LayerCount: 2
Fore
SplineSet
175.62890625 -12 m 0x94
 63.62890625 -12 -2.849609375 42 13.3720703125 134 c 0
 29.947265625 228 97.41015625 276 218.642578125 300 c 2
 397.637695312 334 l 1
 409.98046875 404 384.15234375 439 325.15234375 439 c 0
 268.15234375 439 232.390625 412 213.575195312 362 c 1
 63.80859375 369 l 1
 104.615234375 487 204.37109375 548 344.37109375 548 c 0
 504.37109375 548 571.618164062 470 545.874023438 324 c 2
 513.606445312 141 l 2
 508.31640625 111 516.90625 103 536.90625 103 c 2
 551.90625 103 l 1x3c
 533.744140625 0 l 1
 524.215820312 -3 499.686523438 -6 479.686523438 -6 c 0x54
 423.686523438 -6 378.212890625 14 377.203125 82 c 1
 340.15234375 25 267.62890625 -12 175.62890625 -12 c 0x94
229.790039062 91 m 0
 304.790039062 91 362.901367188 137 376.478515625 214 c 2
 381.0625 240 l 1
 254.478515625 214 l 2
 203.71484375 204 176.01171875 183 169.840820312 148 c 0x9c
 163.493164062 112 183.790039062 91 229.790039062 91 c 0
EndSplineSet
Validated: 33
Substitution2: "'ss02' Style Set 2 in Latin lookup 35 subtable" a.ss02
Substitution2: "'ss01' Style Set 1 in Latin lookup 34 subtable" a.ss01
Substitution2: "Single Substitution lookup 27 subtable" ordfeminine
AlternateSubs2: "'aalt' Access All Alternates in Latin lookup 1 subtable" ordfeminine a.ss01 a.ss02
EndChar

StartChar: aacute
Encoding: 225 225 172
Width: 594
GlyphClass: 2
Flags: HMW
HStem: -12 103<238 271> -6 21G<500 538> -6 109<500 581> 439 109<266.5 324.5> 591 148<228 433 287 343>
VStem: 37 154<130 165.5 130 181> 386 150<214 240 240 240>
AnchorPoint: "Anchor-3" 327.416 536 basechar 0
AnchorPoint: "Anchor-2" 516.905 0 basechar 0
AnchorPoint: "Anchor-0" 227.905 0 basechar 0
LayerCount: 2
Fore
SplineSet
268.114257812 591 m 1x9a
 353.2109375 739 l 1
 499.2109375 739 l 1
 383.114257812 591 l 1
 268.114257812 591 l 1x9a
158.7890625 -12 m 0
 46.7890625 -12 -19.689453125 42 -3.466796875 134 c 0
 13.107421875 228 80.5712890625 276 201.803710938 300 c 2
 380.798828125 334 l 1
 393.141601562 404 367.3125 439 308.3125 439 c 0
 251.3125 439 215.551757812 412 196.735351562 362 c 1
 46.9697265625 369 l 1
 87.7763671875 487 187.532226562 548 327.532226562 548 c 0
 487.532226562 548 554.779296875 470 529.03515625 324 c 2
 496.767578125 141 l 2
 491.477539062 111 500.06640625 103 520.06640625 103 c 2
 535.06640625 103 l 1x3e
 516.905273438 0 l 1
 507.375976562 -3 482.84765625 -6 462.84765625 -6 c 0x5a
 406.84765625 -6 361.374023438 14 360.364257812 82 c 1
 323.313476562 25 250.7890625 -12 158.7890625 -12 c 0
212.951171875 91 m 0
 287.951171875 91 346.061523438 137 359.638671875 214 c 2
 364.223632812 240 l 1
 237.638671875 214 l 2
 186.875976562 204 159.172851562 183 153.001953125 148 c 0x9e
 146.653320312 112 166.951171875 91 212.951171875 91 c 0
EndSplineSet
Validated: 33
Substitution2: "'ss02' Style Set 2 in Latin lookup 35 subtable" aacute.ss02
Substitution2: "'ss01' Style Set 1 in Latin lookup 34 subtable" aacute.ss01
AlternateSubs2: "'aalt' Access All Alternates in Latin lookup 1 subtable" aacute.ss01 aacute.ss02
EndChar

StartChar: abreve
Encoding: 259 259 173
Width: 594
GlyphClass: 2
Flags: HMW
HStem: -12 103<238 271> -6 21G<500 538> -6 109<500 581> 439 109<266.5 324.5> 592 82<277 317 277 343> 592 147<140 343>
VStem: 37 154<130 165.5 130 181> 386 150<214 240 240 240>
AnchorPoint: "Anchor-3" 327.416 536 basechar 0
AnchorPoint: "Anchor-2" 516.905 0 basechar 0
AnchorPoint: "Anchor-0" 227.905 0 basechar 0
LayerCount: 2
Fore
SplineSet
337.291015625 592 m 0x95
 244.291015625 592 193.635742188 645 206.2109375 739 c 1x95
 293.2109375 739 l 1
 289.099609375 693 311.75 674 351.75 674 c 0x9b
 391.75 674 419.099609375 693 432.2109375 739 c 1
 519.2109375 739 l 1
 498.635742188 645 429.291015625 592 337.291015625 592 c 0x95
158.7890625 -12 m 0
 46.7890625 -12 -19.689453125 42 -3.466796875 134 c 0
 13.107421875 228 80.5712890625 276 201.803710938 300 c 2
 380.798828125 334 l 1
 393.141601562 404 367.3125 439 308.3125 439 c 0
 251.3125 439 215.551757812 412 196.735351562 362 c 1
 46.9697265625 369 l 1
 87.7763671875 487 187.532226562 548 327.532226562 548 c 0
 487.532226562 548 554.779296875 470 529.03515625 324 c 2
 496.767578125 141 l 2
 491.477539062 111 500.06640625 103 520.06640625 103 c 2
 535.06640625 103 l 1x3b
 516.905273438 0 l 1
 507.375976562 -3 482.84765625 -6 462.84765625 -6 c 0x59
 406.84765625 -6 361.374023438 14 360.364257812 82 c 1
 323.313476562 25 250.7890625 -12 158.7890625 -12 c 0
212.951171875 91 m 0
 287.951171875 91 346.061523438 137 359.638671875 214 c 2
 364.223632812 240 l 1
 237.638671875 214 l 2
 186.875976562 204 159.172851562 183 153.001953125 148 c 0x9b
 146.653320312 112 166.951171875 91 212.951171875 91 c 0
EndSplineSet
Validated: 33
Substitution2: "'ss02' Style Set 2 in Latin lookup 35 subtable" abreve.ss02
Substitution2: "'ss01' Style Set 1 in Latin lookup 34 subtable" abreve.ss01
AlternateSubs2: "'aalt' Access All Alternates in Latin lookup 1 subtable" abreve.ss01 abreve.ss02
EndChar

StartChar: uni01CE
Encoding: 462 462 174
Width: 594
GlyphClass: 2
Flags: HMW
HStem: -12 103<238 271> -6 21G<500 538> -6 109<500 581> 439 109<266.5 324.5> 591 153<224 233 360 369 224 224>
VStem: 37 154<130 165.5 130 181> 386 150<214 240 240 240>
AnchorPoint: "Anchor-3" 326.976 536 basechar 0
AnchorPoint: "Anchor-2" 516.464 0 basechar 0
AnchorPoint: "Anchor-0" 227.464 0 basechar 0
LayerCount: 2
Fore
SplineSet
194.651367188 744 m 1x9a
 299.651367188 744 l 1
 347.958984375 655 l 1
 426.651367188 744 l 1
 531.651367188 744 l 1
 408.673828125 591 l 1
 263.673828125 591 l 1
 194.651367188 744 l 1x9a
158.348632812 -12 m 0
 46.3486328125 -12 -20.1298828125 42 -3.908203125 134 c 0
 12.6669921875 228 80.130859375 276 201.362304688 300 c 2
 380.357421875 334 l 1
 392.700195312 404 366.872070312 439 307.872070312 439 c 0
 250.872070312 439 215.111328125 412 196.294921875 362 c 1
 46.529296875 369 l 1
 87.3359375 487 187.091796875 548 327.091796875 548 c 0
 487.091796875 548 554.337890625 470 528.594726562 324 c 2
 496.326171875 141 l 2
 491.036132812 111 499.625976562 103 519.625976562 103 c 2
 534.625976562 103 l 1x3e
 516.463867188 0 l 1
 506.935546875 -3 482.40625 -6 462.40625 -6 c 0x5a
 406.40625 -6 360.932617188 14 359.922851562 82 c 1
 322.872070312 25 250.348632812 -12 158.348632812 -12 c 0
212.509765625 91 m 0
 287.509765625 91 345.62109375 137 359.198242188 214 c 2
 363.783203125 240 l 1
 237.198242188 214 l 2
 186.434570312 204 158.732421875 183 152.560546875 148 c 0x9e
 146.212890625 112 166.509765625 91 212.509765625 91 c 0
EndSplineSet
Validated: 33
Substitution2: "'ss02' Style Set 2 in Latin lookup 35 subtable" uni01CE.ss02
Substitution2: "'ss01' Style Set 1 in Latin lookup 34 subtable" uni01CE.ss01
AlternateSubs2: "'aalt' Access All Alternates in Latin lookup 1 subtable" uni01CE.ss01 uni01CE.ss02
EndChar

StartChar: acircumflex
Encoding: 226 226 175
Width: 594
GlyphClass: 2
Flags: HMW
HStem: -12 103<238 271> -6 21G<500 538> -6 109<500 581> 439 109<266.5 324.5> 591 153<128 369 224 233 360 360 360 369 224 465>
VStem: 37 154<130 165.5 130 181> 386 150<214 240 240 240>
AnchorPoint: "Anchor-3" 326.976 536 basechar 0
AnchorPoint: "Anchor-2" 516.464 0 basechar 0
AnchorPoint: "Anchor-0" 227.464 0 basechar 0
LayerCount: 2
Fore
SplineSet
167.673828125 591 m 1x9a
 290.651367188 744 l 1
 435.651367188 744 l 1
 504.673828125 591 l 1
 399.673828125 591 l 1
 352.366210938 680 l 1
 272.673828125 591 l 1
 167.673828125 591 l 1x9a
158.348632812 -12 m 0
 46.3486328125 -12 -20.1298828125 42 -3.908203125 134 c 0
 12.6669921875 228 80.130859375 276 201.362304688 300 c 2
 380.357421875 334 l 1
 392.700195312 404 366.872070312 439 307.872070312 439 c 0
 250.872070312 439 215.111328125 412 196.294921875 362 c 1
 46.529296875 369 l 1
 87.3359375 487 187.091796875 548 327.091796875 548 c 0
 487.091796875 548 554.337890625 470 528.594726562 324 c 2
 496.326171875 141 l 2
 491.036132812 111 499.625976562 103 519.625976562 103 c 2
 534.625976562 103 l 1x3e
 516.463867188 0 l 1
 506.935546875 -3 482.40625 -6 462.40625 -6 c 0x5a
 406.40625 -6 360.932617188 14 359.922851562 82 c 1
 322.872070312 25 250.348632812 -12 158.348632812 -12 c 0
212.509765625 91 m 0
 287.509765625 91 345.62109375 137 359.198242188 214 c 2
 363.783203125 240 l 1
 237.198242188 214 l 2
 186.434570312 204 158.732421875 183 152.560546875 148 c 0x9e
 146.212890625 112 166.509765625 91 212.509765625 91 c 0
EndSplineSet
Validated: 33
Substitution2: "'ss02' Style Set 2 in Latin lookup 35 subtable" acircumflex.ss02
Substitution2: "'ss01' Style Set 1 in Latin lookup 34 subtable" acircumflex.ss01
AlternateSubs2: "'aalt' Access All Alternates in Latin lookup 1 subtable" acircumflex.ss01 acircumflex.ss02
EndChar

StartChar: adieresis
Encoding: 228 228 176
Width: 594
GlyphClass: 2
Flags: HMW
HStem: -12 103<238 271> -6 21G<500 538> -6 109<500 581> 439 109<266.5 324.5> 599 121<118 261 118 261 332 476 118 332>
VStem: 37 154<130 165.5 130 181> 118 143<599 720 599 720> 332 144<599 720 599 720> 386 150<214 240 240 240>
AnchorPoint: "Anchor-3" 329.092 536 basechar 0
AnchorPoint: "Anchor-2" 518.58 0 basechar 0
AnchorPoint: "Anchor-0" 229.58 0 basechar 0
LayerCount: 2
Fore
SplineSet
161.200195312 599 m 1x9b
 182.536132812 720 l 1
 325.536132812 720 l 1
 304.200195312 599 l 1
 161.200195312 599 l 1x9b
375.200195312 599 m 1
 396.536132812 720 l 1
 540.536132812 720 l 1
 519.200195312 599 l 1
 375.200195312 599 l 1
160.463867188 -12 m 0
 48.4638671875 -12 -18.013671875 42 -1.7919921875 134 c 0
 14.783203125 228 82.24609375 276 203.478515625 300 c 2
 382.473632812 334 l 1
 394.81640625 404 368.98828125 439 309.98828125 439 c 0
 252.98828125 439 217.2265625 412 198.41015625 362 c 1
 48.64453125 369 l 1
 89.451171875 487 189.20703125 548 329.20703125 548 c 0
 489.20703125 548 556.454101562 470 530.709960938 324 c 2
 498.442382812 141 l 2
 493.15234375 111 501.7421875 103 521.7421875 103 c 2
 536.7421875 103 l 1x3c80
 518.580078125 0 l 1
 509.05078125 -3 484.522460938 -6 464.522460938 -6 c 0x5a80
 408.522460938 -6 363.048828125 14 362.0390625 82 c 1
 324.98828125 25 252.463867188 -12 160.463867188 -12 c 0
214.625976562 91 m 0
 289.625976562 91 347.737304688 137 361.314453125 214 c 2
 365.8984375 240 l 1
 239.314453125 214 l 2
 188.55078125 204 160.84765625 183 154.676757812 148 c 0x9c80
 148.329101562 112 168.625976562 91 214.625976562 91 c 0
EndSplineSet
Validated: 33
Substitution2: "'ss08' Style Set 8 in Latin lookup 41 subtable" adieresis.ss08
Substitution2: "'ss02' Style Set 2 in Latin lookup 35 subtable" adieresis.ss02
Substitution2: "'ss01' Style Set 1 in Latin lookup 34 subtable" adieresis.ss01
AlternateSubs2: "'aalt' Access All Alternates in Latin lookup 1 subtable" adieresis.ss01 adieresis.ss02 adieresis.ss08
EndChar

StartChar: agrave
Encoding: 224 224 177
Width: 594
GlyphClass: 2
Flags: HMW
HStem: -12 103<238 271> -6 21G<500 538> -6 109<500 581> 439 109<266.5 324.5> 598 147<249 249 249 304 159 363>
VStem: 37 154<130 165.5 130 181> 386 150<214 240 240 240>
AnchorPoint: "Anchor-3" 326.888 536 basechar 0
AnchorPoint: "Anchor-2" 516.376 0 basechar 0
AnchorPoint: "Anchor-0" 227.376 0 basechar 0
LayerCount: 2
Fore
SplineSet
289.819335938 598 m 1x9a
 225.740234375 745 l 1
 370.740234375 745 l 1
 403.819335938 598 l 1
 289.819335938 598 l 1x9a
158.259765625 -12 m 0
 46.259765625 -12 -20.2177734375 42 -3.99609375 134 c 0
 12.5791015625 228 80.0419921875 276 201.274414062 300 c 2
 380.26953125 334 l 1
 392.612304688 404 366.784179688 439 307.784179688 439 c 0
 250.784179688 439 215.022460938 412 196.206054688 362 c 1
 46.4404296875 369 l 1
 87.2470703125 487 187.002929688 548 327.002929688 548 c 0
 487.002929688 548 554.25 470 528.505859375 324 c 2
 496.23828125 141 l 2
 490.948242188 111 499.538085938 103 519.538085938 103 c 2
 534.538085938 103 l 1x3e
 516.375976562 0 l 1
 506.84765625 -3 482.318359375 -6 462.318359375 -6 c 0x5a
 406.318359375 -6 360.844726562 14 359.834960938 82 c 1
 322.784179688 25 250.259765625 -12 158.259765625 -12 c 0
212.421875 91 m 0
 287.421875 91 345.533203125 137 359.110351562 214 c 2
 363.694335938 240 l 1
 237.110351562 214 l 2
 186.346679688 204 158.643554688 183 152.47265625 148 c 0x9e
 146.125 112 166.421875 91 212.421875 91 c 0
EndSplineSet
Validated: 33
Substitution2: "'ss02' Style Set 2 in Latin lookup 35 subtable" agrave.ss02
Substitution2: "'ss01' Style Set 1 in Latin lookup 34 subtable" agrave.ss01
AlternateSubs2: "'aalt' Access All Alternates in Latin lookup 1 subtable" agrave.ss01 agrave.ss02
EndChar

StartChar: amacron
Encoding: 257 257 178
Width: 594
GlyphClass: 2
Flags: HMW
HStem: -12 103<238 271> -6 21G<500 538> -6 109<500 581> 439 109<266.5 324.5> 607 110<147 446 147 446>
VStem: 37 154<130 165.5 130 181> 147 299<607 717 607 717> 386 150<214 240 240 240>
AnchorPoint: "Anchor-3" 329.356 536 basechar 0
AnchorPoint: "Anchor-2" 518.845 0 basechar 0
AnchorPoint: "Anchor-0" 229.845 0 basechar 0
LayerCount: 2
Fore
SplineSet
191.875 607 m 1x9a
 211.271484375 717 l 1
 510.271484375 717 l 1
 490.875 607 l 1
 191.875 607 l 1x9a
160.728515625 -12 m 0
 48.728515625 -12 -17.75 42 -1.52734375 134 c 0
 15.046875 228 82.5107421875 276 203.743164062 300 c 2
 382.73828125 334 l 1
 395.081054688 404 369.251953125 439 310.251953125 439 c 0
 253.251953125 439 217.491210938 412 198.674804688 362 c 1
 48.9091796875 369 l 1
 89.7158203125 487 189.471679688 548 329.471679688 548 c 0
 489.471679688 548 556.71875 470 530.974609375 324 c 2
 498.70703125 141 l 2
 493.416992188 111 502.006835938 103 522.006835938 103 c 2
 537.006835938 103 l 1x3d
 518.844726562 0 l 1
 509.315429688 -3 484.787109375 -6 464.787109375 -6 c 0x59
 408.787109375 -6 363.313476562 14 362.303710938 82 c 1
 325.252929688 25 252.728515625 -12 160.728515625 -12 c 0
214.890625 91 m 0
 289.890625 91 348.001953125 137 361.579101562 214 c 2
 366.163085938 240 l 1
 239.579101562 214 l 2
 188.815429688 204 161.112304688 183 154.94140625 148 c 0x9d
 148.59375 112 168.890625 91 214.890625 91 c 0
EndSplineSet
Validated: 33
Substitution2: "'ss02' Style Set 2 in Latin lookup 35 subtable" amacron.ss02
Substitution2: "'ss01' Style Set 1 in Latin lookup 34 subtable" amacron.ss01
AlternateSubs2: "'aalt' Access All Alternates in Latin lookup 1 subtable" amacron.ss01 amacron.ss02
EndChar

StartChar: aogonek
Encoding: 261 261 179
Width: 594
GlyphClass: 2
Flags: HMW
HStem: -217 89<476 554> -12 103<238 271> 439 109<266.5 324.5>
VStem: 37 154<130 165.5 130 181> 386 150<214 240 240 240> 398 121<-159.5 -94.5> 398 183<-159.5 103>
AnchorPoint: "Anchor-3" 362.329 536 basechar 0
AnchorPoint: "Anchor-2" 551.818 0 basechar 0
AnchorPoint: "Anchor-0" 262.818 0 basechar 0
LayerCount: 2
Fore
SplineSet
193.702148438 -12 m 0xe4
 81.7021484375 -12 15.2236328125 42 31.4453125 134 c 0
 48.0205078125 228 115.484375 276 236.715820312 300 c 2
 415.7109375 334 l 1
 428.053710938 404 402.225585938 439 343.225585938 439 c 0
 286.225585938 439 250.46484375 412 231.6484375 362 c 1
 81.8828125 369 l 1
 122.689453125 487 222.4453125 548 362.4453125 548 c 0
 522.4453125 548 589.69140625 470 563.948242188 324 c 2
 531.6796875 141 l 2xf8
 526.390625 111 534.979492188 103 554.979492188 103 c 2
 569.979492188 103 l 1
 551.818359375 0 l 1xe2
 514.764648438 -40 l 2
 490.180664062 -66 474.653320312 -86 471.65625 -103 c 0
 468.834960938 -119 479.248046875 -128 493.248046875 -128 c 0
 511.248046875 -128 529.305664062 -122 540.540039062 -115 c 1
 555.139648438 -191 l 1
 534.494140625 -206 486.5546875 -217 444.5546875 -217 c 0
 372.5546875 -217 335.844726562 -187 345.54296875 -132 c 0
 352.772460938 -91 384.6484375 -52 415.291015625 -20 c 2
 438.69921875 5 l 1
 412.815429688 17 396.046875 41 395.276367188 82 c 1
 358.225585938 25 285.702148438 -12 193.702148438 -12 c 0xe4
247.86328125 91 m 0
 322.86328125 91 380.974609375 137 394.551757812 214 c 2
 399.13671875 240 l 1
 272.551757812 214 l 2
 221.7890625 204 194.0859375 183 187.9140625 148 c 0
 181.56640625 112 201.86328125 91 247.86328125 91 c 0
EndSplineSet
Validated: 33
Substitution2: "'ss02' Style Set 2 in Latin lookup 35 subtable" aogonek.ss02
Substitution2: "'ss01' Style Set 1 in Latin lookup 34 subtable" aogonek.ss01
AlternateSubs2: "'aalt' Access All Alternates in Latin lookup 1 subtable" aogonek.ss01 aogonek.ss02
EndChar

StartChar: aring
Encoding: 229 229 180
Width: 594
GlyphClass: 2
Flags: HMW
HStem: -12 103<238 271> -6 21G<500 538> -6 109<500 581> 439 109<266.5 324.5> 575 64<286 307.5 286 326> 714 64<286 307.5>
VStem: 37 154<130 165.5 130 181> 194 65<665.5 687 665.5 705> 334 65<665.5 687> 386 150<214 240 240 240>
AnchorPoint: "Anchor-3" 323.979 536 basechar 0
AnchorPoint: "Anchor-2" 513.467 0 basechar 0
AnchorPoint: "Anchor-0" 224.467 0 basechar 0
LayerCount: 2
Fore
SplineSet
330.854492188 575 m 0x8d80
 272.854492188 575 235.436523438 618 245.6640625 676 c 0
 255.890625 734 308.649414062 778 366.649414062 778 c 0
 424.649414062 778 460.890625 734 450.6640625 676 c 0
 440.436523438 618 388.854492188 575 330.854492188 575 c 0x8d80
342.139648438 639 m 0
 363.139648438 639 381.9609375 655 385.6640625 676 c 0
 389.54296875 698 376.364257812 714 355.364257812 714 c 0
 333.364257812 714 314.54296875 698 310.6640625 676 c 0
 306.9609375 655 320.139648438 639 342.139648438 639 c 0
155.350585938 -12 m 0
 43.3505859375 -12 -23.1279296875 42 -6.9052734375 134 c 0
 9.6689453125 228 77.1328125 276 198.365234375 300 c 2
 377.360351562 334 l 1
 389.703125 404 363.874023438 439 304.874023438 439 c 0
 247.874023438 439 212.11328125 412 193.296875 362 c 1
 43.53125 369 l 1
 84.337890625 487 184.09375 548 324.09375 548 c 0
 484.09375 548 551.340820312 470 525.596679688 324 c 2
 493.329101562 141 l 2
 488.0390625 111 496.62890625 103 516.62890625 103 c 2
 531.62890625 103 l 1x3640
 513.466796875 0 l 1
 503.9375 -3 479.409179688 -6 459.409179688 -6 c 0x5540
 403.409179688 -6 357.935546875 14 356.92578125 82 c 1
 319.875 25 247.350585938 -12 155.350585938 -12 c 0
209.512695312 91 m 0
 284.512695312 91 342.624023438 137 356.201171875 214 c 2
 360.78515625 240 l 1
 234.201171875 214 l 2
 183.4375 204 155.734375 183 149.563476562 148 c 0x9640
 143.215820312 112 163.512695312 91 209.512695312 91 c 0
EndSplineSet
Validated: 33
Substitution2: "'ss02' Style Set 2 in Latin lookup 35 subtable" aring.ss02
Substitution2: "'ss01' Style Set 1 in Latin lookup 34 subtable" aring.ss01
AlternateSubs2: "'aalt' Access All Alternates in Latin lookup 1 subtable" aring.ss01 aring.ss02
EndChar

StartChar: atilde
Encoding: 227 227 181
Width: 594
GlyphClass: 2
Flags: HMW
HStem: -12 103<238 271> -6 21G<500 538> -6 109<500 581> 439 109<266.5 324.5> 595 142<125 251 125 251> 600 89<349 365.5 349 389> 600 144<337.5 467> 648 89<228.5 245>
VStem: 37 154<130 165.5 130 181> 125 75<595 595> 386 150<214 240 240 240> 393 74<744 744>
AnchorPoint: "Anchor-3" 326.976 536 basechar 0
AnchorPoint: "Anchor-2" 516.464 0 basechar 0
AnchorPoint: "Anchor-0" 227.464 0 basechar 0
LayerCount: 2
Fore
SplineSet
394.260742188 600 m 0x9210
 363.260742188 600 344.670898438 608 323.55078125 630 c 0
 309.666015625 642 301.724609375 648 287.724609375 648 c 0x9160
 268.724609375 648 250.608398438 636 240.37890625 595 c 1
 165.37890625 595 l 1
 181.719726562 682 231.416992188 737 300.416992188 737 c 0x9860
 332.416992188 737 354.830078125 728 377.127929688 707 c 0
 391.01171875 695 399.954101562 689 411.954101562 689 c 0x9410
 432.954101562 689 449.069335938 701 459.651367188 744 c 1
 533.651367188 744 l 1
 517.134765625 656 466.260742188 600 394.260742188 600 c 0x9210
158.348632812 -12 m 0
 46.3486328125 -12 -20.1298828125 42 -3.908203125 134 c 0
 12.6669921875 228 80.130859375 276 201.362304688 300 c 2
 380.357421875 334 l 1
 392.700195312 404 366.872070312 439 307.872070312 439 c 0
 250.872070312 439 215.111328125 412 196.294921875 362 c 1
 46.529296875 369 l 1
 87.3359375 487 187.091796875 548 327.091796875 548 c 0
 487.091796875 548 554.337890625 470 528.594726562 324 c 2
 496.326171875 141 l 2
 491.036132812 111 499.625976562 103 519.625976562 103 c 2
 534.625976562 103 l 1x38a0
 516.463867188 0 l 1
 506.935546875 -3 482.40625 -6 462.40625 -6 c 0x5820
 406.40625 -6 360.932617188 14 359.922851562 82 c 1
 322.872070312 25 250.348632812 -12 158.348632812 -12 c 0
212.509765625 91 m 0
 287.509765625 91 345.62109375 137 359.198242188 214 c 2
 363.783203125 240 l 1
 237.198242188 214 l 2
 186.434570312 204 158.732421875 183 152.560546875 148 c 0x98a0
 146.212890625 112 166.509765625 91 212.509765625 91 c 0
EndSplineSet
Validated: 33
Substitution2: "'ss02' Style Set 2 in Latin lookup 35 subtable" atilde.ss02
Substitution2: "'ss01' Style Set 1 in Latin lookup 34 subtable" atilde.ss01
AlternateSubs2: "'aalt' Access All Alternates in Latin lookup 1 subtable" atilde.ss01 atilde.ss02
EndChar

StartChar: ae
Encoding: 230 230 182
Width: 959
GlyphClass: 2
Flags: HMW
HStem: -12 102 -12 114<628.5 688 628.5 725> 228 92<545 769 545 922 545 769> 437 111<627.5 690> 439 109<265 323>
VStem: 37 154<128.5 165 128.5 186> 386 159<228 228 228 236 228 236 228 330> 769 153<228 320>
AnchorPoint: "Anchor-3" 527.256 536 basechar 0
AnchorPoint: "Anchor-2" 784.739 34 basechar 0
AnchorPoint: "Anchor-0" 432.744 0 basechar 0
LayerCount: 2
Fore
SplineSet
176.62890625 -12 m 0x77
 65.62890625 -12 -3.37890625 39 13.3720703125 134 c 0
 31.7099609375 238 110.116210938 280 218.642578125 300 c 2
 396.932617188 330 l 1
 409.157226562 405 383.15234375 439 323.15234375 439 c 0x6f
 267.15234375 439 229.862304688 409 213.575195312 362 c 1
 63.80859375 369 l 1
 105.262695312 485 203.37109375 548 341.37109375 548 c 0
 423.37109375 548 483.844726562 528 517.439453125 486 c 1
 570.4921875 526 635.37109375 548 708.37109375 548 c 0
 868.37109375 548 951.975585938 438 920.236328125 258 c 2
 914.947265625 228 l 1
 537.947265625 228 l 1
 526.958984375 143 564.729492188 102 633.729492188 102 c 0
 683.729492188 102 723.432617188 123 745.19140625 167 c 1
 894.604492188 158 l 1
 846.737304688 51 739.62890625 -12 611.62890625 -12 c 0
 514.62890625 -12 444.329101562 26 409.142578125 93 c 1
 356.9765625 24 275.62890625 -12 176.62890625 -12 c 0x77
554.168945312 320 m 1
 778.168945312 320 l 1
 786.922851562 398 750.798828125 437 688.798828125 437 c 0xb7
 625.798828125 437 575.216796875 394 554.168945312 320 c 1
240.614257812 90 m 0
 308.966796875 92 362.01953125 132 376.125976562 212 c 2
 380.357421875 236 l 1
 254.478515625 214 l 2
 202.067382812 206 175.8359375 182 169.840820312 148 c 0
 162.963867188 109 183.084960938 87 240.614257812 90 c 0
EndSplineSet
Validated: 33
EndChar

StartChar: b
Encoding: 98 98 183
Width: 634
GlyphClass: 2
Flags: HMW
HStem: -12 115<336.5 365.5 295.5 442> 0 103<66 365.5> 433 115<337.5 366.5> 690 20G<66 216 216 216>
VStem: 66 144.5 66 150<216.5 320 460 710> 443 154<216 320>
AnchorPoint: "Anchor-3" 350.974 536 basechar 0
AnchorPoint: "Anchor-1" 144.718 268 basechar 0
AnchorPoint: "Anchor-0" 256.462 0 basechar 0
LayerCount: 2
Fore
SplineSet
310.345703125 -12 m 0xb6
 235.345703125 -12 184.165039062 21 164.391601562 79 c 1
 147.461914062 0 l 1x7a
 4.4619140625 0 l 1x76
 129.654296875 710 l 1
 279.654296875 710 l 1
 235.572265625 460 l 1
 272.388671875 510 336.088867188 548 409.088867188 548 c 0
 545.088867188 548 612.693359375 438 582.717773438 268 c 0
 552.7421875 98 446.345703125 -12 310.345703125 -12 c 0xb6
288.624023438 103 m 0
 355.624023438 103 410.379882812 164 428.717773438 268 c 0
 447.055664062 372 414.811523438 433 347.811523438 433 c 0
 273.811523438 433 220.055664062 372 201.717773438 268 c 0xb6
 183.555664062 165 215.624023438 103 288.624023438 103 c 0
EndSplineSet
Validated: 33
EndChar

